FK-Kaisei-shared-W4.ufo
<glyph name="exclam" format="2">
  <advance width="388"/>
  <unicode hex="0021"/>
  <note>
cid00002
</note>
  <outline>
    <contour>
      <point x="253" y="661" type="curve" smooth="yes"/>
      <point x="253" y="687"/>
      <point x="237" y="712"/>
      <point x="197" y="712" type="curve" smooth="yes"/>
      <point x="165" y="712"/>
      <point x="141" y="697"/>
      <point x="141" y="661" type="curve" smooth="yes"/>
      <point x="141" y="637"/>
      <point x="145" y="612"/>
      <point x="148" y="583" type="curve" smooth="yes"/>
      <point x="159" y="452"/>
      <point x="174" y="333"/>
      <point x="184" y="204" type="curve"/>
      <point x="210" y="204" type="line"/>
      <point x="223" y="339"/>
      <point x="236" y="485"/>
      <point x="246" y="586" type="curve" smooth="yes"/>
      <point x="248" y="601"/>
      <point x="253" y="647"/>
    </contour>
    <contour>
      <point x="266" y="68" type="curve" smooth="yes"/>
      <point x="266" y="104"/>
      <point x="236" y="134"/>
      <point x="197" y="134" type="curve" smooth="yes"/>
      <point x="158" y="134"/>
      <point x="128" y="104"/>
      <point x="128" y="68" type="curve" smooth="yes"/>
      <point x="128" y="32"/>
      <point x="158" y="2"/>
      <point x="197" y="2" type="curve" smooth="yes"/>
      <point x="236" y="2"/>
      <point x="266" y="32"/>
    </contour>
  </outline>
</glyph>
<glyph name="quotedbl" format="2">
  <advance width="384"/>
  <unicode hex="0022"/>
  <note>
cid00003
</note>
  <outline>
    <contour>
      <point x="161" y="671" type="curve" smooth="yes"/>
      <point x="161" y="687"/>
      <point x="147" y="708"/>
      <point x="117" y="708" type="curve" smooth="yes"/>
      <point x="86" y="708"/>
      <point x="73" y="690"/>
      <point x="73" y="671" type="curve" smooth="yes"/>
      <point x="73" y="660"/>
      <point x="79" y="617"/>
      <point x="84" y="571" type="curve" smooth="yes"/>
      <point x="88" y="526"/>
      <point x="98" y="475"/>
      <point x="104" y="448" type="curve" smooth="yes"/>
      <point x="107" y="433"/>
      <point x="113" y="429"/>
      <point x="116" y="429" type="curve" smooth="yes"/>
      <point x="120" y="429"/>
      <point x="126" y="433"/>
      <point x="129" y="448" type="curve" smooth="yes"/>
      <point x="135" y="476"/>
      <point x="142" y="519"/>
      <point x="148" y="566" type="curve" smooth="yes"/>
      <point x="155" y="614"/>
      <point x="161" y="661"/>
    </contour>
    <contour>
      <point x="317" y="671" type="curve" smooth="yes"/>
      <point x="317" y="690"/>
      <point x="305" y="708"/>
      <point x="275" y="708" type="curve" smooth="yes"/>
      <point x="239" y="708"/>
      <point x="229" y="690"/>
      <point x="229" y="671" type="curve" smooth="yes"/>
      <point x="229" y="668"/>
      <point x="229" y="664"/>
      <point x="230" y="658" type="curve" smooth="yes"/>
      <point x="231" y="651"/>
      <point x="233" y="644"/>
      <point x="234" y="635" type="curve" smooth="yes"/>
      <point x="237" y="617"/>
      <point x="239" y="595"/>
      <point x="242" y="571" type="curve" smooth="yes"/>
      <point x="247" y="525"/>
      <point x="255" y="480"/>
      <point x="260" y="448" type="curve" smooth="yes"/>
      <point x="263" y="431"/>
      <point x="268" y="429"/>
      <point x="274" y="429" type="curve" smooth="yes"/>
      <point x="275" y="429"/>
      <point x="283" y="433"/>
      <point x="286" y="448" type="curve" smooth="yes"/>
      <point x="292" y="476"/>
      <point x="300" y="525"/>
      <point x="306" y="571" type="curve" smooth="yes"/>
      <point x="312" y="611"/>
      <point x="317" y="653"/>
    </contour>
  </outline>
</glyph>
<glyph name="numbersign" format="2">
  <advance width="776"/>
  <unicode hex="0023"/>
  <note>
cid00004
</note>
  <outline>
    <contour>
      <point x="535" y="237" type="line"/>
      <point x="717" y="237" type="line"/>
      <point x="717" y="291" type="line"/>
      <point x="542" y="291" type="line"/>
      <point x="566" y="488" type="line"/>
      <point x="717" y="488" type="line"/>
      <point x="717" y="541" type="line"/>
      <point x="572" y="541" type="line"/>
      <point x="596" y="747" type="line"/>
      <point x="546" y="747" type="line"/>
      <point x="521" y="541" type="line"/>
      <point x="306" y="541" type="line"/>
      <point x="332" y="747" type="line"/>
      <point x="280" y="747" type="line"/>
      <point x="255" y="541" type="line"/>
      <point x="83" y="541" type="line"/>
      <point x="83" y="488" type="line"/>
      <point x="249" y="488" type="line"/>
      <point x="225" y="291" type="line"/>
      <point x="83" y="291" type="line"/>
      <point x="83" y="237" type="line"/>
      <point x="218" y="237" type="line"/>
      <point x="186" y="-17" type="line"/>
      <point x="238" y="-17" type="line"/>
      <point x="269" y="237" type="line"/>
      <point x="485" y="237" type="line"/>
      <point x="453" y="-17" type="line"/>
      <point x="504" y="-17" type="line"/>
    </contour>
    <contour>
      <point x="300" y="488" type="line"/>
      <point x="515" y="488" type="line"/>
      <point x="491" y="291" type="line"/>
      <point x="276" y="291" type="line"/>
    </contour>
  </outline>
</glyph>
<glyph name="dollar" format="2">
  <advance width="728"/>
  <unicode hex="0024"/>
  <note>
cid00005
</note>
  <outline>
    <contour>
      <point x="605" y="183" type="curve" smooth="yes"/>
      <point x="605" y="244"/>
      <point x="580" y="288"/>
      <point x="540" y="322" type="curve" smooth="yes"/>
      <point x="520" y="339"/>
      <point x="495" y="355"/>
      <point x="469" y="368" type="curve" smooth="yes"/>
      <point x="442" y="383"/>
      <point x="412" y="395"/>
      <point x="382" y="409" type="curve"/>
      <point x="382" y="692" type="line"/>
      <point x="415" y="685"/>
      <point x="445" y="666"/>
      <point x="463" y="653" type="curve" smooth="yes"/>
      <point x="489" y="633"/>
      <point x="503" y="609"/>
      <point x="511" y="581" type="curve" smooth="yes"/>
      <point x="516" y="565"/>
      <point x="518" y="553"/>
      <point x="521" y="535" type="curve" smooth="yes"/>
      <point x="522" y="532"/>
      <point x="522" y="530"/>
      <point x="522" y="528" type="curve" smooth="yes"/>
      <point x="523" y="521"/>
      <point x="525" y="518"/>
      <point x="538" y="518" type="curve" smooth="yes"/>
      <point x="561" y="518"/>
      <point x="567" y="526"/>
      <point x="567" y="540" type="curve" smooth="yes"/>
      <point x="567" y="545"/>
      <point x="566" y="551"/>
      <point x="564" y="556" type="curve"/>
      <point x="560" y="575"/>
      <point x="552" y="642"/>
      <point x="550" y="670" type="curve"/>
      <point x="520" y="673"/>
      <point x="495" y="679"/>
      <point x="481" y="685" type="curve" smooth="yes"/>
      <point x="455" y="698"/>
      <point x="423" y="709"/>
      <point x="382" y="711" type="curve"/>
      <point x="382" y="778" type="line"/>
      <point x="347" y="778" type="line"/>
      <point x="347" y="712" type="line"/>
      <point x="221" y="702"/>
      <point x="141" y="635"/>
      <point x="141" y="532" type="curve" smooth="yes"/>
      <point x="141" y="461"/>
      <point x="209" y="403"/>
      <point x="272" y="374" type="curve" smooth="yes"/>
      <point x="299" y="361"/>
      <point x="321" y="351"/>
      <point x="347" y="338" type="curve"/>
      <point x="347" y="25" type="line"/>
      <point x="244" y="33"/>
      <point x="203" y="73"/>
      <point x="185" y="134" type="curve" smooth="yes"/>
      <point x="180" y="149"/>
      <point x="176" y="165"/>
      <point x="174" y="182" type="curve" smooth="yes"/>
      <point x="172" y="194"/>
      <point x="169" y="206"/>
      <point x="151" y="206" type="curve" smooth="yes"/>
      <point x="140" y="206"/>
      <point x="136" y="202"/>
      <point x="134" y="195" type="curve" smooth="yes"/>
      <point x="133" y="189"/>
      <point x="135" y="180"/>
      <point x="135" y="171" type="curve" smooth="yes"/>
      <point x="135" y="164"/>
      <point x="137" y="157"/>
      <point x="138" y="149" type="curve" smooth="yes"/>
      <point x="143" y="114"/>
      <point x="151" y="79"/>
      <point x="156" y="44" type="curve"/>
      <point x="172" y="41"/>
      <point x="185" y="36"/>
      <point x="198" y="30" type="curve" smooth="yes"/>
      <point x="210" y="24"/>
      <point x="222" y="18"/>
      <point x="236" y="13" type="curve" smooth="yes"/>
      <point x="271" y="-1"/>
      <point x="305" y="-4"/>
      <point x="347" y="-5" type="curve"/>
      <point x="347" y="-76" type="line"/>
      <point x="382" y="-76" type="line"/>
      <point x="382" y="-3" type="line"/>
      <point x="499" y="10"/>
      <point x="605" y="59"/>
    </contour>
    <contour>
      <point x="347" y="692" type="curve"/>
      <point x="347" y="424" type="line"/>
      <point x="253" y="482"/>
      <point x="227" y="514"/>
      <point x="227" y="566" type="curve" smooth="yes"/>
      <point x="227" y="646"/>
      <point x="271" y="676"/>
    </contour>
    <contour>
      <point x="507" y="169" type="curve" smooth="yes"/>
      <point x="507" y="87"/>
      <point x="464" y="52"/>
      <point x="382" y="25" type="curve"/>
      <point x="382" y="320" type="line"/>
      <point x="458" y="278"/>
      <point x="507" y="242"/>
    </contour>
  </outline>
</glyph>
<glyph name="percent" format="2">
  <advance width="873"/>
  <unicode hex="0025"/>
  <note>
cid00006
</note>
  <outline>
    <contour>
      <point x="157" y="-30" type="line"/>
      <point x="756" y="694" type="line"/>
      <point x="731" y="717" type="line"/>
      <point x="133" y="-10" type="line"/>
    </contour>
    <contour>
      <point x="418" y="515" type="curve" smooth="yes"/>
      <point x="418" y="618"/>
      <point x="342" y="706"/>
      <point x="249" y="706" type="curve" smooth="yes"/>
      <point x="169" y="706"/>
      <point x="82" y="610"/>
      <point x="82" y="515" type="curve" smooth="yes"/>
      <point x="82" y="419"/>
      <point x="163" y="335"/>
      <point x="249" y="335" type="curve" smooth="yes"/>
      <point x="329" y="335"/>
      <point x="418" y="421"/>
    </contour>
    <contour>
      <point x="340" y="515" type="curve" smooth="yes"/>
      <point x="340" y="447"/>
      <point x="339" y="358"/>
      <point x="249" y="358" type="curve" smooth="yes"/>
      <point x="180" y="358"/>
      <point x="158" y="438"/>
      <point x="158" y="515" type="curve" smooth="yes"/>
      <point x="158" y="585"/>
      <point x="160" y="684"/>
      <point x="249" y="684" type="curve" smooth="yes"/>
      <point x="339" y="684"/>
      <point x="340" y="584"/>
    </contour>
    <contour>
      <point x="818" y="179" type="curve" smooth="yes"/>
      <point x="818" y="282"/>
      <point x="742" y="369"/>
      <point x="648" y="369" type="curve" smooth="yes"/>
      <point x="569" y="369"/>
      <point x="482" y="273"/>
      <point x="482" y="179" type="curve" smooth="yes"/>
      <point x="482" y="83"/>
      <point x="562" y="0"/>
      <point x="648" y="0" type="curve" smooth="yes"/>
      <point x="727" y="0"/>
      <point x="818" y="85"/>
    </contour>
    <contour>
      <point x="740" y="179" type="curve" smooth="yes"/>
      <point x="740" y="110"/>
      <point x="738" y="23"/>
      <point x="648" y="23" type="curve" smooth="yes"/>
      <point x="579" y="23"/>
      <point x="558" y="102"/>
      <point x="558" y="179" type="curve" smooth="yes"/>
      <point x="558" y="248"/>
      <point x="560" y="348"/>
      <point x="648" y="348" type="curve" smooth="yes"/>
      <point x="739" y="348"/>
      <point x="740" y="249"/>
    </contour>
  </outline>
</glyph>
<glyph name="ampersand" format="2">
  <advance width="757"/>
  <unicode hex="0026"/>
  <note>
cid00007
</note>
  <outline>
    <contour>
      <point x="753" y="30" type="curve"/>
      <point x="737" y="23"/>
      <point x="721" y="22"/>
      <point x="705" y="22" type="curve" smooth="yes"/>
      <point x="639" y="22"/>
      <point x="590" y="45"/>
      <point x="539" y="91" type="curve"/>
      <point x="594" y="139"/>
      <point x="623" y="199"/>
      <point x="623" y="273" type="curve" smooth="yes"/>
      <point x="623" y="317"/>
      <point x="590" y="350"/>
      <point x="551" y="368" type="curve"/>
      <point x="569" y="370"/>
      <point x="586" y="370"/>
      <point x="604" y="371" type="curve" smooth="yes"/>
      <point x="658" y="371" type="line" smooth="yes"/>
      <point x="663" y="371"/>
      <point x="667" y="370"/>
      <point x="671" y="370" type="curve" smooth="yes"/>
      <point x="675" y="370"/>
      <point x="678" y="370"/>
      <point x="681" y="371" type="curve" smooth="yes"/>
      <point x="688" y="372"/>
      <point x="693" y="376"/>
      <point x="698" y="386" type="curve" smooth="yes"/>
      <point x="703" y="395"/>
      <point x="729" y="453"/>
      <point x="729" y="459" type="curve" smooth="yes"/>
      <point x="729" y="467"/>
      <point x="725" y="476"/>
      <point x="716" y="476" type="curve" smooth="yes"/>
      <point x="711" y="476"/>
      <point x="705" y="471"/>
      <point x="699" y="463" type="curve" smooth="yes"/>
      <point x="691" y="451"/>
      <point x="675" y="429"/>
      <point x="668" y="423" type="curve" smooth="yes"/>
      <point x="655" y="412"/>
      <point x="636" y="406"/>
      <point x="621" y="401" type="curve"/>
      <point x="613" y="400"/>
      <point x="587" y="397"/>
      <point x="560" y="395" type="curve" smooth="yes"/>
      <point x="533" y="392"/>
      <point x="505" y="390"/>
      <point x="493" y="388" type="curve" smooth="yes"/>
      <point x="489" y="388"/>
      <point x="486" y="387"/>
      <point x="486" y="387" type="curve"/>
      <point x="484" y="385"/>
      <point x="482" y="383"/>
      <point x="481" y="381" type="curve" smooth="yes"/>
      <point x="478" y="375"/>
      <point x="476" y="369"/>
      <point x="476" y="362" type="curve" smooth="yes"/>
      <point x="476" y="359"/>
      <point x="479" y="355"/>
      <point x="484" y="355" type="curve" smooth="yes"/>
      <point x="489" y="355" type="line"/>
      <point x="490" y="356"/>
      <point x="491" y="356"/>
      <point x="494" y="357" type="curve" smooth="yes"/>
      <point x="496" y="358"/>
      <point x="499" y="360"/>
      <point x="501" y="360" type="curve" smooth="yes"/>
      <point x="503" y="360" type="line"/>
      <point x="509" y="358"/>
      <point x="514" y="355"/>
      <point x="519" y="352" type="curve" smooth="yes"/>
      <point x="545" y="333"/>
      <point x="549" y="291"/>
      <point x="549" y="261" type="curve" smooth="yes"/>
      <point x="549" y="205"/>
      <point x="537" y="166"/>
      <point x="505" y="119" type="curve"/>
      <point x="424" y="185"/>
      <point x="338" y="308"/>
      <point x="298" y="404" type="curve"/>
      <point x="305" y="410"/>
      <point x="313" y="415"/>
      <point x="321" y="420" type="curve" smooth="yes"/>
      <point x="329" y="425"/>
      <point x="337" y="429"/>
      <point x="346" y="435" type="curve" smooth="yes"/>
      <point x="398" y="467"/>
      <point x="471" y="524"/>
      <point x="471" y="592" type="curve" smooth="yes"/>
      <point x="471" y="654"/>
      <point x="421" y="692"/>
      <point x="361" y="692" type="curve" smooth="yes"/>
      <point x="304" y="692"/>
      <point x="251" y="673"/>
      <point x="214" y="628" type="curve" smooth="yes"/>
      <point x="190" y="598"/>
      <point x="174" y="560"/>
      <point x="174" y="521" type="curve" smooth="yes"/>
      <point x="174" y="474"/>
      <point x="192" y="429"/>
      <point x="210" y="387" type="curve"/>
      <point x="137" y="336"/>
      <point x="63" y="263"/>
      <point x="63" y="168" type="curve" smooth="yes"/>
      <point x="63" y="57"/>
      <point x="157" y="-16"/>
      <point x="265" y="-16" type="curve" smooth="yes"/>
      <point x="344" y="-16"/>
      <point x="425" y="10"/>
      <point x="489" y="58" type="curve"/>
      <point x="502" y="49"/>
      <point x="515" y="40"/>
      <point x="529" y="32" type="curve" smooth="yes"/>
      <point x="543" y="23"/>
      <point x="557" y="14"/>
      <point x="571" y="7" type="curve" smooth="yes"/>
      <point x="600" y="-7"/>
      <point x="631" y="-18"/>
      <point x="663" y="-18" type="curve" smooth="yes"/>
      <point x="689" y="-18"/>
      <point x="752" y="-6"/>
    </contour>
    <contour>
      <point x="398" y="594" type="curve" smooth="yes"/>
      <point x="398" y="531"/>
      <point x="327" y="471"/>
      <point x="280" y="434" type="curve"/>
      <point x="260" y="474"/>
      <point x="244" y="517"/>
      <point x="244" y="562" type="curve" smooth="yes"/>
      <point x="244" y="620"/>
      <point x="272" y="659"/>
      <point x="332" y="659" type="curve" smooth="yes"/>
      <point x="368" y="659"/>
      <point x="398" y="630"/>
    </contour>
    <contour>
      <point x="461" y="75" type="curve"/>
      <point x="417" y="43"/>
      <point x="366" y="30"/>
      <point x="312" y="30" type="curve" smooth="yes"/>
      <point x="207" y="30"/>
      <point x="150" y="97"/>
      <point x="150" y="199" type="curve" smooth="yes"/>
      <point x="150" y="262"/>
      <point x="180" y="315"/>
      <point x="226" y="357" type="curve"/>
      <point x="283" y="252"/>
      <point x="364" y="147"/>
    </contour>
  </outline>
</glyph>
<glyph name="quotesingle" format="2">
  <advance width="276"/>
  <unicode hex="0027"/>
  <note>
cid00008
</note>
  <outline>
    <contour>
      <point x="183" y="671" type="curve" smooth="yes"/>
      <point x="183" y="687"/>
      <point x="169" y="708"/>
      <point x="141" y="708" type="curve" smooth="yes"/>
      <point x="109" y="708"/>
      <point x="97" y="690"/>
      <point x="97" y="671" type="curve" smooth="yes"/>
      <point x="97" y="660"/>
      <point x="104" y="617"/>
      <point x="109" y="571" type="curve" smooth="yes"/>
      <point x="114" y="526"/>
      <point x="122" y="475"/>
      <point x="127" y="448" type="curve" smooth="yes"/>
      <point x="130" y="433"/>
      <point x="137" y="429"/>
      <point x="140" y="429" type="curve" smooth="yes"/>
      <point x="144" y="429"/>
      <point x="150" y="433"/>
      <point x="153" y="448" type="curve" smooth="yes"/>
      <point x="158" y="476"/>
      <point x="163" y="519"/>
      <point x="170" y="566" type="curve" smooth="yes"/>
      <point x="177" y="614"/>
      <point x="183" y="661"/>
    </contour>
  </outline>
</glyph>
<glyph name="parenleft" format="2">
  <advance width="437"/>
  <unicode hex="0028"/>
  <note>
cid00009
</note>
  <outline>
    <contour>
      <point x="386" y="-111" type="curve"/>
      <point x="399" y="-89" type="line"/>
      <point x="350" y="-53"/>
      <point x="217" y="72"/>
      <point x="217" y="350" type="curve" smooth="yes"/>
      <point x="217" y="635"/>
      <point x="345" y="760"/>
      <point x="396" y="799" type="curve"/>
      <point x="386" y="820" type="line"/>
      <point x="308" y="770"/>
      <point x="142" y="641"/>
      <point x="142" y="344" type="curve" smooth="yes"/>
      <point x="142" y="43"/>
      <point x="326" y="-75"/>
    </contour>
  </outline>
</glyph>
<glyph name="parenright" format="2">
  <advance width="434"/>
  <unicode hex="0029"/>
  <note>
cid00010
</note>
  <outline>
    <contour>
      <point x="301" y="344" type="curve" smooth="yes"/>
      <point x="301" y="641"/>
      <point x="135" y="770"/>
      <point x="57" y="820" type="curve"/>
      <point x="47" y="799" type="line"/>
      <point x="98" y="760"/>
      <point x="226" y="635"/>
      <point x="226" y="350" type="curve" smooth="yes"/>
      <point x="226" y="71"/>
      <point x="96" y="-53"/>
      <point x="48" y="-88" type="curve"/>
      <point x="57" y="-110" type="line"/>
      <point x="118" y="-74"/>
      <point x="301" y="43"/>
    </contour>
  </outline>
</glyph>
<glyph name="asterisk" format="2">
  <advance width="493"/>
  <unicode hex="002A"/>
  <note>
cid00011
</note>
  <outline>
    <contour>
      <point x="411" y="490" type="curve" smooth="yes"/>
      <point x="411" y="500"/>
      <point x="406" y="511"/>
      <point x="396" y="516" type="curve"/>
      <point x="395" y="517"/>
      <point x="394" y="517"/>
      <point x="394" y="518" type="curve"/>
      <point x="393" y="518"/>
      <point x="392" y="518"/>
      <point x="391" y="519" type="curve"/>
      <point x="378" y="522"/>
      <point x="367" y="526"/>
      <point x="355" y="530" type="curve" smooth="yes"/>
      <point x="311" y="546" type="line" smooth="yes"/>
      <point x="297" y="551"/>
      <point x="281" y="557"/>
      <point x="258" y="567" type="curve"/>
      <point x="303" y="588"/>
      <point x="348" y="603"/>
      <point x="391" y="618" type="curve"/>
      <point x="392" y="618"/>
      <point x="392" y="619"/>
      <point x="393" y="619" type="curve"/>
      <point x="393" y="619"/>
      <point x="394" y="619"/>
      <point x="395" y="620" type="curve"/>
      <point x="404" y="625"/>
      <point x="409" y="637"/>
      <point x="409" y="648" type="curve" smooth="yes"/>
      <point x="409" y="663"/>
      <point x="397" y="675"/>
      <point x="380" y="675" type="curve" smooth="yes"/>
      <point x="371" y="675"/>
      <point x="365" y="671"/>
      <point x="361" y="668" type="curve" smooth="yes"/>
      <point x="344" y="653"/>
      <point x="328" y="638"/>
      <point x="312" y="623" type="curve" smooth="yes"/>
      <point x="295" y="608"/>
      <point x="278" y="593"/>
      <point x="253" y="575" type="curve"/>
      <point x="260" y="628"/>
      <point x="269" y="674"/>
      <point x="278" y="717" type="curve"/>
      <point x="279" y="719"/>
      <point x="279" y="720"/>
      <point x="279" y="720" type="curve"/>
      <point x="279" y="735"/>
      <point x="266" y="752"/>
      <point x="249" y="752" type="curve" smooth="yes"/>
      <point x="232" y="752"/>
      <point x="219" y="737"/>
      <point x="219" y="722" type="curve" smooth="yes"/>
      <point x="219" y="720" type="line"/>
      <point x="220" y="719"/>
      <point x="220" y="718"/>
      <point x="220" y="717" type="curve" smooth="yes"/>
      <point x="229" y="673"/>
      <point x="239" y="627"/>
      <point x="246" y="576" type="curve"/>
      <point x="222" y="592"/>
      <point x="205" y="605"/>
      <point x="189" y="619" type="curve" smooth="yes"/>
      <point x="171" y="635"/>
      <point x="155" y="652"/>
      <point x="138" y="667" type="curve" smooth="yes"/>
      <point x="134" y="671"/>
      <point x="126" y="673"/>
      <point x="119" y="673" type="curve" smooth="yes"/>
      <point x="102" y="673"/>
      <point x="89" y="662"/>
      <point x="89" y="646" type="curve" smooth="yes"/>
      <point x="89" y="639"/>
      <point x="93" y="622"/>
      <point x="105" y="618" type="curve" smooth="yes"/>
      <point x="153" y="604"/>
      <point x="196" y="589"/>
      <point x="242" y="568" type="curve"/>
      <point x="201" y="546"/>
      <point x="144" y="528"/>
      <point x="108" y="518" type="curve" smooth="yes"/>
      <point x="97" y="515"/>
      <point x="89" y="501"/>
      <point x="89" y="487" type="curve" smooth="yes"/>
      <point x="89" y="473"/>
      <point x="102" y="460"/>
      <point x="119" y="460" type="curve" smooth="yes"/>
      <point x="126" y="460"/>
      <point x="133" y="463"/>
      <point x="136" y="466" type="curve" smooth="yes"/>
      <point x="191" y="516" type="line" smooth="yes"/>
      <point x="208" y="531"/>
      <point x="225" y="546"/>
      <point x="246" y="560" type="curve"/>
      <point x="242" y="517"/>
      <point x="234" y="481"/>
      <point x="229" y="450" type="curve" smooth="yes"/>
      <point x="228" y="445"/>
      <point x="226" y="439"/>
      <point x="224" y="432" type="curve" smooth="yes"/>
      <point x="222" y="425"/>
      <point x="221" y="419"/>
      <point x="221" y="415" type="curve" smooth="yes"/>
      <point x="221" y="398"/>
      <point x="231" y="383"/>
      <point x="251" y="383" type="curve" smooth="yes"/>
      <point x="268" y="383"/>
      <point x="280" y="398"/>
      <point x="280" y="413" type="curve" smooth="yes"/>
      <point x="280" y="422" type="line"/>
      <point x="272" y="462"/>
      <point x="259" y="518"/>
      <point x="253" y="561" type="curve"/>
      <point x="293" y="529"/>
      <point x="326" y="500"/>
      <point x="359" y="471" type="curve" smooth="yes"/>
      <point x="365" y="466"/>
      <point x="372" y="463"/>
      <point x="381" y="463" type="curve" smooth="yes"/>
      <point x="398" y="463"/>
      <point x="411" y="474"/>
    </contour>
  </outline>
</glyph>
<glyph name="plus" format="2">
  <advance width="690"/>
  <unicode hex="002B"/>
  <note>
cid00012
</note>
  <outline>
    <contour>
      <point x="373" y="281" type="line"/>
      <point x="593" y="281" type="line"/>
      <point x="593" y="322" type="line"/>
      <point x="373" y="322" type="line"/>
      <point x="373" y="549" type="line"/>
      <point x="327" y="549" type="line"/>
      <point x="327" y="322" type="line"/>
      <point x="107" y="322" type="line"/>
      <point x="107" y="281" type="line"/>
      <point x="327" y="281" type="line"/>
      <point x="327" y="41" type="line"/>
      <point x="373" y="41" type="line"/>
    </contour>
  </outline>
</glyph>
<glyph name="comma" format="2">
  <advance width="384"/>
  <unicode hex="002C"/>
  <note>
cid00013
</note>
  <outline>
    <contour>
      <point x="259" y="44" type="curve" smooth="yes"/>
      <point x="259" y="90"/>
      <point x="240" y="127"/>
      <point x="192" y="127" type="curve" smooth="yes"/>
      <point x="154" y="127"/>
      <point x="131" y="98"/>
      <point x="131" y="63" type="curve" smooth="yes"/>
      <point x="131" y="48"/>
      <point x="142" y="19"/>
      <point x="163" y="15" type="curve" smooth="yes"/>
      <point x="170" y="14"/>
      <point x="174" y="15"/>
      <point x="179" y="17" type="curve" smooth="yes"/>
      <point x="183" y="19"/>
      <point x="186" y="19"/>
      <point x="189" y="19" type="curve"/>
      <point x="191" y="20"/>
      <point x="194" y="19"/>
      <point x="199" y="19" type="curve" smooth="yes"/>
      <point x="206" y="19"/>
      <point x="209" y="13"/>
      <point x="209" y="3" type="curve" smooth="yes"/>
      <point x="209" y="-25"/>
      <point x="186" y="-91"/>
      <point x="160" y="-123" type="curve"/>
      <point x="189" y="-130" type="line"/>
      <point x="225" y="-87"/>
      <point x="259" y="-10"/>
    </contour>
  </outline>
</glyph>
<glyph name="hyphen" format="2">
  <advance width="493"/>
  <unicode hex="002D"/>
  <unicode hex="2011"/>
  <note>
cid00014
</note>
  <outline>
    <contour>
      <point x="60" y="282" type="line"/>
      <point x="432" y="282" type="line"/>
      <point x="432" y="323" type="line"/>
      <point x="60" y="323" type="line"/>
    </contour>
  </outline>
</glyph>
<glyph name="period" format="2">
  <advance width="384"/>
  <unicode hex="002E"/>
  <note>
cid00015
</note>
  <outline>
    <contour>
      <point x="263" y="52" type="curve" smooth="yes"/>
      <point x="263" y="87"/>
      <point x="233" y="117"/>
      <point x="195" y="117" type="curve" smooth="yes"/>
      <point x="157" y="117"/>
      <point x="127" y="87"/>
      <point x="127" y="52" type="curve" smooth="yes"/>
      <point x="127" y="17"/>
      <point x="157" y="-12"/>
      <point x="195" y="-12" type="curve" smooth="yes"/>
      <point x="233" y="-12"/>
      <point x="263" y="17"/>
    </contour>
  </outline>
</glyph>
<glyph name="slash" format="2">
  <advance width="493"/>
  <unicode hex="002F"/>
  <note>
cid00016
</note>
  <outline>
    <contour>
      <point x="94" y="-67" type="line"/>
      <point x="442" y="759" type="line"/>
      <point x="405" y="777" type="line"/>
      <point x="58" y="-49" type="line"/>
    </contour>
  </outline>
</glyph>
<glyph name="zero" format="2">
  <advance width="573"/>
  <unicode hex="0030"/>
  <note>
cid00017
</note>
  <outline>
    <contour>
      <point x="528" y="360" type="curve" smooth="yes"/>
      <point x="528" y="500"/>
      <point x="475" y="705"/>
      <point x="300" y="705" type="curve" smooth="yes"/>
      <point x="128" y="705"/>
      <point x="54" y="510"/>
      <point x="54" y="336" type="curve" smooth="yes"/>
      <point x="55" y="147"/>
      <point x="139" y="1"/>
      <point x="283" y="1" type="curve" smooth="yes"/>
      <point x="466" y="1"/>
      <point x="528" y="215"/>
    </contour>
    <contour>
      <point x="427" y="347" type="curve" smooth="yes"/>
      <point x="427" y="262"/>
      <point x="415" y="30"/>
      <point x="285" y="30" type="curve" smooth="yes"/>
      <point x="171" y="30"/>
      <point x="151" y="222"/>
      <point x="151" y="341" type="curve" smooth="yes"/>
      <point x="151" y="428"/>
      <point x="167" y="677"/>
      <point x="292" y="677" type="curve" smooth="yes"/>
      <point x="427" y="677"/>
      <point x="427" y="440"/>
    </contour>
  </outline>
</glyph>
<glyph name="one" format="2">
  <advance width="573"/>
  <unicode hex="0031"/>
  <note>
cid00018
</note>
  <outline>
    <contour>
      <point x="472" y="14" type="curve" smooth="yes"/>
      <point x="472" y="21"/>
      <point x="470" y="29"/>
      <point x="463" y="29" type="curve" smooth="yes"/>
      <point x="455" y="29"/>
      <point x="444" y="28"/>
      <point x="435" y="28" type="curve" smooth="yes"/>
      <point x="407" y="28" type="line" smooth="yes"/>
      <point x="384" y="28"/>
      <point x="360" y="37"/>
      <point x="360" y="52" type="curve" smooth="yes"/>
      <point x="359" y="88" type="line"/>
      <point x="359" y="342" type="line" smooth="yes"/>
      <point x="359" y="433"/>
      <point x="362" y="539"/>
      <point x="362" y="620" type="curve" smooth="yes"/>
      <point x="362" y="635"/>
      <point x="363" y="651"/>
      <point x="363" y="661" type="curve" smooth="yes"/>
      <point x="363" y="672"/>
      <point x="363" y="683"/>
      <point x="364" y="697" type="curve" smooth="yes"/>
      <point x="365" y="709"/>
      <point x="364" y="716"/>
      <point x="354" y="716" type="curve" smooth="yes"/>
      <point x="350" y="716" type="line"/>
      <point x="350" y="716"/>
      <point x="349" y="716"/>
      <point x="349" y="717" type="curve"/>
      <point x="347" y="717"/>
      <point x="346" y="716"/>
      <point x="346" y="716" type="curve"/>
      <point x="345" y="715" type="line"/>
      <point x="344" y="715"/>
      <point x="344" y="715"/>
      <point x="343" y="714" type="curve"/>
      <point x="336" y="712"/>
      <point x="324" y="709"/>
      <point x="306" y="701" type="curve" smooth="yes"/>
      <point x="282" y="692"/>
      <point x="250" y="682"/>
      <point x="226" y="673" type="curve" smooth="yes"/>
      <point x="188" y="661"/>
      <point x="153" y="646"/>
      <point x="120" y="636" type="curve"/>
      <point x="112" y="635"/>
      <point x="104" y="630"/>
      <point x="104" y="624" type="curve" smooth="yes"/>
      <point x="104" y="617"/>
      <point x="105" y="612"/>
      <point x="108" y="607" type="curve" smooth="yes"/>
      <point x="114" y="599"/>
      <point x="119" y="598"/>
      <point x="126" y="601" type="curve" smooth="yes"/>
      <point x="159" y="613"/>
      <point x="204" y="631"/>
      <point x="239" y="643" type="curve" smooth="yes"/>
      <point x="251" y="647"/>
      <point x="258" y="642"/>
      <point x="258" y="631" type="curve" smooth="yes"/>
      <point x="259" y="375" type="line" smooth="yes"/>
      <point x="259" y="309"/>
      <point x="257" y="133"/>
      <point x="257" y="85" type="curve" smooth="yes"/>
      <point x="257" y="52" type="line" smooth="yes"/>
      <point x="257" y="39"/>
      <point x="245" y="32"/>
      <point x="229" y="29" type="curve" smooth="yes"/>
      <point x="221" y="28"/>
      <point x="212" y="28"/>
      <point x="203" y="27" type="curve" smooth="yes"/>
      <point x="194" y="27"/>
      <point x="184" y="27"/>
      <point x="176" y="27" type="curve" smooth="yes"/>
      <point x="154" y="28" type="line" smooth="yes"/>
      <point x="147" y="28"/>
      <point x="145" y="22"/>
      <point x="145" y="14" type="curve" smooth="yes"/>
      <point x="145" y="5"/>
      <point x="147" y="-2"/>
      <point x="157" y="-2" type="curve" smooth="yes"/>
      <point x="158" y="-2"/>
      <point x="159" y="-1"/>
      <point x="161" y="0" type="curve"/>
      <point x="170" y="0"/>
      <point x="180" y="0"/>
      <point x="190" y="1" type="curve" smooth="yes"/>
      <point x="246" y="3"/>
      <point x="264" y="4"/>
      <point x="307" y="4" type="curve" smooth="yes"/>
      <point x="348" y="4"/>
      <point x="408" y="2"/>
      <point x="430" y="2" type="curve"/>
      <point x="436" y="1"/>
      <point x="442" y="1"/>
      <point x="448" y="-1" type="curve"/>
      <point x="456" y="-1" type="line" smooth="yes"/>
      <point x="458" y="-1"/>
      <point x="461" y="-1"/>
      <point x="464" y="0" type="curve"/>
      <point x="470" y="0"/>
      <point x="472" y="6"/>
    </contour>
  </outline>
</glyph>
<glyph name="two" format="2">
  <advance width="573"/>
  <unicode hex="0032"/>
  <note>
cid00019
</note>
  <outline>
    <contour>
      <point x="534" y="149" type="curve" smooth="yes"/>
      <point x="534" y="151"/>
      <point x="530" y="155"/>
      <point x="528" y="156" type="curve" smooth="yes"/>
      <point x="523" y="158"/>
      <point x="519" y="158"/>
      <point x="516" y="153" type="curve" smooth="yes"/>
      <point x="479" y="95"/>
      <point x="423" y="78"/>
      <point x="356" y="76" type="curve" smooth="yes"/>
      <point x="320" y="76"/>
      <point x="276" y="75"/>
      <point x="234" y="73" type="curve" smooth="yes"/>
      <point x="195" y="73"/>
      <point x="158" y="73"/>
      <point x="122" y="71" type="curve" smooth="yes"/>
      <point x="112" y="71"/>
      <point x="114" y="81"/>
      <point x="115" y="83" type="curve" smooth="yes"/>
      <point x="118" y="92"/>
      <point x="126" y="104"/>
      <point x="135" y="115" type="curve" smooth="yes"/>
      <point x="144" y="127"/>
      <point x="154" y="138"/>
      <point x="162" y="146" type="curve" smooth="yes"/>
      <point x="181" y="167"/>
      <point x="217" y="197"/>
      <point x="245" y="218" type="curve" smooth="yes"/>
      <point x="281" y="244"/>
      <point x="341" y="279"/>
      <point x="381" y="311" type="curve" smooth="yes"/>
      <point x="464" y="376"/>
      <point x="507" y="439"/>
      <point x="507" y="532" type="curve" smooth="yes"/>
      <point x="507" y="626"/>
      <point x="420" y="698"/>
      <point x="314" y="698" type="curve" smooth="yes"/>
      <point x="222" y="698"/>
      <point x="136" y="663"/>
      <point x="93" y="600" type="curve" smooth="yes"/>
      <point x="78" y="578"/>
      <point x="69" y="552"/>
      <point x="69" y="524" type="curve" smooth="yes"/>
      <point x="69" y="501"/>
      <point x="76" y="481"/>
      <point x="104" y="477" type="curve" smooth="yes"/>
      <point x="145" y="470"/>
      <point x="156" y="488"/>
      <point x="157" y="508" type="curve" smooth="yes"/>
      <point x="157" y="526"/>
      <point x="158" y="543"/>
      <point x="162" y="560" type="curve" smooth="yes"/>
      <point x="165" y="577"/>
      <point x="170" y="596"/>
      <point x="180" y="612" type="curve" smooth="yes"/>
      <point x="210" y="658"/>
      <point x="250" y="668"/>
      <point x="295" y="668" type="curve" smooth="yes"/>
      <point x="377" y="668"/>
      <point x="403" y="605"/>
      <point x="403" y="527" type="curve" smooth="yes"/>
      <point x="403" y="456"/>
      <point x="358" y="387"/>
      <point x="317" y="348" type="curve" smooth="yes"/>
      <point x="271" y="304"/>
      <point x="190" y="227"/>
      <point x="139" y="168" type="curve" smooth="yes"/>
      <point x="108" y="132"/>
      <point x="91" y="109"/>
      <point x="77" y="83" type="curve" smooth="yes"/>
      <point x="66" y="61"/>
      <point x="60" y="43"/>
      <point x="60" y="15" type="curve" smooth="yes"/>
      <point x="60" y="9"/>
      <point x="67" y="2"/>
      <point x="79" y="3" type="curve" smooth="yes"/>
      <point x="93" y="4"/>
      <point x="138" y="5"/>
      <point x="167" y="5" type="curve" smooth="yes"/>
      <point x="265" y="5" type="line" smooth="yes"/>
      <point x="281" y="5"/>
      <point x="293" y="6"/>
      <point x="303" y="6" type="curve"/>
      <point x="309" y="7"/>
      <point x="314" y="7"/>
      <point x="319" y="7" type="curve" smooth="yes"/>
      <point x="324" y="7"/>
      <point x="329" y="7"/>
      <point x="334" y="8" type="curve"/>
      <point x="358" y="8"/>
      <point x="382" y="9"/>
      <point x="420" y="7" type="curve" smooth="yes"/>
      <point x="475" y="4" type="line"/>
      <point x="480" y="3"/>
      <point x="482" y="3"/>
      <point x="485" y="5" type="curve"/>
      <point x="491" y="7"/>
      <point x="494" y="11"/>
      <point x="495" y="17" type="curve" smooth="yes"/>
      <point x="501" y="42"/>
      <point x="506" y="66"/>
      <point x="513" y="89" type="curve" smooth="yes"/>
      <point x="518" y="108"/>
      <point x="522" y="115"/>
      <point x="526" y="128" type="curve" smooth="yes"/>
      <point x="528" y="133"/>
      <point x="533" y="144"/>
    </contour>
  </outline>
</glyph>
<glyph name="three" format="2">
  <advance width="573"/>
  <unicode hex="0033"/>
  <note>
cid00020
</note>
  <outline>
    <contour>
      <point x="523" y="234" type="curve" smooth="yes"/>
      <point x="523" y="298"/>
      <point x="481" y="350"/>
      <point x="417" y="372" type="curve" smooth="yes"/>
      <point x="402" y="378"/>
      <point x="367" y="383"/>
      <point x="327" y="385" type="curve"/>
      <point x="373" y="397"/>
      <point x="401" y="412"/>
      <point x="424" y="432" type="curve" smooth="yes"/>
      <point x="467" y="469"/>
      <point x="490" y="517"/>
      <point x="490" y="556" type="curve" smooth="yes"/>
      <point x="490" y="639"/>
      <point x="416" y="707"/>
      <point x="307" y="707" type="curve" smooth="yes"/>
      <point x="228" y="707"/>
      <point x="148" y="684"/>
      <point x="100" y="622" type="curve" smooth="yes"/>
      <point x="87" y="605"/>
      <point x="76" y="574"/>
      <point x="76" y="564" type="curve" smooth="yes"/>
      <point x="76" y="545"/>
      <point x="83" y="529"/>
      <point x="107" y="520" type="curve"/>
      <point x="112" y="519"/>
      <point x="126" y="517"/>
      <point x="133" y="518" type="curve" smooth="yes"/>
      <point x="148" y="519"/>
      <point x="152" y="527"/>
      <point x="152" y="538" type="curve" smooth="yes"/>
      <point x="152" y="614"/>
      <point x="191" y="678"/>
      <point x="281" y="678" type="curve" smooth="yes"/>
      <point x="365" y="678"/>
      <point x="393" y="619"/>
      <point x="393" y="541" type="curve" smooth="yes"/>
      <point x="393" y="502"/>
      <point x="383" y="466"/>
      <point x="365" y="443" type="curve" smooth="yes"/>
      <point x="345" y="418"/>
      <point x="319" y="408"/>
      <point x="293" y="400" type="curve" smooth="yes"/>
      <point x="284" y="398"/>
      <point x="269" y="396"/>
      <point x="254" y="395" type="curve" smooth="yes"/>
      <point x="215" y="395" type="line"/>
      <point x="208" y="395" type="line" smooth="yes"/>
      <point x="206" y="395"/>
      <point x="204" y="394"/>
      <point x="201" y="396" type="curve"/>
      <point x="199" y="396"/>
      <point x="194" y="395"/>
      <point x="192" y="390" type="curve" smooth="yes"/>
      <point x="190" y="385"/>
      <point x="189" y="380"/>
      <point x="189" y="376" type="curve" smooth="yes"/>
      <point x="189" y="374" type="line"/>
      <point x="188" y="373"/>
      <point x="188" y="371"/>
      <point x="189" y="370" type="curve"/>
      <point x="189" y="368"/>
      <point x="189" y="366"/>
      <point x="190" y="363" type="curve" smooth="yes"/>
      <point x="192" y="358"/>
      <point x="196" y="356"/>
      <point x="202" y="358" type="curve"/>
      <point x="207" y="358"/>
      <point x="210" y="360"/>
      <point x="214" y="361" type="curve" smooth="yes"/>
      <point x="219" y="362"/>
      <point x="223" y="364"/>
      <point x="228" y="365" type="curve" smooth="yes"/>
      <point x="243" y="368"/>
      <point x="276" y="371"/>
      <point x="283" y="371" type="curve" smooth="yes"/>
      <point x="348" y="371"/>
      <point x="419" y="333"/>
      <point x="419" y="222" type="curve" smooth="yes"/>
      <point x="419" y="143"/>
      <point x="399" y="83"/>
      <point x="350" y="52" type="curve" smooth="yes"/>
      <point x="321" y="34"/>
      <point x="287" y="25"/>
      <point x="232" y="25" type="curve" smooth="yes"/>
      <point x="169" y="25"/>
      <point x="137" y="86"/>
      <point x="133" y="136" type="curve" smooth="yes"/>
      <point x="132" y="150"/>
      <point x="123" y="165"/>
      <point x="93" y="161" type="curve" smooth="yes"/>
      <point x="65" y="159"/>
      <point x="53" y="142"/>
      <point x="53" y="117" type="curve" smooth="yes"/>
      <point x="53" y="85"/>
      <point x="74" y="-4"/>
      <point x="238" y="-4" type="curve" smooth="yes"/>
      <point x="308" y="-4"/>
      <point x="376" y="13"/>
      <point x="426" y="47" type="curve" smooth="yes"/>
      <point x="486" y="88"/>
      <point x="523" y="149"/>
    </contour>
  </outline>
</glyph>
<glyph name="four" format="2">
  <advance width="573"/>
  <unicode hex="0034"/>
  <note>
cid00021
</note>
  <outline>
    <contour>
      <point x="550" y="248" type="curve" smooth="yes"/>
      <point x="555" y="264" type="line" smooth="yes"/>
      <point x="556" y="267"/>
      <point x="553" y="271"/>
      <point x="549" y="272" type="curve" smooth="yes"/>
      <point x="545" y="274"/>
      <point x="543" y="273"/>
      <point x="542" y="271" type="curve" smooth="yes"/>
      <point x="541" y="270"/>
      <point x="541" y="268"/>
      <point x="539" y="265" type="curve" smooth="yes"/>
      <point x="537" y="263"/>
      <point x="535" y="260"/>
      <point x="533" y="257" type="curve" smooth="yes"/>
      <point x="530" y="254"/>
      <point x="527" y="251"/>
      <point x="523" y="249" type="curve"/>
      <point x="515" y="243"/>
      <point x="504" y="240"/>
      <point x="486" y="240" type="curve" smooth="yes"/>
      <point x="427" y="240" type="line"/>
      <point x="427" y="692" type="line" smooth="yes"/>
      <point x="427" y="693"/>
      <point x="428" y="695"/>
      <point x="429" y="697" type="curve"/>
      <point x="429" y="697"/>
      <point x="430" y="698"/>
      <point x="430" y="699" type="curve" smooth="yes"/>
      <point x="430" y="700"/>
      <point x="430" y="701"/>
      <point x="431" y="702" type="curve"/>
      <point x="431" y="704"/>
      <point x="430" y="707"/>
      <point x="422" y="707" type="curve" smooth="yes"/>
      <point x="371" y="707" type="line" smooth="yes"/>
      <point x="367" y="707"/>
      <point x="364" y="704"/>
      <point x="362" y="702" type="curve" smooth="yes"/>
      <point x="360" y="699"/>
      <point x="357" y="696"/>
      <point x="355" y="692" type="curve" smooth="yes"/>
      <point x="260" y="547"/>
      <point x="33" y="226"/>
      <point x="33" y="226" type="curve"/>
      <point x="31" y="223"/>
      <point x="30" y="221"/>
      <point x="29" y="220" type="curve"/>
      <point x="27" y="215" type="line" smooth="yes"/>
      <point x="24" y="209"/>
      <point x="22" y="193"/>
      <point x="43" y="193" type="curve" smooth="yes"/>
      <point x="332" y="193" type="line"/>
      <point x="332" y="49" type="line" smooth="yes"/>
      <point x="332" y="37"/>
      <point x="328" y="26"/>
      <point x="297" y="24" type="curve" smooth="yes"/>
      <point x="286" y="24"/>
      <point x="277" y="24"/>
      <point x="265" y="24" type="curve" smooth="yes"/>
      <point x="244" y="24" type="line"/>
      <point x="237" y="25"/>
      <point x="235" y="19"/>
      <point x="235" y="11" type="curve" smooth="yes"/>
      <point x="235" y="2"/>
      <point x="236" y="-5"/>
      <point x="246" y="-5" type="curve" smooth="yes"/>
      <point x="250" y="-5" type="line"/>
      <point x="260" y="-3"/>
      <point x="270" y="-3"/>
      <point x="280" y="-2" type="curve" smooth="yes"/>
      <point x="337" y="0"/>
      <point x="339" y="1"/>
      <point x="382" y="1" type="curve" smooth="yes"/>
      <point x="425" y="1"/>
      <point x="459" y="-2"/>
      <point x="482" y="-2" type="curve"/>
      <point x="487" y="-3"/>
      <point x="494" y="-2"/>
      <point x="499" y="-4" type="curve"/>
      <point x="505" y="-4"/>
      <point x="510" y="-5"/>
      <point x="516" y="-5" type="curve"/>
      <point x="522" y="-3"/>
      <point x="524" y="2"/>
      <point x="524" y="10" type="curve" smooth="yes"/>
      <point x="524" y="18"/>
      <point x="523" y="26"/>
      <point x="515" y="26" type="curve" smooth="yes"/>
      <point x="507" y="26"/>
      <point x="495" y="25"/>
      <point x="487" y="24" type="curve"/>
      <point x="464" y="24" type="line" smooth="yes"/>
      <point x="441" y="24"/>
      <point x="427" y="34"/>
      <point x="427" y="49" type="curve" smooth="yes"/>
      <point x="427" y="84" type="line"/>
      <point x="426" y="193" type="line"/>
      <point x="521" y="193" type="line" smooth="yes"/>
      <point x="535" y="193"/>
      <point x="537" y="195"/>
      <point x="538" y="200" type="curve" smooth="yes"/>
      <point x="538" y="202"/>
      <point x="538" y="204"/>
      <point x="539" y="206" type="curve"/>
      <point x="542" y="218"/>
      <point x="546" y="237"/>
    </contour>
    <contour>
      <point x="333" y="240" type="line"/>
      <point x="83" y="240" type="line"/>
      <point x="333" y="595" type="line"/>
      <point x="334" y="494"/>
      <point x="333" y="399"/>
      <point x="333" y="312" type="curve" smooth="yes"/>
    </contour>
  </outline>
</glyph>
<glyph name="five" format="2">
  <advance width="573"/>
  <unicode hex="0035"/>
  <note>
cid00022
</note>
  <outline>
    <contour>
      <point x="527" y="248" type="curve" smooth="yes"/>
      <point x="527" y="305"/>
      <point x="502" y="367"/>
      <point x="462" y="404" type="curve" smooth="yes"/>
      <point x="432" y="432"/>
      <point x="386" y="449"/>
      <point x="345" y="450" type="curve" smooth="yes"/>
      <point x="324" y="451"/>
      <point x="292" y="451"/>
      <point x="257" y="442" type="curve" smooth="yes"/>
      <point x="228" y="435"/>
      <point x="192" y="417"/>
      <point x="153" y="390" type="curve"/>
      <point x="158" y="487"/>
      <point x="163" y="561"/>
      <point x="164" y="635" type="curve"/>
      <point x="237" y="635"/>
      <point x="293" y="634"/>
      <point x="340" y="634" type="curve" smooth="yes"/>
      <point x="361" y="634"/>
      <point x="389" y="635"/>
      <point x="409" y="634" type="curve" smooth="yes"/>
      <point x="416" y="633"/>
      <point x="423" y="632"/>
      <point x="430" y="632" type="curve" smooth="yes"/>
      <point x="452" y="632" type="line"/>
      <point x="470" y="629"/>
      <point x="479" y="634"/>
      <point x="484" y="642" type="curve" smooth="yes"/>
      <point x="495" y="661"/>
      <point x="508" y="690"/>
      <point x="514" y="705" type="curve" smooth="yes"/>
      <point x="516" y="711"/>
      <point x="516" y="714"/>
      <point x="515" y="715" type="curve" smooth="yes"/>
      <point x="514" y="716"/>
      <point x="512" y="717"/>
      <point x="509" y="718" type="curve"/>
      <point x="502" y="718"/>
      <point x="496" y="719"/>
      <point x="492" y="715" type="curve"/>
      <point x="485" y="711" type="line"/>
      <point x="479" y="708" type="line" smooth="yes"/>
      <point x="464" y="698"/>
      <point x="416" y="690"/>
      <point x="365" y="690" type="curve" smooth="yes"/>
      <point x="226" y="690" type="line" smooth="yes"/>
      <point x="193" y="690"/>
      <point x="163" y="691"/>
      <point x="107" y="698" type="curve"/>
      <point x="109" y="675"/>
      <point x="110" y="657"/>
      <point x="111" y="639" type="curve" smooth="yes"/>
      <point x="112" y="615"/>
      <point x="112" y="592"/>
      <point x="112" y="570" type="curve" smooth="yes"/>
      <point x="112" y="521"/>
      <point x="108" y="386"/>
      <point x="91" y="326" type="curve"/>
      <point x="90" y="324"/>
      <point x="89" y="321"/>
      <point x="89" y="318" type="curve"/>
      <point x="88" y="316"/>
      <point x="88" y="313"/>
      <point x="89" y="312" type="curve"/>
      <point x="91" y="308"/>
      <point x="96" y="305"/>
      <point x="104" y="302" type="curve" smooth="yes"/>
      <point x="117" y="297"/>
      <point x="128" y="294"/>
      <point x="143" y="290" type="curve"/>
      <point x="150" y="287"/>
      <point x="155" y="289"/>
      <point x="158" y="294" type="curve" smooth="yes"/>
      <point x="159" y="296"/>
      <point x="160" y="299"/>
      <point x="160" y="302" type="curve" smooth="yes"/>
      <point x="161" y="306"/>
      <point x="161" y="309"/>
      <point x="161" y="312" type="curve" smooth="yes"/>
      <point x="165" y="349"/>
      <point x="194" y="378"/>
      <point x="207" y="389" type="curve" smooth="yes"/>
      <point x="230" y="408"/>
      <point x="271" y="416"/>
      <point x="295" y="416" type="curve" smooth="yes"/>
      <point x="341" y="416"/>
      <point x="372" y="403"/>
      <point x="390" y="379" type="curve" smooth="yes"/>
      <point x="413" y="349"/>
      <point x="424" y="299"/>
      <point x="424" y="247" type="curve" smooth="yes"/>
      <point x="424" y="215"/>
      <point x="423" y="181"/>
      <point x="414" y="154" type="curve" smooth="yes"/>
      <point x="405" y="125"/>
      <point x="391" y="96"/>
      <point x="370" y="74" type="curve" smooth="yes"/>
      <point x="340" y="43"/>
      <point x="292" y="27"/>
      <point x="243" y="27" type="curve" smooth="yes"/>
      <point x="213" y="27"/>
      <point x="183" y="39"/>
      <point x="167" y="59" type="curve" smooth="yes"/>
      <point x="155" y="75"/>
      <point x="149" y="99"/>
      <point x="148" y="121" type="curve" smooth="yes"/>
      <point x="147" y="147"/>
      <point x="122" y="159"/>
      <point x="100" y="157" type="curve" smooth="yes"/>
      <point x="78" y="156"/>
      <point x="53" y="142"/>
      <point x="53" y="112" type="curve" smooth="yes"/>
      <point x="53" y="79"/>
      <point x="72" y="58"/>
      <point x="100" y="40" type="curve" smooth="yes"/>
      <point x="137" y="15"/>
      <point x="208" y="-2"/>
      <point x="256" y="-2" type="curve" smooth="yes"/>
      <point x="335" y="-2"/>
      <point x="410" y="30"/>
      <point x="455" y="70" type="curve" smooth="yes"/>
      <point x="498" y="108"/>
      <point x="527" y="183"/>
    </contour>
  </outline>
</glyph>
<glyph name="six" format="2">
  <advance width="573"/>
  <unicode hex="0036"/>
  <note>
cid00023
</note>
  <outline>
    <contour>
      <point x="529" y="231" type="curve" smooth="yes"/>
      <point x="529" y="287"/>
      <point x="514" y="333"/>
      <point x="486" y="367" type="curve" smooth="yes"/>
      <point x="449" y="413"/>
      <point x="389" y="439"/>
      <point x="319" y="439" type="curve" smooth="yes"/>
      <point x="271" y="439"/>
      <point x="219" y="423"/>
      <point x="166" y="388" type="curve"/>
      <point x="175" y="480"/>
      <point x="241" y="578"/>
      <point x="299" y="637" type="curve" smooth="yes"/>
      <point x="322" y="661"/>
      <point x="347" y="678"/>
      <point x="374" y="693" type="curve" smooth="yes"/>
      <point x="386" y="700"/>
      <point x="400" y="706"/>
      <point x="414" y="712" type="curve" smooth="yes"/>
      <point x="428" y="719"/>
      <point x="443" y="725"/>
      <point x="457" y="732" type="curve" smooth="yes"/>
      <point x="460" y="733"/>
      <point x="462" y="734"/>
      <point x="465" y="735" type="curve" smooth="yes"/>
      <point x="472" y="738" type="line"/>
      <point x="474" y="740"/>
      <point x="475" y="741"/>
      <point x="475" y="744" type="curve" smooth="yes"/>
      <point x="476" y="753"/>
      <point x="469" y="754"/>
      <point x="465" y="752" type="curve"/>
      <point x="229" y="692"/>
      <point x="129" y="544"/>
      <point x="85" y="425" type="curve" smooth="yes"/>
      <point x="69" y="383"/>
      <point x="57" y="330"/>
      <point x="57" y="287" type="curve" smooth="yes"/>
      <point x="57" y="251"/>
      <point x="58" y="216"/>
      <point x="66" y="181" type="curve" smooth="yes"/>
      <point x="90" y="72"/>
      <point x="184" y="-2"/>
      <point x="276" y="-2" type="curve" smooth="yes"/>
      <point x="418" y="-2"/>
      <point x="529" y="76"/>
    </contour>
    <contour>
      <point x="429" y="208" type="curve" smooth="yes"/>
      <point x="429" y="156"/>
      <point x="413" y="25"/>
      <point x="291" y="25" type="curve" smooth="yes"/>
      <point x="198" y="25"/>
      <point x="156" y="124"/>
      <point x="152" y="198" type="curve" smooth="yes"/>
      <point x="151" y="221"/>
      <point x="151" y="233"/>
      <point x="151" y="258" type="curve" smooth="yes"/>
      <point x="151" y="284"/>
      <point x="152" y="315"/>
      <point x="167" y="340" type="curve" smooth="yes"/>
      <point x="189" y="376"/>
      <point x="255" y="404"/>
      <point x="304" y="404" type="curve" smooth="yes"/>
      <point x="425" y="404"/>
      <point x="429" y="276"/>
    </contour>
  </outline>
</glyph>
<glyph name="seven" format="2">
  <advance width="573"/>
  <unicode hex="0037"/>
  <note>
cid00024
</note>
  <outline>
    <contour>
      <point x="528" y="667" type="curve"/>
      <point x="528" y="697" type="line"/>
      <point x="441" y="692"/>
      <point x="352" y="693"/>
      <point x="270" y="693" type="curve" smooth="yes"/>
      <point x="217" y="693"/>
      <point x="152" y="693"/>
      <point x="105" y="694" type="curve"/>
      <point x="99" y="695"/>
      <point x="87" y="694"/>
      <point x="83" y="692" type="curve"/>
      <point x="75" y="691"/>
      <point x="75" y="685"/>
      <point x="74" y="680" type="curve" smooth="yes"/>
      <point x="69" y="638"/>
      <point x="63" y="573"/>
      <point x="58" y="540" type="curve"/>
      <point x="64" y="537"/>
      <point x="72" y="535"/>
      <point x="78" y="538" type="curve"/>
      <point x="83" y="554"/>
      <point x="91" y="576"/>
      <point x="103" y="595" type="curve" smooth="yes"/>
      <point x="115" y="614"/>
      <point x="133" y="631"/>
      <point x="160" y="637" type="curve" smooth="yes"/>
      <point x="206" y="645"/>
      <point x="366" y="650"/>
      <point x="465" y="652" type="curve"/>
      <point x="446" y="627"/>
      <point x="422" y="597"/>
      <point x="402" y="564" type="curve" smooth="yes"/>
      <point x="374" y="519"/>
      <point x="345" y="470"/>
      <point x="329" y="433" type="curve" smooth="yes"/>
      <point x="290" y="345"/>
      <point x="239" y="226"/>
      <point x="217" y="109" type="curve" smooth="yes"/>
      <point x="208" y="64"/>
      <point x="206" y="34"/>
      <point x="212" y="15" type="curve" smooth="yes"/>
      <point x="219" y="-5"/>
      <point x="224" y="-18"/>
      <point x="251" y="-18" type="curve" smooth="yes"/>
      <point x="296" y="-18"/>
      <point x="311" y="-4"/>
      <point x="316" y="62" type="curve" smooth="yes"/>
      <point x="325" y="190"/>
      <point x="354" y="325"/>
      <point x="395" y="433" type="curve" smooth="yes"/>
      <point x="426" y="513"/>
      <point x="473" y="610"/>
    </contour>
  </outline>
</glyph>
<glyph name="eight" format="2">
  <advance width="573"/>
  <unicode hex="0038"/>
  <note>
cid00025
</note>
  <outline>
    <contour>
      <point x="535" y="220" type="curve" smooth="yes"/>
      <point x="535" y="283"/>
      <point x="485" y="339"/>
      <point x="421" y="372" type="curve" smooth="yes"/>
      <point x="400" y="383"/>
      <point x="384" y="390"/>
      <point x="358" y="398" type="curve"/>
      <point x="443" y="435"/>
      <point x="494" y="484"/>
      <point x="494" y="567" type="curve" smooth="yes"/>
      <point x="494" y="655"/>
      <point x="407" y="712"/>
      <point x="305" y="712" type="curve" smooth="yes"/>
      <point x="187" y="712"/>
      <point x="79" y="655"/>
      <point x="79" y="531" type="curve" smooth="yes"/>
      <point x="79" y="478"/>
      <point x="122" y="420"/>
      <point x="215" y="383" type="curve"/>
      <point x="168" y="358"/>
      <point x="131" y="334"/>
      <point x="111" y="317" type="curve" smooth="yes"/>
      <point x="69" y="283"/>
      <point x="47" y="228"/>
      <point x="47" y="183" type="curve" smooth="yes"/>
      <point x="47" y="128"/>
      <point x="69" y="83"/>
      <point x="105" y="52" type="curve" smooth="yes"/>
      <point x="147" y="16"/>
      <point x="208" y="-4"/>
      <point x="274" y="-4" type="curve" smooth="yes"/>
      <point x="337" y="-4"/>
      <point x="405" y="12"/>
      <point x="455" y="51" type="curve" smooth="yes"/>
      <point x="507" y="91"/>
      <point x="535" y="149"/>
    </contour>
    <contour>
      <point x="420" y="558" type="curve" smooth="yes"/>
      <point x="420" y="486"/>
      <point x="368" y="436"/>
      <point x="311" y="410" type="curve"/>
      <point x="233" y="439"/>
      <point x="159" y="473"/>
      <point x="159" y="563" type="curve" smooth="yes"/>
      <point x="159" y="639"/>
      <point x="204" y="687"/>
      <point x="284" y="687" type="curve" smooth="yes"/>
      <point x="359" y="687"/>
      <point x="420" y="652"/>
    </contour>
    <contour>
      <point x="439" y="187" type="curve" smooth="yes"/>
      <point x="439" y="74"/>
      <point x="355" y="26"/>
      <point x="284" y="26" type="curve" smooth="yes"/>
      <point x="199" y="26"/>
      <point x="126" y="59"/>
      <point x="126" y="187" type="curve" smooth="yes"/>
      <point x="126" y="272"/>
      <point x="173" y="330"/>
      <point x="240" y="370" type="curve"/>
      <point x="279" y="356"/>
      <point x="314" y="342"/>
      <point x="346" y="327" type="curve" smooth="yes"/>
      <point x="397" y="302"/>
      <point x="439" y="258"/>
    </contour>
  </outline>
</glyph>
<glyph name="nine" format="2">
  <advance width="573"/>
  <unicode hex="0039"/>
  <note>
cid00026
</note>
  <outline>
    <contour>
      <point x="524" y="414" type="curve" smooth="yes"/>
      <point x="524" y="450"/>
      <point x="523" y="485"/>
      <point x="515" y="520" type="curve" smooth="yes"/>
      <point x="491" y="629"/>
      <point x="397" y="704"/>
      <point x="305" y="704" type="curve" smooth="yes"/>
      <point x="163" y="704"/>
      <point x="54" y="626"/>
      <point x="54" y="470" type="curve" smooth="yes"/>
      <point x="54" y="340"/>
      <point x="140" y="262"/>
      <point x="262" y="262" type="curve" smooth="yes"/>
      <point x="310" y="262"/>
      <point x="362" y="278"/>
      <point x="415" y="313" type="curve"/>
      <point x="406" y="221"/>
      <point x="340" y="123"/>
      <point x="282" y="64" type="curve" smooth="yes"/>
      <point x="259" y="41"/>
      <point x="234" y="24"/>
      <point x="207" y="9" type="curve" smooth="yes"/>
      <point x="182" y="-5"/>
      <point x="152" y="-18"/>
      <point x="124" y="-31" type="curve" smooth="yes"/>
      <point x="121" y="-32"/>
      <point x="119" y="-33"/>
      <point x="116" y="-34" type="curve" smooth="yes"/>
      <point x="109" y="-37" type="line"/>
      <point x="107" y="-39"/>
      <point x="106" y="-40"/>
      <point x="106" y="-43" type="curve" smooth="yes"/>
      <point x="105" y="-52"/>
      <point x="112" y="-53"/>
      <point x="116" y="-51" type="curve"/>
      <point x="352" y="9"/>
      <point x="452" y="157"/>
      <point x="496" y="276" type="curve" smooth="yes"/>
      <point x="512" y="318"/>
      <point x="524" y="371"/>
    </contour>
    <contour>
      <point x="430" y="443" type="curve" smooth="yes"/>
      <point x="430" y="417"/>
      <point x="429" y="386"/>
      <point x="414" y="361" type="curve" smooth="yes"/>
      <point x="392" y="325"/>
      <point x="326" y="297"/>
      <point x="277" y="297" type="curve" smooth="yes"/>
      <point x="156" y="297"/>
      <point x="152" y="425"/>
      <point x="152" y="493" type="curve" smooth="yes"/>
      <point x="152" y="545"/>
      <point x="168" y="677"/>
      <point x="290" y="677" type="curve" smooth="yes"/>
      <point x="383" y="677"/>
      <point x="425" y="577"/>
      <point x="429" y="503" type="curve" smooth="yes"/>
      <point x="430" y="480"/>
      <point x="430" y="468"/>
    </contour>
  </outline>
</glyph>
<glyph name="colon" format="2">
  <advance width="384"/>
  <unicode hex="003A"/>
  <note>
cid00027
</note>
  <outline>
    <contour>
      <point x="262" y="412" type="curve" smooth="yes"/>
      <point x="262" y="445"/>
      <point x="233" y="475"/>
      <point x="195" y="475" type="curve" smooth="yes"/>
      <point x="157" y="475"/>
      <point x="128" y="445"/>
      <point x="128" y="412" type="curve" smooth="yes"/>
      <point x="128" y="378"/>
      <point x="157" y="349"/>
      <point x="195" y="349" type="curve" smooth="yes"/>
      <point x="233" y="349"/>
      <point x="262" y="378"/>
    </contour>
    <contour>
      <point x="262" y="86" type="curve" smooth="yes"/>
      <point x="262" y="120"/>
      <point x="233" y="150"/>
      <point x="195" y="150" type="curve" smooth="yes"/>
      <point x="157" y="150"/>
      <point x="128" y="120"/>
      <point x="128" y="86" type="curve" smooth="yes"/>
      <point x="128" y="53"/>
      <point x="157" y="24"/>
      <point x="195" y="24" type="curve" smooth="yes"/>
      <point x="233" y="24"/>
      <point x="262" y="53"/>
    </contour>
  </outline>
</glyph>
<glyph name="semicolon" format="2">
  <advance width="384"/>
  <unicode hex="003B"/>
  <note>
cid00028
</note>
  <outline>
    <contour>
      <point x="262" y="410" type="curve" smooth="yes"/>
      <point x="262" y="443"/>
      <point x="233" y="472"/>
      <point x="195" y="472" type="curve" smooth="yes"/>
      <point x="157" y="472"/>
      <point x="128" y="443"/>
      <point x="128" y="410" type="curve" smooth="yes"/>
      <point x="128" y="376"/>
      <point x="157" y="346"/>
      <point x="195" y="346" type="curve" smooth="yes"/>
      <point x="233" y="346"/>
      <point x="262" y="376"/>
    </contour>
    <contour>
      <point x="263" y="63" type="curve" smooth="yes"/>
      <point x="263" y="108"/>
      <point x="242" y="143"/>
      <point x="194" y="143" type="curve" smooth="yes"/>
      <point x="153" y="143"/>
      <point x="130" y="116"/>
      <point x="130" y="82" type="curve" smooth="yes"/>
      <point x="130" y="67"/>
      <point x="141" y="40"/>
      <point x="162" y="36" type="curve" smooth="yes"/>
      <point x="169" y="35"/>
      <point x="172" y="36"/>
      <point x="178" y="39" type="curve" smooth="yes"/>
      <point x="183" y="41"/>
      <point x="186" y="41"/>
      <point x="189" y="41" type="curve"/>
      <point x="191" y="42"/>
      <point x="193" y="42"/>
      <point x="194" y="42" type="curve" smooth="yes"/>
      <point x="196" y="42"/>
      <point x="198" y="41"/>
      <point x="201" y="41" type="curve" smooth="yes"/>
      <point x="211" y="41"/>
      <point x="215" y="32"/>
      <point x="215" y="21" type="curve" smooth="yes"/>
      <point x="215" y="-8"/>
      <point x="192" y="-72"/>
      <point x="166" y="-106" type="curve"/>
      <point x="189" y="-113" type="line"/>
      <point x="228" y="-67"/>
      <point x="263" y="9"/>
    </contour>
  </outline>
</glyph>
<glyph name="less" format="2">
  <advance width="690"/>
  <unicode hex="003C"/>
  <note>
cid00029
</note>
  <outline>
    <contour>
      <point x="76" y="329" type="line"/>
      <point x="627" y="44" type="line"/>
      <point x="627" y="90" type="line"/>
      <point x="138" y="329" type="line"/>
      <point x="627" y="567" type="line"/>
      <point x="627" y="612" type="line"/>
    </contour>
  </outline>
</glyph>
<glyph name="equal" format="2">
  <advance width="690"/>
  <unicode hex="003D"/>
  <note>
cid00030
</note>
  <outline>
    <contour>
      <point x="74" y="365" type="line"/>
      <point x="626" y="365" type="line"/>
      <point x="626" y="406" type="line"/>
      <point x="74" y="406" type="line"/>
    </contour>
    <contour>
      <point x="74" y="203" type="line"/>
      <point x="626" y="203" type="line"/>
      <point x="626" y="244" type="line"/>
      <point x="74" y="244" type="line"/>
    </contour>
  </outline>
</glyph>
<glyph name="greater" format="2">
  <advance width="689"/>
  <unicode hex="003E"/>
  <note>
cid00031
</note>
  <outline>
    <contour>
      <point x="73" y="44" type="line"/>
      <point x="624" y="329" type="line"/>
      <point x="73" y="612" type="line"/>
      <point x="73" y="567" type="line"/>
      <point x="562" y="329" type="line"/>
      <point x="73" y="90" type="line"/>
    </contour>
  </outline>
</glyph>
<glyph name="question" format="2">
  <advance width="552"/>
  <unicode hex="003F"/>
  <note>
cid00032
</note>
  <outline>
    <contour>
      <point x="490" y="559" type="curve" smooth="yes"/>
      <point x="490" y="660"/>
      <point x="401" y="719"/>
      <point x="287" y="719" type="curve" smooth="yes"/>
      <point x="129" y="719"/>
      <point x="70" y="598"/>
      <point x="70" y="544" type="curve" smooth="yes"/>
      <point x="70" y="522"/>
      <point x="74" y="492"/>
      <point x="110" y="492" type="curve" smooth="yes"/>
      <point x="126" y="492"/>
      <point x="164" y="497"/>
      <point x="164" y="539" type="curve" smooth="yes"/>
      <point x="164" y="549"/>
      <point x="161" y="560"/>
      <point x="158" y="570" type="curve" smooth="yes"/>
      <point x="156" y="576"/>
      <point x="154" y="584"/>
      <point x="154" y="592" type="curve" smooth="yes"/>
      <point x="154" y="673"/>
      <point x="221" y="697"/>
      <point x="283" y="697" type="curve" smooth="yes"/>
      <point x="356" y="697"/>
      <point x="392" y="656"/>
      <point x="392" y="580" type="curve" smooth="yes"/>
      <point x="392" y="506"/>
      <point x="361" y="460"/>
      <point x="323" y="423" type="curve" smooth="yes"/>
      <point x="272" y="373"/>
      <point x="253" y="336"/>
      <point x="253" y="262" type="curve" smooth="yes"/>
      <point x="254" y="195" type="line"/>
      <point x="291" y="195" type="line"/>
      <point x="291" y="248" type="line" smooth="yes"/>
      <point x="291" y="294"/>
      <point x="301" y="330"/>
      <point x="337" y="367" type="curve" smooth="yes"/>
      <point x="350" y="380"/>
      <point x="365" y="391"/>
      <point x="381" y="402" type="curve" smooth="yes"/>
      <point x="396" y="412"/>
      <point x="412" y="422"/>
      <point x="426" y="434" type="curve" smooth="yes"/>
      <point x="465" y="466"/>
      <point x="490" y="517"/>
    </contour>
    <contour>
      <point x="350" y="59" type="curve" smooth="yes"/>
      <point x="350" y="96"/>
      <point x="318" y="127"/>
      <point x="279" y="127" type="curve" smooth="yes"/>
      <point x="240" y="127"/>
      <point x="208" y="96"/>
      <point x="208" y="59" type="curve" smooth="yes"/>
      <point x="208" y="22"/>
      <point x="240" y="-10"/>
      <point x="279" y="-10" type="curve" smooth="yes"/>
      <point x="318" y="-10"/>
      <point x="350" y="22"/>
    </contour>
  </outline>
</glyph>
<glyph name="at" format="2">
  <advance width="867"/>
  <unicode hex="0040"/>
  <note>
cid00033
</note>
  <outline>
    <contour>
      <point x="800" y="369" type="curve" smooth="yes"/>
      <point x="800" y="462"/>
      <point x="775" y="554"/>
      <point x="709" y="612" type="curve" smooth="yes"/>
      <point x="651" y="663"/>
      <point x="569" y="688"/>
      <point x="479" y="688" type="curve" smooth="yes"/>
      <point x="257" y="688"/>
      <point x="80" y="509"/>
      <point x="80" y="288" type="curve" smooth="yes"/>
      <point x="80" y="246"/>
      <point x="90" y="199"/>
      <point x="106" y="159" type="curve" smooth="yes"/>
      <point x="166" y="10"/>
      <point x="295" y="-60"/>
      <point x="450" y="-60" type="curve" smooth="yes"/>
      <point x="527" y="-60"/>
      <point x="642" y="-19"/>
      <point x="703" y="29" type="curve" smooth="yes"/>
      <point x="711" y="36" type="line" smooth="yes"/>
      <point x="717" y="41"/>
      <point x="728" y="51"/>
      <point x="728" y="60" type="curve" smooth="yes"/>
      <point x="728" y="63"/>
      <point x="723" y="64"/>
      <point x="720" y="64" type="curve"/>
      <point x="703" y="53" type="line" smooth="yes"/>
      <point x="698" y="49"/>
      <point x="693" y="46"/>
      <point x="687" y="43" type="curve" smooth="yes"/>
      <point x="605" y="0"/>
      <point x="542" y="-24"/>
      <point x="451" y="-24" type="curve" smooth="yes"/>
      <point x="276" y="-24"/>
      <point x="165" y="125"/>
      <point x="165" y="294" type="curve" smooth="yes"/>
      <point x="165" y="483"/>
      <point x="273" y="660"/>
      <point x="478" y="660" type="curve" smooth="yes"/>
      <point x="558" y="660"/>
      <point x="632" y="634"/>
      <point x="684" y="585" type="curve" smooth="yes"/>
      <point x="699" y="571"/>
      <point x="713" y="556"/>
      <point x="723" y="539" type="curve" smooth="yes"/>
      <point x="773" y="456"/>
      <point x="766" y="318"/>
      <point x="723" y="234" type="curve" smooth="yes"/>
      <point x="702" y="192"/>
      <point x="667" y="162"/>
      <point x="616" y="162" type="curve" smooth="yes"/>
      <point x="588" y="162"/>
      <point x="573" y="197"/>
      <point x="573" y="218" type="curve" smooth="yes"/>
      <point x="573" y="265"/>
      <point x="627" y="441"/>
      <point x="647" y="497" type="curve"/>
      <point x="637" y="500"/>
      <point x="628" y="502"/>
      <point x="619" y="503" type="curve" smooth="yes"/>
      <point x="610" y="505"/>
      <point x="601" y="506"/>
      <point x="591" y="508" type="curve"/>
      <point x="583" y="495"/>
      <point x="576" y="481"/>
      <point x="567" y="464" type="curve"/>
      <point x="546" y="494"/>
      <point x="513" y="516"/>
      <point x="479" y="516" type="curve" smooth="yes"/>
      <point x="426" y="516"/>
      <point x="385" y="492"/>
      <point x="353" y="452" type="curve" smooth="yes"/>
      <point x="319" y="410"/>
      <point x="291" y="336"/>
      <point x="291" y="281" type="curve" smooth="yes"/>
      <point x="291" y="246"/>
      <point x="295" y="209"/>
      <point x="313" y="179" type="curve" smooth="yes"/>
      <point x="331" y="150"/>
      <point x="360" y="124"/>
      <point x="395" y="124" type="curve" smooth="yes"/>
      <point x="450" y="124"/>
      <point x="485" y="147"/>
      <point x="518" y="199" type="curve"/>
      <point x="530" y="150"/>
      <point x="558" y="123"/>
      <point x="604" y="123" type="curve" smooth="yes"/>
      <point x="674" y="123"/>
      <point x="721" y="155"/>
      <point x="751" y="203" type="curve" smooth="yes"/>
      <point x="780" y="249"/>
      <point x="800" y="308"/>
    </contour>
    <contour>
      <point x="547" y="426" type="curve" smooth="yes"/>
      <point x="547" y="382"/>
      <point x="514" y="245"/>
      <point x="492" y="208" type="curve" smooth="yes"/>
      <point x="478" y="185"/>
      <point x="462" y="173"/>
      <point x="434" y="173" type="curve" smooth="yes"/>
      <point x="369" y="173"/>
      <point x="360" y="230"/>
      <point x="360" y="280" type="curve" smooth="yes"/>
      <point x="360" y="354"/>
      <point x="392" y="485"/>
      <point x="488" y="485" type="curve" smooth="yes"/>
      <point x="525" y="485"/>
      <point x="547" y="463"/>
    </contour>
  </outline>
</glyph>
<glyph name="A" format="2">
  <advance width="762"/>
  <unicode hex="0041"/>
  <note>
cid00034
</note>
  <outline>
    <contour>
      <point x="751" y="9" type="curve" smooth="yes"/>
      <point x="751" y="13" type="line"/>
      <point x="752" y="14"/>
      <point x="751" y="16"/>
      <point x="751" y="17" type="curve" smooth="yes"/>
      <point x="751" y="19"/>
      <point x="751" y="21"/>
      <point x="750" y="23" type="curve" smooth="yes"/>
      <point x="749" y="26"/>
      <point x="747" y="28"/>
      <point x="743" y="27" type="curve"/>
      <point x="732" y="27"/>
      <point x="719" y="26"/>
      <point x="708" y="26" type="curve" smooth="yes"/>
      <point x="694" y="26"/>
      <point x="677" y="33"/>
      <point x="672" y="46" type="curve" smooth="yes"/>
      <point x="421" y="720" type="line"/>
      <point x="411" y="719"/>
      <point x="398" y="717"/>
      <point x="385" y="717" type="curve" smooth="yes"/>
      <point x="369" y="715"/>
      <point x="355" y="713"/>
      <point x="348" y="711" type="curve"/>
      <point x="346" y="711"/>
      <point x="344" y="711"/>
      <point x="342" y="710" type="curve" smooth="yes"/>
      <point x="341" y="709"/>
      <point x="341" y="708"/>
      <point x="340" y="705" type="curve" smooth="yes"/>
      <point x="314" y="632"/>
      <point x="289" y="557"/>
      <point x="263" y="483" type="curve" smooth="yes"/>
      <point x="215" y="349"/>
      <point x="166" y="215"/>
      <point x="114" y="81" type="curve" smooth="yes"/>
      <point x="110" y="70"/>
      <point x="106" y="59"/>
      <point x="101" y="49" type="curve" smooth="yes"/>
      <point x="92" y="31"/>
      <point x="79" y="21"/>
      <point x="59" y="21" type="curve" smooth="yes"/>
      <point x="30" y="21" type="line" smooth="yes"/>
      <point x="25" y="21"/>
      <point x="20" y="18"/>
      <point x="20" y="11" type="curve" smooth="yes"/>
      <point x="20" y="6" type="line" smooth="yes"/>
      <point x="20" y="4"/>
      <point x="20" y="3"/>
      <point x="21" y="1" type="curve" smooth="yes"/>
      <point x="22" y="-1"/>
      <point x="24" y="-2"/>
      <point x="29" y="-2" type="curve" smooth="yes"/>
      <point x="58" y="-2"/>
      <point x="83" y="0"/>
      <point x="112" y="0" type="curve" smooth="yes"/>
      <point x="151" y="0"/>
      <point x="189" y="-1"/>
      <point x="227" y="-1" type="curve" smooth="yes"/>
      <point x="232" y="-1"/>
      <point x="236" y="-1"/>
      <point x="238" y="4" type="curve"/>
      <point x="238" y="7"/>
      <point x="238" y="12"/>
      <point x="237" y="16" type="curve"/>
      <point x="236" y="17"/>
      <point x="236" y="18"/>
      <point x="236" y="19" type="curve"/>
      <point x="235" y="20"/>
      <point x="234" y="22"/>
      <point x="231" y="22" type="curve" smooth="yes"/>
      <point x="229" y="22"/>
      <point x="227" y="22"/>
      <point x="225" y="21" type="curve"/>
      <point x="217" y="21" type="line"/>
      <point x="212" y="20"/>
      <point x="206" y="20"/>
      <point x="200" y="20" type="curve" smooth="yes"/>
      <point x="199" y="20"/>
      <point x="198" y="19"/>
      <point x="197" y="19" type="curve" smooth="yes"/>
      <point x="187" y="19" type="line"/>
      <point x="181" y="20"/>
      <point x="175" y="20"/>
      <point x="169" y="21" type="curve" smooth="yes"/>
      <point x="158" y="22"/>
      <point x="148" y="28"/>
      <point x="148" y="39" type="curve" smooth="yes"/>
      <point x="148" y="46"/>
      <point x="164" y="92"/>
      <point x="181" y="140" type="curve" smooth="yes"/>
      <point x="222" y="252" type="line"/>
      <point x="487" y="252" type="line"/>
      <point x="508" y="197"/>
      <point x="537" y="111"/>
      <point x="558" y="53" type="curve" smooth="yes"/>
      <point x="561" y="45"/>
      <point x="561" y="34"/>
      <point x="551" y="30" type="curve" smooth="yes"/>
      <point x="544" y="28"/>
      <point x="538" y="26"/>
      <point x="529" y="26" type="curve" smooth="yes"/>
      <point x="481" y="26" type="line" smooth="yes"/>
      <point x="476" y="26"/>
      <point x="473" y="21"/>
      <point x="473" y="16" type="curve" smooth="yes"/>
      <point x="473" y="5" type="line"/>
      <point x="474" y="1"/>
      <point x="476" y="-2"/>
      <point x="480" y="-2" type="curve" smooth="yes"/>
      <point x="489" y="-2"/>
      <point x="497" y="-1"/>
      <point x="505" y="-1" type="curve" smooth="yes"/>
      <point x="531" y="2" type="line" smooth="yes"/>
      <point x="558" y="4"/>
      <point x="586" y="4"/>
      <point x="613" y="4" type="curve" smooth="yes"/>
      <point x="659" y="4"/>
      <point x="696" y="3"/>
      <point x="742" y="0" type="curve"/>
      <point x="746" y="1"/>
      <point x="751" y="4"/>
    </contour>
    <contour>
      <point x="352" y="635" type="curve"/>
      <point x="477" y="285" type="line"/>
      <point x="230" y="285" type="line"/>
      <point x="270" y="399"/>
      <point x="308" y="512"/>
    </contour>
  </outline>
</glyph>
<glyph name="B" format="2">
  <advance width="680"/>
  <unicode hex="0042"/>
  <note>
cid00035
</note>
  <outline>
    <contour>
      <point x="648" y="210" type="curve" smooth="yes"/>
      <point x="648" y="317"/>
      <point x="552" y="366"/>
      <point x="459" y="382" type="curve"/>
      <point x="459" y="387" type="line"/>
      <point x="527" y="414"/>
      <point x="599" y="469"/>
      <point x="599" y="548" type="curve" smooth="yes"/>
      <point x="599" y="675"/>
      <point x="494" y="709"/>
      <point x="389" y="709" type="curve" smooth="yes"/>
      <point x="379" y="709"/>
      <point x="370" y="708"/>
      <point x="361" y="707" type="curve" smooth="yes"/>
      <point x="285" y="701"/>
      <point x="210" y="697"/>
      <point x="134" y="697" type="curve" smooth="yes"/>
      <point x="105" y="697"/>
      <point x="77" y="700"/>
      <point x="48" y="700" type="curve" smooth="yes"/>
      <point x="42" y="700"/>
      <point x="40" y="693"/>
      <point x="40" y="687" type="curve" smooth="yes"/>
      <point x="40" y="680"/>
      <point x="42" y="670"/>
      <point x="50" y="670" type="curve" smooth="yes"/>
      <point x="59" y="670"/>
      <point x="69" y="671"/>
      <point x="79" y="671" type="curve" smooth="yes"/>
      <point x="89" y="671"/>
      <point x="100" y="670"/>
      <point x="109" y="668" type="curve" smooth="yes"/>
      <point x="125" y="663"/>
      <point x="133" y="654"/>
      <point x="137" y="643" type="curve" smooth="yes"/>
      <point x="141" y="632"/>
      <point x="141" y="619"/>
      <point x="141" y="606" type="curve" smooth="yes"/>
      <point x="141" y="534"/>
      <point x="142" y="462"/>
      <point x="142" y="390" type="curve" smooth="yes"/>
      <point x="142" y="292" type="line"/>
      <point x="141" y="152" type="line" smooth="yes"/>
      <point x="141" y="126"/>
      <point x="143" y="100"/>
      <point x="141" y="74" type="curve" smooth="yes"/>
      <point x="140" y="51"/>
      <point x="134" y="30"/>
      <point x="107" y="26" type="curve" smooth="yes"/>
      <point x="88" y="24"/>
      <point x="68" y="24"/>
      <point x="50" y="24" type="curve" smooth="yes"/>
      <point x="45" y="24"/>
      <point x="41" y="22"/>
      <point x="41" y="13" type="curve" smooth="yes"/>
      <point x="41" y="6" type="line" smooth="yes"/>
      <point x="41" y="4"/>
      <point x="42" y="1"/>
      <point x="42" y="0" type="curve"/>
      <point x="44" y="-4"/>
      <point x="46" y="-6"/>
      <point x="51" y="-6" type="curve" smooth="yes"/>
      <point x="60" y="-6"/>
      <point x="68" y="-5"/>
      <point x="77" y="-4" type="curve" smooth="yes"/>
      <point x="103" y="-2"/>
      <point x="128" y="2"/>
      <point x="155" y="2" type="curve" smooth="yes"/>
      <point x="217" y="2"/>
      <point x="278" y="0"/>
      <point x="340" y="-3" type="curve" smooth="yes"/>
      <point x="349" y="-4"/>
      <point x="358" y="-5"/>
      <point x="368" y="-5" type="curve" smooth="yes"/>
      <point x="417" y="-5"/>
      <point x="473" y="-1"/>
      <point x="520" y="18" type="curve" smooth="yes"/>
      <point x="604" y="51"/>
      <point x="648" y="119"/>
    </contour>
    <contour>
      <point x="495" y="537" type="curve" smooth="yes"/>
      <point x="495" y="495"/>
      <point x="477" y="450"/>
      <point x="447" y="420" type="curve" smooth="yes"/>
      <point x="425" y="398"/>
      <point x="387" y="389"/>
      <point x="348" y="385" type="curve" smooth="yes"/>
      <point x="329" y="384"/>
      <point x="309" y="384"/>
      <point x="290" y="384" type="curve" smooth="yes"/>
      <point x="272" y="384"/>
      <point x="255" y="384"/>
      <point x="237" y="385" type="curve"/>
      <point x="237" y="674" type="line"/>
      <point x="274" y="677"/>
      <point x="308" y="677"/>
      <point x="342" y="677" type="curve" smooth="yes"/>
      <point x="438" y="677"/>
      <point x="495" y="637"/>
    </contour>
    <contour>
      <point x="544" y="195" type="curve" smooth="yes"/>
      <point x="544" y="82"/>
      <point x="474" y="28"/>
      <point x="366" y="21" type="curve"/>
      <point x="315" y="21" type="line" smooth="yes"/>
      <point x="311" y="21"/>
      <point x="307" y="20"/>
      <point x="303" y="20" type="curve" smooth="yes"/>
      <point x="299" y="20"/>
      <point x="295" y="20"/>
      <point x="291" y="21" type="curve"/>
      <point x="282" y="21"/>
      <point x="273" y="21"/>
      <point x="265" y="22" type="curve" smooth="yes"/>
      <point x="249" y="26"/>
      <point x="237" y="36"/>
      <point x="237" y="56" type="curve" smooth="yes"/>
      <point x="237" y="358" type="line"/>
      <point x="278" y="358"/>
      <point x="314" y="360"/>
      <point x="351" y="360" type="curve" smooth="yes"/>
      <point x="399" y="359" type="line" smooth="yes"/>
      <point x="511" y="356"/>
      <point x="544" y="296"/>
    </contour>
  </outline>
</glyph>
<glyph name="C" format="2">
  <advance width="715"/>
  <unicode hex="0043"/>
  <note>
cid00036
</note>
  <outline>
    <contour>
      <point x="695" y="178" type="curve" smooth="yes"/>
      <point x="695" y="186"/>
      <point x="689" y="190"/>
      <point x="684" y="190" type="curve" smooth="yes"/>
      <point x="680" y="190"/>
      <point x="677" y="188"/>
      <point x="673" y="184" type="curve"/>
      <point x="672" y="184"/>
      <point x="671" y="183"/>
      <point x="671" y="182" type="curve"/>
      <point x="670" y="180"/>
      <point x="669" y="179"/>
      <point x="668" y="178" type="curve" smooth="yes"/>
      <point x="667" y="176"/>
      <point x="666" y="173"/>
      <point x="664" y="171" type="curve"/>
      <point x="658" y="160"/>
      <point x="651" y="151"/>
      <point x="643" y="141" type="curve" smooth="yes"/>
      <point x="617" y="109"/>
      <point x="582" y="80"/>
      <point x="542" y="64" type="curve" smooth="yes"/>
      <point x="508" y="51"/>
      <point x="457" y="38"/>
      <point x="419" y="38" type="curve" smooth="yes"/>
      <point x="240" y="38"/>
      <point x="173" y="194"/>
      <point x="173" y="348" type="curve" smooth="yes"/>
      <point x="173" y="454"/>
      <point x="203" y="572"/>
      <point x="292" y="639" type="curve" smooth="yes"/>
      <point x="322" y="661"/>
      <point x="365" y="678"/>
      <point x="404" y="678" type="curve" smooth="yes"/>
      <point x="437" y="678"/>
      <point x="502" y="652"/>
      <point x="526" y="632" type="curve" smooth="yes"/>
      <point x="561" y="602"/>
      <point x="586" y="551"/>
      <point x="597" y="508" type="curve" smooth="yes"/>
      <point x="601" y="494"/>
      <point x="603" y="480"/>
      <point x="608" y="467" type="curve" smooth="yes"/>
      <point x="612" y="458"/>
      <point x="614" y="457"/>
      <point x="623" y="457" type="curve" smooth="yes"/>
      <point x="644" y="457"/>
      <point x="653" y="467"/>
      <point x="653" y="491" type="curve" smooth="yes"/>
      <point x="653" y="517"/>
      <point x="644" y="544"/>
      <point x="641" y="570" type="curve" smooth="yes"/>
      <point x="637" y="598"/>
      <point x="634" y="626"/>
      <point x="633" y="654" type="curve"/>
      <point x="603" y="657"/>
      <point x="574" y="661"/>
      <point x="548" y="670" type="curve" smooth="yes"/>
      <point x="522" y="680"/>
      <point x="499" y="688"/>
      <point x="476" y="695" type="curve" smooth="yes"/>
      <point x="452" y="702"/>
      <point x="429" y="708"/>
      <point x="402" y="708" type="curve" smooth="yes"/>
      <point x="195" y="708"/>
      <point x="68" y="550"/>
      <point x="68" y="344" type="curve" smooth="yes"/>
      <point x="68" y="136"/>
      <point x="198" y="-2"/>
      <point x="402" y="-2" type="curve" smooth="yes"/>
      <point x="471" y="-2"/>
      <point x="537" y="12"/>
      <point x="596" y="51" type="curve" smooth="yes"/>
      <point x="633" y="75"/>
      <point x="670" y="115"/>
      <point x="690" y="156" type="curve" smooth="yes"/>
      <point x="693" y="163"/>
      <point x="695" y="170"/>
    </contour>
  </outline>
</glyph>
<glyph name="D" format="2">
  <advance width="809"/>
  <unicode hex="0044"/>
  <note>
cid00037
</note>
  <outline>
    <contour>
      <point x="764" y="375" type="curve" smooth="yes"/>
      <point x="764" y="584"/>
      <point x="635" y="706"/>
      <point x="432" y="706" type="curve" smooth="yes"/>
      <point x="336" y="706"/>
      <point x="240" y="697"/>
      <point x="144" y="697" type="curve" smooth="yes"/>
      <point x="114" y="697"/>
      <point x="84" y="700"/>
      <point x="55" y="700" type="curve" smooth="yes"/>
      <point x="47" y="700"/>
      <point x="40" y="697"/>
      <point x="40" y="684" type="curve" smooth="yes"/>
      <point x="40" y="674"/>
      <point x="49" y="669"/>
      <point x="57" y="669" type="curve" smooth="yes"/>
      <point x="66" y="669"/>
      <point x="75" y="670"/>
      <point x="84" y="670" type="curve" smooth="yes"/>
      <point x="94" y="670"/>
      <point x="103" y="669"/>
      <point x="111" y="668" type="curve" smooth="yes"/>
      <point x="127" y="664"/>
      <point x="138" y="652"/>
      <point x="140" y="626" type="curve" smooth="yes"/>
      <point x="141" y="602"/>
      <point x="140" y="577"/>
      <point x="140" y="553" type="curve" smooth="yes"/>
      <point x="140" y="499"/>
      <point x="141" y="446"/>
      <point x="141" y="392" type="curve" smooth="yes"/>
      <point x="141" y="303" type="line" smooth="yes"/>
      <point x="141" y="232"/>
      <point x="140" y="161"/>
      <point x="140" y="91" type="curve" smooth="yes"/>
      <point x="140" y="69"/>
      <point x="135" y="42"/>
      <point x="112" y="31" type="curve" smooth="yes"/>
      <point x="104" y="27"/>
      <point x="90" y="25"/>
      <point x="76" y="22" type="curve"/>
      <point x="69" y="22"/>
      <point x="63" y="18"/>
      <point x="63" y="12" type="curve" smooth="yes"/>
      <point x="63" y="6"/>
      <point x="64" y="-2"/>
      <point x="71" y="-2" type="curve" smooth="yes"/>
      <point x="76" y="-2"/>
      <point x="85" y="-1"/>
      <point x="90" y="0" type="curve"/>
      <point x="128" y="2"/>
      <point x="167" y="3"/>
      <point x="205" y="3" type="curve" smooth="yes"/>
      <point x="253" y="3"/>
      <point x="300" y="-2"/>
      <point x="347" y="-2" type="curve" smooth="yes"/>
      <point x="427" y="-2"/>
      <point x="531" y="15"/>
      <point x="600" y="57" type="curve" smooth="yes"/>
      <point x="710" y="123"/>
      <point x="764" y="247"/>
    </contour>
    <contour>
      <point x="656" y="361" type="curve" smooth="yes"/>
      <point x="656" y="253"/>
      <point x="624" y="149"/>
      <point x="535" y="82" type="curve" smooth="yes"/>
      <point x="471" y="34"/>
      <point x="378" y="31"/>
      <point x="302" y="31" type="curve" smooth="yes"/>
      <point x="269" y="31"/>
      <point x="239" y="38"/>
      <point x="239" y="77" type="curve" smooth="yes"/>
      <point x="239" y="671" type="line"/>
      <point x="292" y="672"/>
      <point x="340" y="674"/>
      <point x="389" y="674" type="curve" smooth="yes"/>
      <point x="405" y="674"/>
      <point x="421" y="673"/>
      <point x="437" y="672" type="curve" smooth="yes"/>
      <point x="488" y="667"/>
      <point x="540" y="638"/>
      <point x="576" y="603" type="curve" smooth="yes"/>
      <point x="634" y="545"/>
      <point x="656" y="440"/>
    </contour>
  </outline>
</glyph>
<glyph name="E" format="2">
  <advance width="664"/>
  <unicode hex="0045"/>
  <note>
cid00038
</note>
  <outline>
    <contour>
      <point x="633" y="163" type="curve" smooth="yes"/>
      <point x="633" y="172"/>
      <point x="627" y="175"/>
      <point x="622" y="175" type="curve" smooth="yes"/>
      <point x="615" y="175"/>
      <point x="611" y="173"/>
      <point x="607" y="165" type="curve" smooth="yes"/>
      <point x="600" y="149"/>
      <point x="593" y="132"/>
      <point x="585" y="116" type="curve" smooth="yes"/>
      <point x="576" y="99"/>
      <point x="566" y="83"/>
      <point x="553" y="71" type="curve" smooth="yes"/>
      <point x="513" y="34"/>
      <point x="427" y="28"/>
      <point x="375" y="28" type="curve" smooth="yes"/>
      <point x="297" y="28" type="line" smooth="yes"/>
      <point x="288" y="28"/>
      <point x="279" y="28"/>
      <point x="272" y="29" type="curve" smooth="yes"/>
      <point x="264" y="30"/>
      <point x="258" y="31"/>
      <point x="253" y="33" type="curve" smooth="yes"/>
      <point x="242" y="39"/>
      <point x="237" y="50"/>
      <point x="237" y="71" type="curve" smooth="yes"/>
      <point x="237" y="299" type="line" smooth="yes"/>
      <point x="237" y="324"/>
      <point x="255" y="335"/>
      <point x="278" y="340" type="curve" smooth="yes"/>
      <point x="289" y="342"/>
      <point x="302" y="342"/>
      <point x="313" y="343" type="curve" smooth="yes"/>
      <point x="324" y="343"/>
      <point x="334" y="342"/>
      <point x="342" y="342" type="curve" smooth="yes"/>
      <point x="413" y="342" type="line" smooth="yes"/>
      <point x="437" y="341"/>
      <point x="461" y="339"/>
      <point x="484" y="337" type="curve" smooth="yes"/>
      <point x="495" y="335"/>
      <point x="505" y="335"/>
      <point x="514" y="335" type="curve" smooth="yes"/>
      <point x="520" y="335"/>
      <point x="525" y="338"/>
      <point x="529" y="346" type="curve" smooth="yes"/>
      <point x="533" y="356"/>
      <point x="544" y="384"/>
      <point x="544" y="393" type="curve" smooth="yes"/>
      <point x="544" y="396"/>
      <point x="540" y="399"/>
      <point x="538" y="399" type="curve" smooth="yes"/>
      <point x="537" y="399" type="line" smooth="yes"/>
      <point x="488" y="388"/>
      <point x="439" y="381"/>
      <point x="389" y="379" type="curve" smooth="yes"/>
      <point x="339" y="376"/>
      <point x="290" y="376"/>
      <point x="237" y="376" type="curve"/>
      <point x="237" y="665" type="line"/>
      <point x="439" y="665" type="line" smooth="yes"/>
      <point x="519" y="665"/>
      <point x="559" y="639"/>
      <point x="581" y="562" type="curve" smooth="yes"/>
      <point x="584" y="550"/>
      <point x="589" y="548"/>
      <point x="598" y="548" type="curve" smooth="yes"/>
      <point x="608" y="548"/>
      <point x="619" y="551"/>
      <point x="619" y="565" type="curve" smooth="yes"/>
      <point x="619" y="572"/>
      <point x="617" y="580"/>
      <point x="616" y="587" type="curve" smooth="yes"/>
      <point x="610" y="625"/>
      <point x="601" y="661"/>
      <point x="596" y="700" type="curve"/>
      <point x="566" y="698"/>
      <point x="537" y="697"/>
      <point x="508" y="697" type="curve" smooth="yes"/>
      <point x="435" y="697"/>
      <point x="362" y="695"/>
      <point x="289" y="695" type="curve" smooth="yes"/>
      <point x="232" y="695"/>
      <point x="175" y="694"/>
      <point x="117" y="694" type="curve" smooth="yes"/>
      <point x="92" y="694"/>
      <point x="77" y="696"/>
      <point x="52" y="696" type="curve" smooth="yes"/>
      <point x="39" y="696"/>
      <point x="37" y="686"/>
      <point x="37" y="676" type="curve" smooth="yes"/>
      <point x="37" y="663"/>
      <point x="47" y="660"/>
      <point x="56" y="660" type="curve" smooth="yes"/>
      <point x="68" y="660" type="line" smooth="yes"/>
      <point x="72" y="660"/>
      <point x="77" y="661"/>
      <point x="81" y="661" type="curve" smooth="yes"/>
      <point x="90" y="661"/>
      <point x="99" y="661"/>
      <point x="108" y="660" type="curve" smooth="yes"/>
      <point x="126" y="656"/>
      <point x="139" y="647"/>
      <point x="139" y="624" type="curve" smooth="yes"/>
      <point x="139" y="76" type="line" smooth="yes"/>
      <point x="139" y="49"/>
      <point x="126" y="33"/>
      <point x="110" y="29" type="curve" smooth="yes"/>
      <point x="91" y="25"/>
      <point x="76" y="24"/>
      <point x="57" y="24" type="curve" smooth="yes"/>
      <point x="47" y="24"/>
      <point x="45" y="14"/>
      <point x="45" y="7" type="curve" smooth="yes"/>
      <point x="45" y="-1"/>
      <point x="53" y="-5"/>
      <point x="58" y="-4" type="curve"/>
      <point x="96" y="-4"/>
      <point x="141" y="1"/>
      <point x="184" y="1" type="curve" smooth="yes"/>
      <point x="323" y="1"/>
      <point x="461" y="-2"/>
      <point x="599" y="-2" type="curve" smooth="yes"/>
      <point x="606" y="-2"/>
      <point x="614" y="4"/>
      <point x="616" y="14" type="curve" smooth="yes"/>
      <point x="620" y="38"/>
      <point x="621" y="67"/>
      <point x="625" y="92" type="curve" smooth="yes"/>
      <point x="628" y="113"/>
      <point x="633" y="143"/>
    </contour>
  </outline>
</glyph>
<glyph name="F" format="2">
  <advance width="603"/>
  <unicode hex="0046"/>
  <note>
cid00039
</note>
  <outline>
    <contour>
      <point x="590" y="567" type="curve" smooth="yes"/>
      <point x="590" y="593"/>
      <point x="574" y="669"/>
      <point x="568" y="702" type="curve"/>
      <point x="538" y="700"/>
      <point x="508" y="699"/>
      <point x="479" y="699" type="curve" smooth="yes"/>
      <point x="414" y="699"/>
      <point x="350" y="696"/>
      <point x="284" y="696" type="curve" smooth="yes"/>
      <point x="113" y="696" type="line" smooth="yes"/>
      <point x="87" y="696"/>
      <point x="68" y="698"/>
      <point x="42" y="698" type="curve" smooth="yes"/>
      <point x="30" y="698"/>
      <point x="28" y="688"/>
      <point x="28" y="678" type="curve" smooth="yes"/>
      <point x="28" y="665"/>
      <point x="37" y="662"/>
      <point x="47" y="662" type="curve" smooth="yes"/>
      <point x="65" y="662"/>
      <point x="87" y="663"/>
      <point x="104" y="660" type="curve" smooth="yes"/>
      <point x="122" y="656"/>
      <point x="134" y="647"/>
      <point x="134" y="626" type="curve" smooth="yes"/>
      <point x="134" y="110" type="line" smooth="yes"/>
      <point x="134" y="39"/>
      <point x="111" y="30"/>
      <point x="47" y="24" type="curve" smooth="yes"/>
      <point x="37" y="23"/>
      <point x="36" y="16"/>
      <point x="36" y="7" type="curve" smooth="yes"/>
      <point x="36" y="-1"/>
      <point x="44" y="-4"/>
      <point x="49" y="-4" type="curve" smooth="yes"/>
      <point x="95" y="-4"/>
      <point x="135" y="1"/>
      <point x="181" y="1" type="curve" smooth="yes"/>
      <point x="207" y="1"/>
      <point x="233" y="0"/>
      <point x="259" y="0" type="curve" smooth="yes"/>
      <point x="281" y="0"/>
      <point x="303" y="-3"/>
      <point x="325" y="-3" type="curve" smooth="yes"/>
      <point x="333" y="-3"/>
      <point x="342" y="1"/>
      <point x="342" y="12" type="curve" smooth="yes"/>
      <point x="342" y="23"/>
      <point x="335" y="27"/>
      <point x="328" y="27" type="curve" smooth="yes"/>
      <point x="305" y="27"/>
      <point x="271" y="28"/>
      <point x="252" y="44" type="curve" smooth="yes"/>
      <point x="241" y="54"/>
      <point x="233" y="66"/>
      <point x="233" y="81" type="curve" smooth="yes"/>
      <point x="233" y="299" type="line" smooth="yes"/>
      <point x="233" y="324"/>
      <point x="251" y="335"/>
      <point x="273" y="339" type="curve" smooth="yes"/>
      <point x="279" y="340"/>
      <point x="284" y="341"/>
      <point x="290" y="341" type="curve" smooth="yes"/>
      <point x="296" y="342"/>
      <point x="302" y="342"/>
      <point x="307" y="343" type="curve"/>
      <point x="318" y="343"/>
      <point x="329" y="342"/>
      <point x="337" y="342" type="curve" smooth="yes"/>
      <point x="382" y="342"/>
      <point x="428" y="341"/>
      <point x="474" y="337" type="curve"/>
      <point x="484" y="335"/>
      <point x="494" y="335"/>
      <point x="503" y="335" type="curve" smooth="yes"/>
      <point x="510" y="335"/>
      <point x="515" y="338"/>
      <point x="518" y="346" type="curve" smooth="yes"/>
      <point x="520" y="351"/>
      <point x="524" y="360"/>
      <point x="527" y="370" type="curve" smooth="yes"/>
      <point x="531" y="379"/>
      <point x="534" y="388"/>
      <point x="534" y="393" type="curve" smooth="yes"/>
      <point x="534" y="396"/>
      <point x="529" y="399"/>
      <point x="527" y="399" type="curve" smooth="yes"/>
      <point x="526" y="399" type="line" smooth="yes"/>
      <point x="488" y="390"/>
      <point x="450" y="385"/>
      <point x="412" y="382" type="curve" smooth="yes"/>
      <point x="353" y="377"/>
      <point x="295" y="377"/>
      <point x="233" y="376" type="curve"/>
      <point x="233" y="667" type="line"/>
      <point x="410" y="667" type="line" smooth="yes"/>
      <point x="483" y="667"/>
      <point x="531" y="633"/>
      <point x="551" y="564" type="curve" smooth="yes"/>
      <point x="555" y="551"/>
      <point x="559" y="548"/>
      <point x="569" y="548" type="curve" smooth="yes"/>
      <point x="579" y="548"/>
      <point x="590" y="554"/>
    </contour>
  </outline>
</glyph>
<glyph name="G" format="2">
  <advance width="770"/>
  <unicode hex="0047"/>
  <note>
cid00040
</note>
  <outline>
    <contour>
      <point x="753" y="295" type="curve" smooth="yes"/>
      <point x="753" y="301"/>
      <point x="749" y="311"/>
      <point x="741" y="311" type="curve" smooth="yes"/>
      <point x="720" y="311"/>
      <point x="699" y="308"/>
      <point x="678" y="307" type="curve" smooth="yes"/>
      <point x="633" y="306"/>
      <point x="588" y="307"/>
      <point x="543" y="307" type="curve" smooth="yes"/>
      <point x="523" y="307"/>
      <point x="503" y="308"/>
      <point x="483" y="308" type="curve" smooth="yes"/>
      <point x="472" y="308"/>
      <point x="471" y="299"/>
      <point x="471" y="291" type="curve" smooth="yes"/>
      <point x="471" y="283"/>
      <point x="473" y="275"/>
      <point x="484" y="275" type="curve" smooth="yes"/>
      <point x="503" y="275"/>
      <point x="523" y="278"/>
      <point x="542" y="278" type="curve" smooth="yes"/>
      <point x="558" y="278"/>
      <point x="583" y="274"/>
      <point x="583" y="254" type="curve" smooth="yes"/>
      <point x="583" y="126" type="line" smooth="yes"/>
      <point x="583" y="58"/>
      <point x="468" y="42"/>
      <point x="419" y="42" type="curve" smooth="yes"/>
      <point x="244" y="42"/>
      <point x="176" y="198"/>
      <point x="176" y="350" type="curve" smooth="yes"/>
      <point x="176" y="493"/>
      <point x="239" y="684"/>
      <point x="414" y="684" type="curve" smooth="yes"/>
      <point x="459" y="684"/>
      <point x="521" y="664"/>
      <point x="555" y="637" type="curve" smooth="yes"/>
      <point x="589" y="609"/>
      <point x="613" y="578"/>
      <point x="631" y="539" type="curve" smooth="yes"/>
      <point x="636" y="528"/>
      <point x="645" y="502"/>
      <point x="650" y="494" type="curve" smooth="yes"/>
      <point x="654" y="488"/>
      <point x="662" y="487"/>
      <point x="668" y="487" type="curve" smooth="yes"/>
      <point x="674" y="487"/>
      <point x="687" y="493"/>
      <point x="687" y="502" type="curve" smooth="yes"/>
      <point x="687" y="515"/>
      <point x="687" y="529"/>
      <point x="687" y="542" type="curve" smooth="yes"/>
      <point x="684" y="643" type="line" smooth="yes"/>
      <point x="684" y="659"/>
      <point x="685" y="676"/>
      <point x="683" y="691" type="curve" smooth="yes"/>
      <point x="682" y="699"/>
      <point x="679" y="700"/>
      <point x="674" y="700" type="curve" smooth="yes"/>
      <point x="667" y="700" type="line"/>
      <point x="664" y="698"/>
      <point x="662" y="697"/>
      <point x="660" y="695" type="curve" smooth="yes"/>
      <point x="655" y="689" type="line" smooth="yes"/>
      <point x="641" y="675"/>
      <point x="633" y="672"/>
      <point x="613" y="672" type="curve" smooth="yes"/>
      <point x="609" y="672"/>
      <point x="602" y="673"/>
      <point x="593" y="675" type="curve" smooth="yes"/>
      <point x="585" y="677"/>
      <point x="575" y="680"/>
      <point x="566" y="682" type="curve" smooth="yes"/>
      <point x="548" y="687"/>
      <point x="530" y="693"/>
      <point x="520" y="696" type="curve" smooth="yes"/>
      <point x="483" y="707"/>
      <point x="448" y="713"/>
      <point x="410" y="713" type="curve" smooth="yes"/>
      <point x="207" y="713"/>
      <point x="70" y="552"/>
      <point x="70" y="349" type="curve" smooth="yes"/>
      <point x="70" y="232"/>
      <point x="117" y="120"/>
      <point x="215" y="56" type="curve" smooth="yes"/>
      <point x="265" y="23"/>
      <point x="350" y="1"/>
      <point x="408" y="1" type="curve" smooth="yes"/>
      <point x="453" y="1"/>
      <point x="504" y="4"/>
      <point x="545" y="22" type="curve" smooth="yes"/>
      <point x="588" y="41"/>
      <point x="634" y="58"/>
      <point x="680" y="73" type="curve"/>
      <point x="680" y="279" type="line"/>
      <point x="740" y="280" type="line" smooth="yes"/>
      <point x="746" y="280"/>
      <point x="753" y="284"/>
    </contour>
  </outline>
</glyph>
<glyph name="H" format="2">
  <advance width="823"/>
  <unicode hex="0048"/>
  <note>
cid00041
</note>
  <outline>
    <contour>
      <point x="803" y="690" type="curve" smooth="yes"/>
      <point x="803" y="701"/>
      <point x="798" y="703"/>
      <point x="795" y="702" type="curve"/>
      <point x="749" y="701"/>
      <point x="703" y="699"/>
      <point x="657" y="699" type="curve" smooth="yes"/>
      <point x="631" y="699"/>
      <point x="604" y="700"/>
      <point x="578" y="701" type="curve" smooth="yes"/>
      <point x="570" y="702"/>
      <point x="561" y="702"/>
      <point x="553" y="703" type="curve" smooth="yes"/>
      <point x="545" y="704"/>
      <point x="537" y="705"/>
      <point x="529" y="705" type="curve" smooth="yes"/>
      <point x="526" y="705"/>
      <point x="525" y="704"/>
      <point x="524" y="703" type="curve"/>
      <point x="523" y="699" type="line" smooth="yes"/>
      <point x="522" y="697"/>
      <point x="522" y="695"/>
      <point x="523" y="693" type="curve"/>
      <point x="523" y="687" type="line" smooth="yes"/>
      <point x="523" y="682"/>
      <point x="526" y="677"/>
      <point x="530" y="677" type="curve" smooth="yes"/>
      <point x="545" y="677"/>
      <point x="559" y="678"/>
      <point x="574" y="678" type="curve" smooth="yes"/>
      <point x="599" y="678"/>
      <point x="610" y="669"/>
      <point x="613" y="656" type="curve" smooth="yes"/>
      <point x="615" y="650"/>
      <point x="614" y="642"/>
      <point x="614" y="634" type="curve" smooth="yes"/>
      <point x="614" y="385" type="line"/>
      <point x="225" y="385" type="line"/>
      <point x="225" y="652" type="line" smooth="yes"/>
      <point x="225" y="670"/>
      <point x="248" y="678"/>
      <point x="263" y="678" type="curve" smooth="yes"/>
      <point x="277" y="678"/>
      <point x="290" y="676"/>
      <point x="304" y="676" type="curve" smooth="yes"/>
      <point x="309" y="676"/>
      <point x="312" y="677"/>
      <point x="313" y="680" type="curve" smooth="yes"/>
      <point x="314" y="682"/>
      <point x="314" y="684"/>
      <point x="314" y="686" type="curve" smooth="yes"/>
      <point x="314" y="694" type="line" smooth="yes"/>
      <point x="314" y="702"/>
      <point x="309" y="703"/>
      <point x="307" y="702" type="curve"/>
      <point x="262" y="701"/>
      <point x="216" y="699"/>
      <point x="170" y="699" type="curve" smooth="yes"/>
      <point x="144" y="699"/>
      <point x="117" y="700"/>
      <point x="91" y="701" type="curve" smooth="yes"/>
      <point x="83" y="702"/>
      <point x="75" y="702"/>
      <point x="66" y="703" type="curve" smooth="yes"/>
      <point x="58" y="704"/>
      <point x="50" y="705"/>
      <point x="42" y="705" type="curve" smooth="yes"/>
      <point x="36" y="705"/>
      <point x="35" y="701"/>
      <point x="35" y="698" type="curve"/>
      <point x="34" y="695"/>
      <point x="35" y="691"/>
      <point x="35" y="687" type="curve" smooth="yes"/>
      <point x="35" y="677"/>
      <point x="41" y="677"/>
      <point x="43" y="677" type="curve" smooth="yes"/>
      <point x="58" y="677"/>
      <point x="73" y="678"/>
      <point x="87" y="678" type="curve" smooth="yes"/>
      <point x="102" y="678"/>
      <point x="127" y="671"/>
      <point x="127" y="652" type="curve" smooth="yes"/>
      <point x="127" y="561"/>
      <point x="128" y="469"/>
      <point x="128" y="378" type="curve" smooth="yes"/>
      <point x="128" y="269"/>
      <point x="127" y="159"/>
      <point x="127" y="50" type="curve" smooth="yes"/>
      <point x="127" y="31"/>
      <point x="102" y="25"/>
      <point x="87" y="25" type="curve" smooth="yes"/>
      <point x="73" y="25"/>
      <point x="58" y="26"/>
      <point x="43" y="26" type="curve" smooth="yes"/>
      <point x="39" y="26"/>
      <point x="36" y="20"/>
      <point x="36" y="15" type="curve" smooth="yes"/>
      <point x="36" y="9" type="line" smooth="yes"/>
      <point x="36" y="7"/>
      <point x="36" y="5"/>
      <point x="37" y="3" type="curve"/>
      <point x="37" y="0"/>
      <point x="39" y="-3"/>
      <point x="42" y="-3" type="curve" smooth="yes"/>
      <point x="50" y="-3"/>
      <point x="58" y="-2"/>
      <point x="66" y="-1" type="curve" smooth="yes"/>
      <point x="75" y="0"/>
      <point x="83" y="0"/>
      <point x="91" y="1" type="curve" smooth="yes"/>
      <point x="117" y="2"/>
      <point x="144" y="4"/>
      <point x="170" y="4" type="curve" smooth="yes"/>
      <point x="215" y="4"/>
      <point x="260" y="1"/>
      <point x="305" y="0" type="curve"/>
      <point x="306" y="-1"/>
      <point x="307" y="0"/>
      <point x="308" y="0" type="curve"/>
      <point x="311" y="2" type="line"/>
      <point x="312" y="4"/>
      <point x="313" y="6"/>
      <point x="313" y="10" type="curve" smooth="yes"/>
      <point x="313" y="17" type="line" smooth="yes"/>
      <point x="313" y="19"/>
      <point x="313" y="21"/>
      <point x="312" y="22" type="curve"/>
      <point x="311" y="25"/>
      <point x="309" y="27"/>
      <point x="304" y="27" type="curve" smooth="yes"/>
      <point x="291" y="27"/>
      <point x="277" y="25"/>
      <point x="263" y="25" type="curve" smooth="yes"/>
      <point x="248" y="25"/>
      <point x="225" y="32"/>
      <point x="225" y="50" type="curve" smooth="yes"/>
      <point x="225" y="353" type="line"/>
      <point x="614" y="353" type="line"/>
      <point x="614" y="50" type="line" smooth="yes"/>
      <point x="614" y="31"/>
      <point x="589" y="25"/>
      <point x="574" y="25" type="curve" smooth="yes"/>
      <point x="559" y="25"/>
      <point x="545" y="26"/>
      <point x="530" y="26" type="curve" smooth="yes"/>
      <point x="526" y="26"/>
      <point x="523" y="20"/>
      <point x="523" y="16" type="curve" smooth="yes"/>
      <point x="523" y="10" type="line"/>
      <point x="522" y="7"/>
      <point x="522" y="5"/>
      <point x="523" y="3" type="curve"/>
      <point x="523" y="2"/>
      <point x="523" y="1"/>
      <point x="524" y="1" type="curve"/>
      <point x="524" y="-1"/>
      <point x="525" y="-3"/>
      <point x="529" y="-3" type="curve" smooth="yes"/>
      <point x="537" y="-3"/>
      <point x="545" y="-2"/>
      <point x="553" y="-1" type="curve" smooth="yes"/>
      <point x="561" y="0"/>
      <point x="570" y="0"/>
      <point x="578" y="1" type="curve" smooth="yes"/>
      <point x="604" y="2"/>
      <point x="631" y="4"/>
      <point x="657" y="4" type="curve" smooth="yes"/>
      <point x="703" y="4"/>
      <point x="749" y="1"/>
      <point x="795" y="0" type="curve"/>
      <point x="799" y="-1"/>
      <point x="800" y="1"/>
      <point x="801" y="3" type="curve"/>
      <point x="801" y="5"/>
      <point x="801" y="7"/>
      <point x="801" y="10" type="curve" smooth="yes"/>
      <point x="802" y="17" type="line" smooth="yes"/>
      <point x="802" y="19"/>
      <point x="801" y="21"/>
      <point x="801" y="22" type="curve" smooth="yes"/>
      <point x="800" y="25"/>
      <point x="798" y="27"/>
      <point x="793" y="27" type="curve" smooth="yes"/>
      <point x="779" y="27"/>
      <point x="766" y="25"/>
      <point x="752" y="25" type="curve" smooth="yes"/>
      <point x="737" y="25"/>
      <point x="714" y="32"/>
      <point x="714" y="50" type="curve" smooth="yes"/>
      <point x="714" y="652" type="line" smooth="yes"/>
      <point x="714" y="670"/>
      <point x="737" y="678"/>
      <point x="752" y="678" type="curve" smooth="yes"/>
      <point x="765" y="678"/>
      <point x="777" y="677"/>
      <point x="791" y="677" type="curve" smooth="yes"/>
      <point x="803" y="677"/>
      <point x="803" y="683"/>
    </contour>
  </outline>
</glyph>
<glyph name="I" format="2">
  <advance width="407"/>
  <unicode hex="0049"/>
  <note>
cid00042
</note>
  <outline>
    <contour>
      <point x="340" y="15" type="curve" smooth="yes"/>
      <point x="340" y="24"/>
      <point x="337" y="27"/>
      <point x="330" y="27" type="curve" smooth="yes"/>
      <point x="316" y="27"/>
      <point x="300" y="26"/>
      <point x="286" y="26" type="curve" smooth="yes"/>
      <point x="271" y="26"/>
      <point x="251" y="32"/>
      <point x="251" y="50" type="curve" smooth="yes"/>
      <point x="251" y="649" type="line" smooth="yes"/>
      <point x="251" y="667"/>
      <point x="274" y="678"/>
      <point x="289" y="678" type="curve" smooth="yes"/>
      <point x="303" y="678"/>
      <point x="316" y="677"/>
      <point x="330" y="677" type="curve" smooth="yes"/>
      <point x="339" y="677"/>
      <point x="340" y="683"/>
      <point x="340" y="692" type="curve" smooth="yes"/>
      <point x="340" y="697"/>
      <point x="338" y="703"/>
      <point x="331" y="703" type="curve" smooth="yes"/>
      <point x="328" y="703" type="line" smooth="yes"/>
      <point x="296" y="700"/>
      <point x="263" y="700"/>
      <point x="231" y="700" type="curve" smooth="yes"/>
      <point x="198" y="700" type="line" smooth="yes"/>
      <point x="155" y="700"/>
      <point x="108" y="704"/>
      <point x="64" y="704" type="curve" smooth="yes"/>
      <point x="60" y="704"/>
      <point x="57" y="702"/>
      <point x="57" y="693" type="curve" smooth="yes"/>
      <point x="57" y="686" type="line" smooth="yes"/>
      <point x="57" y="684"/>
      <point x="57" y="682"/>
      <point x="58" y="680" type="curve" smooth="yes"/>
      <point x="59" y="677"/>
      <point x="61" y="676"/>
      <point x="66" y="676" type="curve" smooth="yes"/>
      <point x="118" y="676" type="line" smooth="yes"/>
      <point x="133" y="676"/>
      <point x="152" y="666"/>
      <point x="152" y="649" type="curve" smooth="yes"/>
      <point x="152" y="50" type="line" smooth="yes"/>
      <point x="152" y="31"/>
      <point x="125" y="25"/>
      <point x="109" y="25" type="curve" smooth="yes"/>
      <point x="95" y="25"/>
      <point x="80" y="26"/>
      <point x="66" y="26" type="curve" smooth="yes"/>
      <point x="60" y="26"/>
      <point x="58" y="23"/>
      <point x="57" y="21" type="curve" smooth="yes"/>
      <point x="56" y="19"/>
      <point x="56" y="18"/>
      <point x="56" y="16" type="curve" smooth="yes"/>
      <point x="56" y="11" type="line" smooth="yes"/>
      <point x="56" y="3"/>
      <point x="58" y="-3"/>
      <point x="63" y="-2" type="curve"/>
      <point x="106" y="0"/>
      <point x="152" y="4"/>
      <point x="195" y="4" type="curve" smooth="yes"/>
      <point x="241" y="4"/>
      <point x="287" y="2"/>
      <point x="332" y="-2" type="curve"/>
      <point x="339" y="0"/>
      <point x="340" y="5"/>
    </contour>
  </outline>
</glyph>
<glyph name="J" format="2">
  <advance width="448"/>
  <unicode hex="004A"/>
  <note>
cid00043
</note>
  <outline>
    <contour>
      <point x="443" y="689" type="curve" smooth="yes"/>
      <point x="443" y="697"/>
      <point x="442" y="703"/>
      <point x="433" y="703" type="curve" smooth="yes"/>
      <point x="380" y="703"/>
      <point x="326" y="698"/>
      <point x="272" y="698" type="curve" smooth="yes"/>
      <point x="235" y="698"/>
      <point x="197" y="699"/>
      <point x="160" y="700" type="curve" smooth="yes"/>
      <point x="147" y="701"/>
      <point x="133" y="703"/>
      <point x="120" y="703" type="curve" smooth="yes"/>
      <point x="111" y="703"/>
      <point x="108" y="697"/>
      <point x="108" y="688" type="curve" smooth="yes"/>
      <point x="108" y="679"/>
      <point x="115" y="675"/>
      <point x="121" y="675" type="curve" smooth="yes"/>
      <point x="133" y="675"/>
      <point x="146" y="677"/>
      <point x="158" y="677" type="curve" smooth="yes"/>
      <point x="163" y="677"/>
      <point x="170" y="676"/>
      <point x="177" y="676" type="curve"/>
      <point x="200" y="673" type="line"/>
      <point x="215" y="668"/>
      <point x="227" y="661"/>
      <point x="227" y="645" type="curve" smooth="yes"/>
      <point x="227" y="81" type="line" smooth="yes"/>
      <point x="227" y="40"/>
      <point x="227" y="-3"/>
      <point x="220" y="-43" type="curve" smooth="yes"/>
      <point x="212" y="-91"/>
      <point x="155" y="-116"/>
      <point x="110" y="-116" type="curve" smooth="yes"/>
      <point x="88" y="-116"/>
      <point x="62" y="-109"/>
      <point x="62" y="-81" type="curve" smooth="yes"/>
      <point x="62" y="-72"/>
      <point x="63" y="-64"/>
      <point x="63" y="-56" type="curve" smooth="yes"/>
      <point x="63" y="-38"/>
      <point x="30" y="-29"/>
      <point x="17" y="-29" type="curve" smooth="yes"/>
      <point x="-10" y="-29"/>
      <point x="-42" y="-47"/>
      <point x="-42" y="-81" type="curve" smooth="yes"/>
      <point x="-42" y="-113"/>
      <point x="-15" y="-129"/>
      <point x="17" y="-136" type="curve" smooth="yes"/>
      <point x="33" y="-140"/>
      <point x="50" y="-141"/>
      <point x="67" y="-142" type="curve" smooth="yes"/>
      <point x="83" y="-143"/>
      <point x="98" y="-144"/>
      <point x="108" y="-144" type="curve" smooth="yes"/>
      <point x="270" y="-144"/>
      <point x="330" y="-38"/>
      <point x="330" y="118" type="curve" smooth="yes"/>
      <point x="330" y="283"/>
      <point x="329" y="448"/>
      <point x="331" y="612" type="curve" smooth="yes"/>
      <point x="331" y="645" type="line" smooth="yes"/>
      <point x="332" y="665"/>
      <point x="357" y="676"/>
      <point x="375" y="676" type="curve" smooth="yes"/>
      <point x="394" y="676"/>
      <point x="413" y="675"/>
      <point x="432" y="675" type="curve" smooth="yes"/>
      <point x="442" y="675"/>
      <point x="443" y="681"/>
    </contour>
  </outline>
</glyph>
<glyph name="K" format="2">
  <advance width="710"/>
  <unicode hex="004B"/>
  <note>
cid00044
</note>
  <outline>
    <contour>
      <point x="714" y="13" type="curve" smooth="yes"/>
      <point x="714" y="18"/>
      <point x="712" y="20"/>
      <point x="709" y="21" type="curve"/>
      <point x="709" y="21"/>
      <point x="709" y="22"/>
      <point x="708" y="22" type="curve" smooth="yes"/>
      <point x="706" y="22" type="line" smooth="yes"/>
      <point x="704" y="22"/>
      <point x="702" y="23"/>
      <point x="700" y="23" type="curve" smooth="yes"/>
      <point x="688" y="25"/>
      <point x="676" y="27"/>
      <point x="665" y="31" type="curve" smooth="yes"/>
      <point x="655" y="35"/>
      <point x="645" y="41"/>
      <point x="636" y="50" type="curve" smooth="yes"/>
      <point x="541" y="156"/>
      <point x="424" y="299"/>
      <point x="333" y="415" type="curve"/>
      <point x="572" y="643" type="line" smooth="yes"/>
      <point x="599" y="669"/>
      <point x="630" y="677"/>
      <point x="668" y="677" type="curve" smooth="yes"/>
      <point x="675" y="677"/>
      <point x="678" y="684"/>
      <point x="678" y="690" type="curve" smooth="yes"/>
      <point x="678" y="695"/>
      <point x="675" y="702"/>
      <point x="670" y="702" type="curve" smooth="yes"/>
      <point x="655" y="702"/>
      <point x="636" y="701"/>
      <point x="621" y="701" type="curve" smooth="yes"/>
      <point x="602" y="701"/>
      <point x="583" y="702"/>
      <point x="564" y="702" type="curve" smooth="yes"/>
      <point x="556" y="702"/>
      <point x="553" y="698"/>
      <point x="549" y="693" type="curve" smooth="yes"/>
      <point x="510" y="639"/>
      <point x="464" y="591"/>
      <point x="418" y="544" type="curve" smooth="yes"/>
      <point x="358" y="483"/>
      <point x="297" y="423"/>
      <point x="227" y="358" type="curve"/>
      <point x="229" y="462"/>
      <point x="228" y="559"/>
      <point x="228" y="655" type="curve" smooth="yes"/>
      <point x="228" y="670"/>
      <point x="246" y="680"/>
      <point x="261" y="680" type="curve" smooth="yes"/>
      <point x="275" y="680"/>
      <point x="289" y="679"/>
      <point x="304" y="679" type="curve" smooth="yes"/>
      <point x="309" y="679"/>
      <point x="314" y="683"/>
      <point x="314" y="692" type="curve" smooth="yes"/>
      <point x="314" y="703"/>
      <point x="309" y="706"/>
      <point x="302" y="705" type="curve"/>
      <point x="263" y="704"/>
      <point x="220" y="701"/>
      <point x="180" y="701" type="curve" smooth="yes"/>
      <point x="151" y="701"/>
      <point x="123" y="702"/>
      <point x="94" y="703" type="curve" smooth="yes"/>
      <point x="78" y="704"/>
      <point x="62" y="705"/>
      <point x="46" y="705" type="curve" smooth="yes"/>
      <point x="41" y="705"/>
      <point x="39" y="703"/>
      <point x="39" y="701" type="curve" smooth="yes"/>
      <point x="39" y="692" type="line" smooth="yes"/>
      <point x="39" y="682"/>
      <point x="44" y="679"/>
      <point x="51" y="679" type="curve" smooth="yes"/>
      <point x="59" y="679"/>
      <point x="67" y="680"/>
      <point x="76" y="680" type="curve" smooth="yes"/>
      <point x="97" y="680" type="line" smooth="yes"/>
      <point x="109" y="680"/>
      <point x="131" y="667"/>
      <point x="131" y="655" type="curve" smooth="yes"/>
      <point x="131" y="49" type="line" smooth="yes"/>
      <point x="131" y="36"/>
      <point x="121" y="30"/>
      <point x="110" y="26" type="curve"/>
      <point x="91" y="23" type="line"/>
      <point x="64" y="23" type="line"/>
      <point x="60" y="24"/>
      <point x="57" y="24"/>
      <point x="53" y="23" type="curve"/>
      <point x="46" y="23"/>
      <point x="43" y="22"/>
      <point x="43" y="12" type="curve" smooth="yes"/>
      <point x="43" y="5"/>
      <point x="45" y="3"/>
      <point x="50" y="-2" type="curve"/>
      <point x="94" y="0"/>
      <point x="137" y="2"/>
      <point x="180" y="2" type="curve" smooth="yes"/>
      <point x="223" y="2"/>
      <point x="267" y="-2"/>
      <point x="310" y="-2" type="curve" smooth="yes"/>
      <point x="315" y="-2"/>
      <point x="321" y="3"/>
      <point x="321" y="11" type="curve" smooth="yes"/>
      <point x="321" y="21"/>
      <point x="315" y="23"/>
      <point x="308" y="23" type="curve" smooth="yes"/>
      <point x="288" y="23" type="line" smooth="yes"/>
      <point x="279" y="22"/>
      <point x="270" y="22"/>
      <point x="261" y="23" type="curve" smooth="yes"/>
      <point x="243" y="26"/>
      <point x="228" y="32"/>
      <point x="228" y="49" type="curve" smooth="yes"/>
      <point x="228" y="328" type="line"/>
      <point x="263" y="356" type="line"/>
      <point x="352" y="246"/>
      <point x="436" y="138"/>
      <point x="515" y="27" type="curve" smooth="yes"/>
      <point x="521" y="19" type="line" smooth="yes"/>
      <point x="523" y="16"/>
      <point x="525" y="14"/>
      <point x="527" y="12" type="curve" smooth="yes"/>
      <point x="537" y="2"/>
      <point x="548" y="0"/>
      <point x="560" y="-1" type="curve" smooth="yes"/>
      <point x="583" y="-2"/>
      <point x="605" y="-1"/>
      <point x="628" y="-1" type="curve" smooth="yes"/>
      <point x="705" y="-1" type="line" smooth="yes"/>
      <point x="710" y="-1"/>
      <point x="714" y="8"/>
    </contour>
  </outline>
</glyph>
<glyph name="L" format="2">
  <advance width="664"/>
  <unicode hex="004C"/>
  <note>
cid00045
</note>
  <outline>
    <contour>
      <point x="645" y="216" type="curve" smooth="yes"/>
      <point x="645" y="220"/>
      <point x="642" y="225"/>
      <point x="639" y="225" type="curve" smooth="yes"/>
      <point x="636" y="225"/>
      <point x="632" y="225"/>
      <point x="629" y="223" type="curve"/>
      <point x="626" y="222"/>
      <point x="624" y="220"/>
      <point x="623" y="216" type="curve" smooth="yes"/>
      <point x="608" y="171"/>
      <point x="593" y="131"/>
      <point x="562" y="94" type="curve" smooth="yes"/>
      <point x="539" y="67"/>
      <point x="500" y="47"/>
      <point x="465" y="40" type="curve" smooth="yes"/>
      <point x="413" y="32"/>
      <point x="358" y="30"/>
      <point x="305" y="30" type="curve" smooth="yes"/>
      <point x="284" y="30" type="line"/>
      <point x="259" y="33" type="line"/>
      <point x="244" y="37"/>
      <point x="231" y="45"/>
      <point x="231" y="62" type="curve" smooth="yes"/>
      <point x="231" y="98" type="line" smooth="yes"/>
      <point x="231" y="145"/>
      <point x="230" y="192"/>
      <point x="230" y="239" type="curve" smooth="yes"/>
      <point x="230" y="512" type="line" smooth="yes"/>
      <point x="230" y="547"/>
      <point x="231" y="582"/>
      <point x="231" y="618" type="curve" smooth="yes"/>
      <point x="231" y="649" type="line" smooth="yes"/>
      <point x="231" y="678"/>
      <point x="270" y="679"/>
      <point x="289" y="679" type="curve" smooth="yes"/>
      <point x="300" y="679"/>
      <point x="312" y="677"/>
      <point x="323" y="677" type="curve" smooth="yes"/>
      <point x="329" y="677"/>
      <point x="331" y="680"/>
      <point x="331" y="683" type="curve" smooth="yes"/>
      <point x="332" y="687"/>
      <point x="332" y="692"/>
      <point x="332" y="695" type="curve" smooth="yes"/>
      <point x="332" y="698"/>
      <point x="327" y="705"/>
      <point x="323" y="705" type="curve" smooth="yes"/>
      <point x="277" y="705"/>
      <point x="230" y="701"/>
      <point x="183" y="701" type="curve" smooth="yes"/>
      <point x="138" y="701"/>
      <point x="94" y="702"/>
      <point x="48" y="705" type="curve"/>
      <point x="48" y="704"/>
      <point x="47" y="704"/>
      <point x="47" y="703" type="curve"/>
      <point x="46" y="703"/>
      <point x="46" y="703"/>
      <point x="45" y="702" type="curve"/>
      <point x="44" y="702" type="line"/>
      <point x="44" y="701" type="line"/>
      <point x="43" y="701"/>
      <point x="43" y="701"/>
      <point x="43" y="700" type="curve"/>
      <point x="41" y="698"/>
      <point x="41" y="696"/>
      <point x="41" y="690" type="curve" smooth="yes"/>
      <point x="41" y="686"/>
      <point x="42" y="675"/>
      <point x="47" y="675" type="curve" smooth="yes"/>
      <point x="53" y="675"/>
      <point x="59" y="676"/>
      <point x="64" y="677" type="curve" smooth="yes"/>
      <point x="71" y="678"/>
      <point x="77" y="679"/>
      <point x="84" y="679" type="curve" smooth="yes"/>
      <point x="108" y="679"/>
      <point x="120" y="675"/>
      <point x="125" y="664" type="curve" smooth="yes"/>
      <point x="128" y="659"/>
      <point x="129" y="653"/>
      <point x="129" y="646" type="curve" smooth="yes"/>
      <point x="130" y="638"/>
      <point x="130" y="629"/>
      <point x="130" y="618" type="curve" smooth="yes"/>
      <point x="130" y="51" type="line" smooth="yes"/>
      <point x="130" y="37"/>
      <point x="121" y="31"/>
      <point x="109" y="27" type="curve"/>
      <point x="105" y="27"/>
      <point x="102" y="26"/>
      <point x="98" y="26" type="curve"/>
      <point x="95" y="25"/>
      <point x="92" y="25"/>
      <point x="89" y="25" type="curve" smooth="yes"/>
      <point x="72" y="25" type="line" smooth="yes"/>
      <point x="65" y="25"/>
      <point x="59" y="26"/>
      <point x="52" y="26" type="curve" smooth="yes"/>
      <point x="44" y="26"/>
      <point x="38" y="24"/>
      <point x="38" y="12" type="curve" smooth="yes"/>
      <point x="38" y="0"/>
      <point x="44" y="-3"/>
      <point x="53" y="-1" type="curve"/>
      <point x="56" y="-1" type="line" smooth="yes"/>
      <point x="98" y="-2"/>
      <point x="139" y="1"/>
      <point x="180" y="3" type="curve" smooth="yes"/>
      <point x="256" y="4"/>
      <point x="331" y="6"/>
      <point x="406" y="6" type="curve" smooth="yes"/>
      <point x="456" y="6"/>
      <point x="505" y="5"/>
      <point x="555" y="5" type="curve" smooth="yes"/>
      <point x="569" y="4"/>
      <point x="582" y="4"/>
      <point x="596" y="4" type="curve" smooth="yes"/>
      <point x="602" y="4"/>
      <point x="608" y="5"/>
      <point x="613" y="10" type="curve" smooth="yes"/>
      <point x="615" y="12"/>
      <point x="616" y="15"/>
      <point x="617" y="18" type="curve"/>
      <point x="617" y="21"/>
      <point x="617" y="24"/>
      <point x="618" y="27" type="curve"/>
      <point x="626" y="80"/>
      <point x="632" y="134"/>
      <point x="641" y="187" type="curve" smooth="yes"/>
      <point x="643" y="196"/>
      <point x="645" y="207"/>
    </contour>
  </outline>
</glyph>
<glyph name="M" format="2">
  <advance width="933"/>
  <unicode hex="004D"/>
  <note>
cid00046
</note>
  <outline>
    <contour>
      <point x="921" y="11" type="curve" smooth="yes"/>
      <point x="921" y="20"/>
      <point x="920" y="28"/>
      <point x="911" y="28" type="curve" smooth="yes"/>
      <point x="895" y="28"/>
      <point x="879" y="26"/>
      <point x="863" y="26" type="curve" smooth="yes"/>
      <point x="837" y="26"/>
      <point x="825" y="30"/>
      <point x="820" y="41" type="curve" smooth="yes"/>
      <point x="818" y="46"/>
      <point x="817" y="52"/>
      <point x="817" y="59" type="curve" smooth="yes"/>
      <point x="817" y="652" type="line" smooth="yes"/>
      <point x="817" y="672"/>
      <point x="847" y="678"/>
      <point x="862" y="678" type="curve" smooth="yes"/>
      <point x="878" y="678"/>
      <point x="894" y="676"/>
      <point x="910" y="676" type="curve" smooth="yes"/>
      <point x="917" y="676"/>
      <point x="918" y="685"/>
      <point x="918" y="691" type="curve" smooth="yes"/>
      <point x="918" y="697"/>
      <point x="917" y="707"/>
      <point x="910" y="707" type="curve" smooth="yes"/>
      <point x="872" y="707"/>
      <point x="833" y="702"/>
      <point x="795" y="702" type="curve" smooth="yes"/>
      <point x="763" y="702"/>
      <point x="731" y="702"/>
      <point x="698" y="704" type="curve"/>
      <point x="633" y="521"/>
      <point x="552" y="345"/>
      <point x="479" y="156" type="curve"/>
      <point x="249" y="706" type="line"/>
      <point x="223" y="703"/>
      <point x="200" y="703"/>
      <point x="175" y="703" type="curve" smooth="yes"/>
      <point x="148" y="703"/>
      <point x="120" y="702"/>
      <point x="93" y="703" type="curve" smooth="yes"/>
      <point x="78" y="704"/>
      <point x="62" y="706"/>
      <point x="47" y="706" type="curve" smooth="yes"/>
      <point x="38" y="706"/>
      <point x="36" y="699"/>
      <point x="36" y="692" type="curve" smooth="yes"/>
      <point x="36" y="685"/>
      <point x="39" y="677"/>
      <point x="46" y="677" type="curve" smooth="yes"/>
      <point x="58" y="677"/>
      <point x="69" y="679"/>
      <point x="81" y="679" type="curve" smooth="yes"/>
      <point x="100" y="679"/>
      <point x="130" y="673"/>
      <point x="130" y="648" type="curve" smooth="yes"/>
      <point x="130" y="512"/>
      <point x="128" y="375"/>
      <point x="128" y="238" type="curve" smooth="yes"/>
      <point x="128" y="176"/>
      <point x="130" y="113"/>
      <point x="128" y="51" type="curve" smooth="yes"/>
      <point x="128" y="36"/>
      <point x="116" y="29"/>
      <point x="101" y="26" type="curve" smooth="yes"/>
      <point x="94" y="25"/>
      <point x="86" y="25"/>
      <point x="79" y="25" type="curve" smooth="yes"/>
      <point x="61" y="25" type="line"/>
      <point x="56" y="25" type="line" smooth="yes"/>
      <point x="54" y="25"/>
      <point x="53" y="26"/>
      <point x="51" y="26" type="curve" smooth="yes"/>
      <point x="44" y="26" type="line" smooth="yes"/>
      <point x="40" y="26"/>
      <point x="36" y="23"/>
      <point x="36" y="14" type="curve" smooth="yes"/>
      <point x="36" y="6" type="line"/>
      <point x="37" y="5"/>
      <point x="37" y="4"/>
      <point x="37" y="3" type="curve"/>
      <point x="38" y="2"/>
      <point x="38" y="1"/>
      <point x="39" y="-1" type="curve"/>
      <point x="47" y="-1" type="line" smooth="yes"/>
      <point x="78" y="-1"/>
      <point x="110" y="3"/>
      <point x="141" y="3" type="curve" smooth="yes"/>
      <point x="177" y="3"/>
      <point x="212" y="-1"/>
      <point x="247" y="-1" type="curve" smooth="yes"/>
      <point x="254" y="-1"/>
      <point x="255" y="9"/>
      <point x="255" y="14" type="curve" smooth="yes"/>
      <point x="255" y="16"/>
      <point x="256" y="19"/>
      <point x="256" y="22" type="curve" smooth="yes"/>
      <point x="256" y="25"/>
      <point x="254" y="28"/>
      <point x="251" y="28" type="curve" smooth="yes"/>
      <point x="238" y="28"/>
      <point x="225" y="26"/>
      <point x="212" y="26" type="curve" smooth="yes"/>
      <point x="197" y="26" type="line" smooth="yes"/>
      <point x="191" y="26"/>
      <point x="185" y="26"/>
      <point x="181" y="28" type="curve"/>
      <point x="170" y="31"/>
      <point x="163" y="38"/>
      <point x="163" y="51" type="curve" smooth="yes"/>
      <point x="163" y="245"/>
      <point x="162" y="438"/>
      <point x="162" y="650" type="curve"/>
      <point x="225" y="497"/>
      <point x="282" y="363"/>
      <point x="339" y="228" type="curve" smooth="yes"/>
      <point x="366" y="163"/>
      <point x="392" y="97"/>
      <point x="422" y="33" type="curve" smooth="yes"/>
      <point x="426" y="25"/>
      <point x="434" y="22"/>
      <point x="442" y="22" type="curve" smooth="yes"/>
      <point x="450" y="22"/>
      <point x="459" y="25"/>
      <point x="463" y="33" type="curve" smooth="yes"/>
      <point x="473" y="56"/>
      <point x="482" y="80"/>
      <point x="492" y="103" type="curve" smooth="yes"/>
      <point x="557" y="261" type="line" smooth="yes"/>
      <point x="610" y="392"/>
      <point x="664" y="523"/>
      <point x="713" y="655" type="curve"/>
      <point x="719" y="655" type="line"/>
      <point x="719" y="84" type="line"/>
      <point x="719" y="51" type="line" smooth="yes"/>
      <point x="718" y="36"/>
      <point x="706" y="30"/>
      <point x="691" y="27" type="curve" smooth="yes"/>
      <point x="684" y="26"/>
      <point x="676" y="27"/>
      <point x="669" y="27" type="curve" smooth="yes"/>
      <point x="651" y="27" type="line" smooth="yes"/>
      <point x="648" y="27"/>
      <point x="645" y="27"/>
      <point x="641" y="28" type="curve" smooth="yes"/>
      <point x="638" y="28"/>
      <point x="635" y="27"/>
      <point x="633" y="26" type="curve"/>
      <point x="629" y="26"/>
      <point x="624" y="24"/>
      <point x="624" y="14" type="curve" smooth="yes"/>
      <point x="624" y="5"/>
      <point x="626" y="-4"/>
      <point x="637" y="-4" type="curve" smooth="yes"/>
      <point x="647" y="-4"/>
      <point x="658" y="-2"/>
      <point x="669" y="-1" type="curve" smooth="yes"/>
      <point x="680" y="0"/>
      <point x="691" y="0"/>
      <point x="702" y="1" type="curve" smooth="yes"/>
      <point x="724" y="1"/>
      <point x="746" y="3"/>
      <point x="768" y="3" type="curve" smooth="yes"/>
      <point x="815" y="3"/>
      <point x="862" y="-2"/>
      <point x="909" y="-2" type="curve" smooth="yes"/>
      <point x="914" y="-2"/>
      <point x="921" y="3"/>
    </contour>
  </outline>
</glyph>
<glyph name="N" format="2">
  <advance width="765"/>
  <unicode hex="004E"/>
  <note>
cid00047
</note>
  <outline>
    <contour>
      <point x="754" y="689" type="curve" smooth="yes"/>
      <point x="754" y="699"/>
      <point x="754" y="701"/>
      <point x="746" y="707" type="curve"/>
      <point x="697" y="703"/>
      <point x="650" y="702"/>
      <point x="602" y="702" type="curve" smooth="yes"/>
      <point x="583" y="702"/>
      <point x="564" y="705"/>
      <point x="545" y="705" type="curve" smooth="yes"/>
      <point x="541" y="705"/>
      <point x="537" y="703"/>
      <point x="536" y="701" type="curve" smooth="yes"/>
      <point x="535" y="700"/>
      <point x="535" y="698"/>
      <point x="535" y="696" type="curve"/>
      <point x="534" y="694"/>
      <point x="534" y="691"/>
      <point x="534" y="688" type="curve" smooth="yes"/>
      <point x="534" y="680" type="line"/>
      <point x="535" y="677"/>
      <point x="537" y="675"/>
      <point x="541" y="675" type="curve" smooth="yes"/>
      <point x="557" y="675"/>
      <point x="573" y="677"/>
      <point x="589" y="677" type="curve" smooth="yes"/>
      <point x="604" y="677"/>
      <point x="629" y="669"/>
      <point x="629" y="651" type="curve" smooth="yes"/>
      <point x="629" y="196" type="line"/>
      <point x="536" y="308"/>
      <point x="450" y="411"/>
      <point x="365" y="515" type="curve" smooth="yes"/>
      <point x="315" y="577"/>
      <point x="263" y="638"/>
      <point x="216" y="703" type="curve"/>
      <point x="191" y="703"/>
      <point x="167" y="702"/>
      <point x="144" y="702" type="curve" smooth="yes"/>
      <point x="110" y="702"/>
      <point x="77" y="705"/>
      <point x="43" y="705" type="curve" smooth="yes"/>
      <point x="33" y="705"/>
      <point x="32" y="697"/>
      <point x="32" y="687" type="curve" smooth="yes"/>
      <point x="32" y="679"/>
      <point x="39" y="678"/>
      <point x="44" y="678" type="curve" smooth="yes"/>
      <point x="52" y="678"/>
      <point x="59" y="679"/>
      <point x="66" y="679" type="curve" smooth="yes"/>
      <point x="73" y="679"/>
      <point x="80" y="678"/>
      <point x="86" y="678" type="curve" smooth="yes"/>
      <point x="93" y="677"/>
      <point x="100" y="677"/>
      <point x="105" y="675" type="curve" smooth="yes"/>
      <point x="117" y="670"/>
      <point x="125" y="661"/>
      <point x="125" y="644" type="curve" smooth="yes"/>
      <point x="125" y="508"/>
      <point x="122" y="373"/>
      <point x="122" y="238" type="curve" smooth="yes"/>
      <point x="122" y="175"/>
      <point x="123" y="113"/>
      <point x="122" y="51" type="curve" smooth="yes"/>
      <point x="122" y="35"/>
      <point x="113" y="28"/>
      <point x="100" y="25" type="curve" smooth="yes"/>
      <point x="94" y="24"/>
      <point x="87" y="25"/>
      <point x="81" y="25" type="curve" smooth="yes"/>
      <point x="63" y="25" type="line"/>
      <point x="61" y="25" type="line" smooth="yes"/>
      <point x="58" y="25"/>
      <point x="55" y="26"/>
      <point x="52" y="26" type="curve" smooth="yes"/>
      <point x="42" y="26" type="line" smooth="yes"/>
      <point x="38" y="26"/>
      <point x="33" y="23"/>
      <point x="33" y="14" type="curve" smooth="yes"/>
      <point x="33" y="10"/>
      <point x="32" y="5"/>
      <point x="33" y="1" type="curve"/>
      <point x="35" y="-2"/>
      <point x="37" y="-3"/>
      <point x="40" y="-3" type="curve" smooth="yes"/>
      <point x="75" y="-3"/>
      <point x="110" y="2"/>
      <point x="145" y="2" type="curve" smooth="yes"/>
      <point x="165" y="2"/>
      <point x="186" y="2"/>
      <point x="206" y="1" type="curve" smooth="yes"/>
      <point x="212" y="0"/>
      <point x="218" y="-1"/>
      <point x="225" y="-1" type="curve" smooth="yes"/>
      <point x="231" y="-2"/>
      <point x="237" y="-3"/>
      <point x="242" y="-3" type="curve" smooth="yes"/>
      <point x="254" y="-3"/>
      <point x="255" y="3"/>
      <point x="255" y="13" type="curve" smooth="yes"/>
      <point x="255" y="18" type="line" smooth="yes"/>
      <point x="255" y="20"/>
      <point x="255" y="21"/>
      <point x="254" y="22" type="curve"/>
      <point x="253" y="25"/>
      <point x="251" y="27"/>
      <point x="246" y="27" type="curve" smooth="yes"/>
      <point x="237" y="27"/>
      <point x="226" y="26"/>
      <point x="216" y="26" type="curve" smooth="yes"/>
      <point x="200" y="26" type="line" smooth="yes"/>
      <point x="194" y="26"/>
      <point x="188" y="26"/>
      <point x="181" y="27" type="curve"/>
      <point x="170" y="31"/>
      <point x="160" y="37"/>
      <point x="160" y="51" type="curve" smooth="yes"/>
      <point x="160" y="627" type="line"/>
      <point x="300" y="436"/>
      <point x="438" y="262"/>
      <point x="576" y="81" type="curve" smooth="yes"/>
      <point x="593" y="59"/>
      <point x="609" y="28"/>
      <point x="614" y="0" type="curve"/>
      <point x="658" y="1" type="line" smooth="yes"/>
      <point x="662" y="1"/>
      <point x="665" y="5"/>
      <point x="665" y="9" type="curve" smooth="yes"/>
      <point x="665" y="618" type="line"/>
      <point x="665" y="651" type="line" smooth="yes"/>
      <point x="666" y="665"/>
      <point x="676" y="672"/>
      <point x="688" y="675" type="curve" smooth="yes"/>
      <point x="694" y="677"/>
      <point x="701" y="676"/>
      <point x="708" y="677" type="curve" smooth="yes"/>
      <point x="711" y="677"/>
      <point x="714" y="677"/>
      <point x="717" y="677" type="curve" smooth="yes"/>
      <point x="725" y="677" type="line"/>
      <point x="736" y="677" type="line"/>
      <point x="740" y="676"/>
      <point x="743" y="676"/>
      <point x="745" y="676" type="curve" smooth="yes"/>
      <point x="749" y="677"/>
      <point x="754" y="679"/>
    </contour>
  </outline>
</glyph>
<glyph name="O" format="2">
  <advance width="789"/>
  <unicode hex="004F"/>
  <note>
cid00048
</note>
  <outline>
    <contour>
      <point x="741" y="356" type="curve" smooth="yes"/>
      <point x="741" y="570"/>
      <point x="612" y="709"/>
      <point x="401" y="709" type="curve" smooth="yes"/>
      <point x="199" y="709"/>
      <point x="60" y="549"/>
      <point x="60" y="348" type="curve" smooth="yes"/>
      <point x="60" y="134"/>
      <point x="189" y="-3"/>
      <point x="401" y="-3" type="curve" smooth="yes"/>
      <point x="618" y="-3"/>
      <point x="741" y="139"/>
    </contour>
    <contour>
      <point x="636" y="353" type="curve" smooth="yes"/>
      <point x="636" y="203"/>
      <point x="583" y="26"/>
      <point x="401" y="26" type="curve" smooth="yes"/>
      <point x="219" y="26"/>
      <point x="165" y="198"/>
      <point x="165" y="348" type="curve" smooth="yes"/>
      <point x="165" y="490"/>
      <point x="227" y="682"/>
      <point x="401" y="682" type="curve" smooth="yes"/>
      <point x="580" y="682"/>
      <point x="636" y="499"/>
    </contour>
  </outline>
</glyph>
<glyph name="P" format="2">
  <advance width="623"/>
  <unicode hex="0050"/>
  <note>
cid00049
</note>
  <outline>
    <contour>
      <point x="607" y="533" type="curve" smooth="yes"/>
      <point x="607" y="663"/>
      <point x="480" y="705"/>
      <point x="373" y="705" type="curve" smooth="yes"/>
      <point x="305" y="705"/>
      <point x="238" y="701"/>
      <point x="171" y="701" type="curve" smooth="yes"/>
      <point x="128" y="701"/>
      <point x="85" y="705"/>
      <point x="42" y="705" type="curve" smooth="yes"/>
      <point x="39" y="705"/>
      <point x="37" y="704"/>
      <point x="36" y="701" type="curve" smooth="yes"/>
      <point x="35" y="699"/>
      <point x="35" y="697"/>
      <point x="35" y="695" type="curve" smooth="yes"/>
      <point x="35" y="690" type="line" smooth="yes"/>
      <point x="35" y="684"/>
      <point x="36" y="678"/>
      <point x="42" y="678" type="curve" smooth="yes"/>
      <point x="53" y="678"/>
      <point x="65" y="679"/>
      <point x="76" y="679" type="curve" smooth="yes"/>
      <point x="94" y="679"/>
      <point x="123" y="679"/>
      <point x="123" y="655" type="curve" smooth="yes"/>
      <point x="123" y="575"/>
      <point x="124" y="499"/>
      <point x="124" y="422" type="curve" smooth="yes"/>
      <point x="124" y="292" type="line" smooth="yes"/>
      <point x="124" y="211"/>
      <point x="124" y="131"/>
      <point x="123" y="50" type="curve" smooth="yes"/>
      <point x="123" y="38"/>
      <point x="116" y="31"/>
      <point x="106" y="28" type="curve"/>
      <point x="102" y="26"/>
      <point x="97" y="25"/>
      <point x="92" y="25" type="curve" smooth="yes"/>
      <point x="77" y="25" type="line" smooth="yes"/>
      <point x="66" y="25"/>
      <point x="55" y="26"/>
      <point x="44" y="26" type="curve" smooth="yes"/>
      <point x="39" y="26"/>
      <point x="37" y="24"/>
      <point x="36" y="22" type="curve" smooth="yes"/>
      <point x="35" y="20"/>
      <point x="35" y="19"/>
      <point x="35" y="17" type="curve" smooth="yes"/>
      <point x="35" y="11" type="line" smooth="yes"/>
      <point x="35" y="5"/>
      <point x="35" y="3"/>
      <point x="36" y="2" type="curve"/>
      <point x="36" y="1"/>
      <point x="36" y="1"/>
      <point x="37" y="1" type="curve"/>
      <point x="37" y="0" type="line"/>
      <point x="38" y="0"/>
      <point x="38" y="0"/>
      <point x="38" y="-1" type="curve"/>
      <point x="40" y="-1" type="line" smooth="yes"/>
      <point x="41" y="-1"/>
      <point x="42" y="-2"/>
      <point x="43" y="-1" type="curve"/>
      <point x="87" y="0"/>
      <point x="132" y="3"/>
      <point x="176" y="3" type="curve" smooth="yes"/>
      <point x="219" y="3"/>
      <point x="262" y="-1"/>
      <point x="305" y="-1" type="curve" smooth="yes"/>
      <point x="314" y="-1" type="line" smooth="yes"/>
      <point x="321" y="-1"/>
      <point x="323" y="9"/>
      <point x="323" y="15" type="curve" smooth="yes"/>
      <point x="323" y="24" type="line"/>
      <point x="322" y="27"/>
      <point x="320" y="28"/>
      <point x="315" y="28" type="curve" smooth="yes"/>
      <point x="303" y="28" type="line" smooth="yes"/>
      <point x="299" y="28"/>
      <point x="294" y="27"/>
      <point x="290" y="27" type="curve" smooth="yes"/>
      <point x="264" y="27" type="line" smooth="yes"/>
      <point x="246" y="27"/>
      <point x="224" y="31"/>
      <point x="224" y="52" type="curve" smooth="yes"/>
      <point x="224" y="340" type="line"/>
      <point x="244" y="337"/>
      <point x="261" y="336"/>
      <point x="278" y="334" type="curve" smooth="yes"/>
      <point x="294" y="332"/>
      <point x="311" y="330"/>
      <point x="328" y="330" type="curve" smooth="yes"/>
      <point x="465" y="330"/>
      <point x="607" y="365"/>
    </contour>
    <contour>
      <point x="501" y="531" type="curve" smooth="yes"/>
      <point x="501" y="421"/>
      <point x="442" y="359"/>
      <point x="331" y="359" type="curve" smooth="yes"/>
      <point x="301" y="359"/>
      <point x="251" y="361"/>
      <point x="223" y="381" type="curve"/>
      <point x="223" y="655" type="line" smooth="yes"/>
      <point x="223" y="668"/>
      <point x="238" y="677"/>
      <point x="252" y="677" type="curve" smooth="yes"/>
      <point x="279" y="677"/>
      <point x="306" y="678"/>
      <point x="333" y="678" type="curve" smooth="yes"/>
      <point x="429" y="678"/>
      <point x="501" y="634"/>
    </contour>
  </outline>
</glyph>
<glyph name="Q" format="2">
  <advance width="796"/>
  <unicode hex="0051"/>
  <note>
cid00050
</note>
  <outline>
    <contour>
      <point x="788" y="-43" type="curve" smooth="yes"/>
      <point x="788" y="-38"/>
      <point x="782" y="-36"/>
      <point x="780" y="-36" type="curve" smooth="yes"/>
      <point x="779" y="-36"/>
      <point x="778" y="-36"/>
      <point x="776" y="-38" type="curve" smooth="yes"/>
      <point x="775" y="-39"/>
      <point x="775" y="-40"/>
      <point x="773" y="-41" type="curve"/>
      <point x="772" y="-43"/>
      <point x="770" y="-45"/>
      <point x="768" y="-46" type="curve"/>
      <point x="767" y="-48"/>
      <point x="765" y="-49"/>
      <point x="763" y="-50" type="curve" smooth="yes"/>
      <point x="751" y="-58"/>
      <point x="721" y="-67"/>
      <point x="705" y="-67" type="curve" smooth="yes"/>
      <point x="630" y="-67"/>
      <point x="586" y="-27"/>
      <point x="542" y="28" type="curve"/>
      <point x="664" y="87"/>
      <point x="748" y="210"/>
      <point x="748" y="347" type="curve" smooth="yes"/>
      <point x="748" y="561"/>
      <point x="625" y="713"/>
      <point x="408" y="713" type="curve" smooth="yes"/>
      <point x="203" y="713"/>
      <point x="64" y="555"/>
      <point x="64" y="350" type="curve" smooth="yes"/>
      <point x="64" y="150"/>
      <point x="211" y="1"/>
      <point x="406" y="1" type="curve" smooth="yes"/>
      <point x="415" y="1"/>
      <point x="424" y="1"/>
      <point x="433" y="2" type="curve" smooth="yes"/>
      <point x="442" y="2"/>
      <point x="451" y="3"/>
      <point x="462" y="4" type="curve"/>
      <point x="520" y="-75"/>
      <point x="566" y="-116"/>
      <point x="664" y="-116" type="curve" smooth="yes"/>
      <point x="708" y="-116"/>
      <point x="750" y="-94"/>
      <point x="778" y="-59" type="curve" smooth="yes"/>
      <point x="780" y="-56"/>
      <point x="788" y="-46"/>
    </contour>
    <contour>
      <point x="639" y="347" type="curve" smooth="yes"/>
      <point x="639" y="260"/>
      <point x="627" y="167"/>
      <point x="567" y="99" type="curve" smooth="yes"/>
      <point x="561" y="92"/>
      <point x="553" y="85"/>
      <point x="545" y="78" type="curve" smooth="yes"/>
      <point x="518" y="57" type="line"/>
      <point x="494" y="98"/>
      <point x="468" y="135"/>
      <point x="442" y="169" type="curve" smooth="yes"/>
      <point x="412" y="208"/>
      <point x="381" y="229"/>
      <point x="334" y="229" type="curve" smooth="yes"/>
      <point x="285" y="229"/>
      <point x="243" y="193"/>
      <point x="213" y="145" type="curve"/>
      <point x="176" y="206"/>
      <point x="168" y="283"/>
      <point x="168" y="347" type="curve" smooth="yes"/>
      <point x="168" y="484"/>
      <point x="230" y="685"/>
      <point x="399" y="685" type="curve" smooth="yes"/>
      <point x="576" y="685"/>
      <point x="639" y="492"/>
    </contour>
    <contour>
      <point x="449" y="27" type="curve"/>
      <point x="413" y="27" type="line" smooth="yes"/>
      <point x="361" y="27"/>
      <point x="263" y="68"/>
      <point x="236" y="113" type="curve"/>
      <point x="241" y="143"/>
      <point x="277" y="188"/>
      <point x="312" y="188" type="curve" smooth="yes"/>
      <point x="328" y="188"/>
      <point x="340" y="185"/>
      <point x="353" y="176" type="curve" smooth="yes"/>
      <point x="377" y="158"/>
      <point x="430" y="61"/>
    </contour>
  </outline>
</glyph>
<glyph name="R" format="2">
  <advance width="697"/>
  <unicode hex="0052"/>
  <note>
cid00051
</note>
  <outline>
    <contour>
      <point x="700" y="13" type="curve" smooth="yes"/>
      <point x="700" y="18"/>
      <point x="695" y="21"/>
      <point x="688" y="21" type="curve" smooth="yes"/>
      <point x="677" y="21" type="line"/>
      <point x="666" y="21" type="line"/>
      <point x="634" y="28"/>
      <point x="613" y="45"/>
      <point x="595" y="71" type="curve" smooth="yes"/>
      <point x="528" y="166"/>
      <point x="462" y="263"/>
      <point x="402" y="365" type="curve"/>
      <point x="430" y="370"/>
      <point x="456" y="375"/>
      <point x="479" y="386" type="curve" smooth="yes"/>
      <point x="546" y="416"/>
      <point x="595" y="472"/>
      <point x="595" y="551" type="curve" smooth="yes"/>
      <point x="595" y="674"/>
      <point x="456" y="709"/>
      <point x="358" y="709" type="curve" smooth="yes"/>
      <point x="299" y="709"/>
      <point x="239" y="701"/>
      <point x="179" y="701" type="curve" smooth="yes"/>
      <point x="136" y="701"/>
      <point x="92" y="705"/>
      <point x="48" y="705" type="curve" smooth="yes"/>
      <point x="43" y="705"/>
      <point x="38" y="703"/>
      <point x="38" y="694" type="curve" smooth="yes"/>
      <point x="38" y="682"/>
      <point x="43" y="678"/>
      <point x="52" y="678" type="curve" smooth="yes"/>
      <point x="60" y="678"/>
      <point x="68" y="679"/>
      <point x="76" y="679" type="curve" smooth="yes"/>
      <point x="91" y="679" type="line" smooth="yes"/>
      <point x="97" y="679"/>
      <point x="103" y="678"/>
      <point x="107" y="676" type="curve"/>
      <point x="119" y="673"/>
      <point x="127" y="667"/>
      <point x="128" y="654" type="curve" smooth="yes"/>
      <point x="131" y="577"/>
      <point x="129" y="499"/>
      <point x="129" y="421" type="curve" smooth="yes"/>
      <point x="129" y="291" type="line" smooth="yes"/>
      <point x="129" y="211"/>
      <point x="130" y="130"/>
      <point x="128" y="50" type="curve" smooth="yes"/>
      <point x="127" y="26"/>
      <point x="95" y="25"/>
      <point x="78" y="25" type="curve" smooth="yes"/>
      <point x="67" y="25"/>
      <point x="56" y="26"/>
      <point x="45" y="26" type="curve" smooth="yes"/>
      <point x="39" y="26"/>
      <point x="34" y="22"/>
      <point x="34" y="13" type="curve" smooth="yes"/>
      <point x="34" y="7"/>
      <point x="36" y="-2"/>
      <point x="43" y="-2" type="curve" smooth="yes"/>
      <point x="74" y="-2"/>
      <point x="104" y="2"/>
      <point x="135" y="2" type="curve" smooth="yes"/>
      <point x="192" y="2"/>
      <point x="250" y="-2"/>
      <point x="308" y="-2" type="curve" smooth="yes"/>
      <point x="316" y="-2"/>
      <point x="323" y="0"/>
      <point x="323" y="11" type="curve" smooth="yes"/>
      <point x="323" y="18"/>
      <point x="322" y="28"/>
      <point x="314" y="28" type="curve" smooth="yes"/>
      <point x="297" y="28"/>
      <point x="279" y="26"/>
      <point x="262" y="26" type="curve" smooth="yes"/>
      <point x="246" y="26"/>
      <point x="227" y="31"/>
      <point x="227" y="50" type="curve" smooth="yes"/>
      <point x="227" y="356" type="line"/>
      <point x="310" y="358" type="line"/>
      <point x="369" y="253"/>
      <point x="427" y="149"/>
      <point x="490" y="47" type="curve" smooth="yes"/>
      <point x="519" y="0"/>
      <point x="547" y="-5"/>
      <point x="598" y="-5" type="curve" smooth="yes"/>
      <point x="611" y="-5"/>
      <point x="628" y="-4"/>
      <point x="644" y="-3" type="curve" smooth="yes"/>
      <point x="661" y="-2"/>
      <point x="677" y="0"/>
      <point x="690" y="3" type="curve"/>
      <point x="695" y="5"/>
      <point x="700" y="7"/>
    </contour>
    <contour>
      <point x="487" y="533" type="curve" smooth="yes"/>
      <point x="487" y="414"/>
      <point x="388" y="381"/>
      <point x="287" y="381" type="curve" smooth="yes"/>
      <point x="278" y="381"/>
      <point x="267" y="380"/>
      <point x="258" y="381" type="curve" smooth="yes"/>
      <point x="248" y="382"/>
      <point x="238" y="382"/>
      <point x="227" y="386" type="curve"/>
      <point x="227" y="654" type="line" smooth="yes"/>
      <point x="227" y="669"/>
      <point x="241" y="676"/>
      <point x="254" y="679" type="curve" smooth="yes"/>
      <point x="265" y="680"/>
      <point x="276" y="682"/>
      <point x="287" y="682" type="curve" smooth="yes"/>
      <point x="319" y="682" type="line" smooth="yes"/>
      <point x="424" y="682"/>
      <point x="487" y="648"/>
    </contour>
  </outline>
</glyph>
<glyph name="S" format="2">
  <advance width="582"/>
  <unicode hex="0053"/>
  <note>
cid00052
</note>
  <outline>
    <contour>
      <point x="546" y="179" type="curve" smooth="yes"/>
      <point x="546" y="299"/>
      <point x="449" y="348"/>
      <point x="351" y="391" type="curve" smooth="yes"/>
      <point x="326" y="402"/>
      <point x="302" y="414"/>
      <point x="279" y="424" type="curve" smooth="yes"/>
      <point x="255" y="436"/>
      <point x="234" y="447"/>
      <point x="215" y="460" type="curve" smooth="yes"/>
      <point x="178" y="486"/>
      <point x="153" y="519"/>
      <point x="153" y="566" type="curve" smooth="yes"/>
      <point x="153" y="647"/>
      <point x="200" y="691"/>
      <point x="281" y="691" type="curve" smooth="yes"/>
      <point x="391" y="691"/>
      <point x="441" y="635"/>
      <point x="456" y="535" type="curve" smooth="yes"/>
      <point x="457" y="531"/>
      <point x="457" y="528"/>
      <point x="457" y="526" type="curve"/>
      <point x="458" y="523"/>
      <point x="459" y="522"/>
      <point x="460" y="520" type="curve" smooth="yes"/>
      <point x="461" y="518"/>
      <point x="465" y="517"/>
      <point x="473" y="517" type="curve" smooth="yes"/>
      <point x="489" y="517"/>
      <point x="506" y="520"/>
      <point x="506" y="540" type="curve" smooth="yes"/>
      <point x="506" y="546"/>
      <point x="505" y="551"/>
      <point x="504" y="556" type="curve" smooth="yes"/>
      <point x="496" y="594"/>
      <point x="493" y="633"/>
      <point x="489" y="671" type="curve"/>
      <point x="465" y="673"/>
      <point x="440" y="678"/>
      <point x="418" y="686" type="curve" smooth="yes"/>
      <point x="374" y="703"/>
      <point x="334" y="715"/>
      <point x="287" y="715" type="curve" smooth="yes"/>
      <point x="179" y="715"/>
      <point x="63" y="657"/>
      <point x="63" y="532" type="curve" smooth="yes"/>
      <point x="63" y="458"/>
      <point x="140" y="399"/>
      <point x="200" y="371" type="curve" smooth="yes"/>
      <point x="242" y="351"/>
      <point x="281" y="330"/>
      <point x="322" y="310" type="curve" smooth="yes"/>
      <point x="333" y="304"/>
      <point x="345" y="299"/>
      <point x="356" y="293" type="curve" smooth="yes"/>
      <point x="401" y="267"/>
      <point x="444" y="222"/>
      <point x="444" y="166" type="curve" smooth="yes"/>
      <point x="444" y="58"/>
      <point x="370" y="21"/>
      <point x="273" y="21" type="curve" smooth="yes"/>
      <point x="159" y="21"/>
      <point x="125" y="78"/>
      <point x="105" y="178" type="curve" smooth="yes"/>
      <point x="102" y="195"/>
      <point x="96" y="202"/>
      <point x="82" y="202" type="curve" smooth="yes"/>
      <point x="63" y="202"/>
      <point x="57" y="194"/>
      <point x="57" y="173" type="curve" smooth="yes"/>
      <point x="57" y="164"/>
      <point x="58" y="155"/>
      <point x="60" y="145" type="curve" smooth="yes"/>
      <point x="65" y="110"/>
      <point x="73" y="75"/>
      <point x="78" y="40" type="curve"/>
      <point x="93" y="36"/>
      <point x="107" y="30"/>
      <point x="120" y="25" type="curve" smooth="yes"/>
      <point x="134" y="19"/>
      <point x="148" y="13"/>
      <point x="162" y="8" type="curve" smooth="yes"/>
      <point x="199" y="-5"/>
      <point x="236" y="-11"/>
      <point x="274" y="-11" type="curve" smooth="yes"/>
      <point x="393" y="-11"/>
      <point x="546" y="32"/>
    </contour>
  </outline>
</glyph>
<glyph name="T" format="2">
  <advance width="695"/>
  <unicode hex="0054"/>
  <note>
cid00053
</note>
  <outline>
    <contour>
      <point x="670" y="524" type="curve" smooth="yes"/>
      <point x="670" y="537"/>
      <point x="669" y="550"/>
      <point x="668" y="563" type="curve" smooth="yes"/>
      <point x="666" y="593"/>
      <point x="665" y="623"/>
      <point x="664" y="653" type="curve" smooth="yes"/>
      <point x="664" y="666"/>
      <point x="664" y="682"/>
      <point x="662" y="695" type="curve" smooth="yes"/>
      <point x="661" y="702"/>
      <point x="653" y="704"/>
      <point x="647" y="704" type="curve" smooth="yes"/>
      <point x="623" y="704"/>
      <point x="599" y="703"/>
      <point x="575" y="702" type="curve" smooth="yes"/>
      <point x="500" y="700"/>
      <point x="427" y="700"/>
      <point x="352" y="700" type="curve" smooth="yes"/>
      <point x="276" y="700"/>
      <point x="203" y="701"/>
      <point x="127" y="702" type="curve" smooth="yes"/>
      <point x="117" y="703"/>
      <point x="106" y="703"/>
      <point x="95" y="704" type="curve" smooth="yes"/>
      <point x="62" y="706" type="line"/>
      <point x="58" y="706" type="line" smooth="yes"/>
      <point x="51" y="706"/>
      <point x="46" y="704"/>
      <point x="45" y="695" type="curve" smooth="yes"/>
      <point x="44" y="682"/>
      <point x="44" y="669"/>
      <point x="44" y="657" type="curve" smooth="yes"/>
      <point x="43" y="628"/>
      <point x="44" y="600"/>
      <point x="41" y="571" type="curve" smooth="yes"/>
      <point x="40" y="555"/>
      <point x="36" y="536"/>
      <point x="36" y="521" type="curve" smooth="yes"/>
      <point x="36" y="511"/>
      <point x="39" y="510"/>
      <point x="46" y="510" type="curve" smooth="yes"/>
      <point x="50" y="510"/>
      <point x="53" y="511"/>
      <point x="56" y="515" type="curve" smooth="yes"/>
      <point x="58" y="519"/>
      <point x="62" y="539"/>
      <point x="67" y="561" type="curve" smooth="yes"/>
      <point x="71" y="582"/>
      <point x="76" y="605"/>
      <point x="79" y="615" type="curve" smooth="yes"/>
      <point x="90" y="648"/>
      <point x="103" y="663"/>
      <point x="123" y="671" type="curve" smooth="yes"/>
      <point x="132" y="674"/>
      <point x="143" y="675"/>
      <point x="155" y="675" type="curve" smooth="yes"/>
      <point x="233" y="675" type="line" smooth="yes"/>
      <point x="245" y="675"/>
      <point x="258" y="675"/>
      <point x="270" y="674" type="curve" smooth="yes"/>
      <point x="285" y="672"/>
      <point x="299" y="656"/>
      <point x="299" y="642" type="curve" smooth="yes"/>
      <point x="299" y="531"/>
      <point x="300" y="418"/>
      <point x="300" y="300" type="curve" smooth="yes"/>
      <point x="299" y="55" type="line" smooth="yes"/>
      <point x="299" y="27"/>
      <point x="245" y="24"/>
      <point x="229" y="24" type="curve"/>
      <point x="229" y="24"/>
      <point x="228" y="25"/>
      <point x="228" y="25" type="curve"/>
      <point x="221" y="25" type="line"/>
      <point x="215" y="25" type="line" smooth="yes"/>
      <point x="205" y="25"/>
      <point x="204" y="17"/>
      <point x="204" y="8" type="curve" smooth="yes"/>
      <point x="204" y="1"/>
      <point x="209" y="-3"/>
      <point x="213" y="-2" type="curve"/>
      <point x="260" y="0"/>
      <point x="306" y="2"/>
      <point x="353" y="2" type="curve" smooth="yes"/>
      <point x="400" y="2"/>
      <point x="472" y="-1"/>
      <point x="492" y="-1" type="curve" smooth="yes"/>
      <point x="498" y="-1"/>
      <point x="499" y="5"/>
      <point x="499" y="14" type="curve" smooth="yes"/>
      <point x="499" y="19" type="line" smooth="yes"/>
      <point x="499" y="21"/>
      <point x="499" y="22"/>
      <point x="498" y="23" type="curve" smooth="yes"/>
      <point x="497" y="25"/>
      <point x="494" y="26"/>
      <point x="489" y="26" type="curve" smooth="yes"/>
      <point x="480" y="26"/>
      <point x="471" y="25"/>
      <point x="462" y="25" type="curve" smooth="yes"/>
      <point x="446" y="25"/>
      <point x="404" y="28"/>
      <point x="404" y="55" type="curve" smooth="yes"/>
      <point x="403" y="250"/>
      <point x="402" y="442"/>
      <point x="402" y="637" type="curve" smooth="yes"/>
      <point x="402" y="658"/>
      <point x="415" y="668"/>
      <point x="432" y="673" type="curve" smooth="yes"/>
      <point x="441" y="675"/>
      <point x="450" y="675"/>
      <point x="459" y="675" type="curve" smooth="yes"/>
      <point x="510" y="675" type="line" smooth="yes"/>
      <point x="542" y="675"/>
      <point x="588" y="673"/>
      <point x="602" y="656" type="curve" smooth="yes"/>
      <point x="616" y="639"/>
      <point x="622" y="625"/>
      <point x="628" y="607" type="curve" smooth="yes"/>
      <point x="635" y="585"/>
      <point x="640" y="559"/>
      <point x="645" y="534" type="curve"/>
      <point x="645" y="532"/>
      <point x="646" y="528"/>
      <point x="647" y="524" type="curve" smooth="yes"/>
      <point x="647" y="520"/>
      <point x="648" y="517"/>
      <point x="649" y="515" type="curve" smooth="yes"/>
      <point x="651" y="511"/>
      <point x="655" y="510"/>
      <point x="659" y="510" type="curve" smooth="yes"/>
      <point x="668" y="510"/>
      <point x="670" y="516"/>
    </contour>
  </outline>
</glyph>
<glyph name="U" format="2">
  <advance width="739"/>
  <unicode hex="0055"/>
  <note>
cid00054
</note>
  <outline>
    <contour>
      <point x="731" y="688" type="curve" smooth="yes"/>
      <point x="731" y="697"/>
      <point x="731" y="702"/>
      <point x="724" y="704" type="curve"/>
      <point x="676" y="700"/>
      <point x="626" y="698"/>
      <point x="578" y="698" type="curve" smooth="yes"/>
      <point x="559" y="698"/>
      <point x="540" y="701"/>
      <point x="522" y="701" type="curve" smooth="yes"/>
      <point x="516" y="701"/>
      <point x="513" y="700"/>
      <point x="512" y="697" type="curve"/>
      <point x="511" y="696"/>
      <point x="511" y="694"/>
      <point x="511" y="692" type="curve" smooth="yes"/>
      <point x="511" y="690"/>
      <point x="511" y="688"/>
      <point x="511" y="686" type="curve" smooth="yes"/>
      <point x="511" y="678" type="line"/>
      <point x="512" y="676"/>
      <point x="514" y="673"/>
      <point x="517" y="673" type="curve" smooth="yes"/>
      <point x="533" y="673"/>
      <point x="549" y="675"/>
      <point x="565" y="675" type="curve" smooth="yes"/>
      <point x="580" y="675"/>
      <point x="605" y="668"/>
      <point x="605" y="650" type="curve" smooth="yes"/>
      <point x="605" y="520"/>
      <point x="606" y="391"/>
      <point x="606" y="262" type="curve" smooth="yes"/>
      <point x="606" y="128"/>
      <point x="554" y="26"/>
      <point x="404" y="26" type="curve" smooth="yes"/>
      <point x="248" y="26"/>
      <point x="222" y="100"/>
      <point x="222" y="236" type="curve" smooth="yes"/>
      <point x="222" y="353"/>
      <point x="224" y="470"/>
      <point x="224" y="587" type="curve" smooth="yes"/>
      <point x="224" y="609"/>
      <point x="223" y="633"/>
      <point x="225" y="655" type="curve" smooth="yes"/>
      <point x="227" y="670"/>
      <point x="250" y="679"/>
      <point x="265" y="679" type="curve" smooth="yes"/>
      <point x="281" y="679"/>
      <point x="297" y="678"/>
      <point x="313" y="678" type="curve" smooth="yes"/>
      <point x="321" y="678"/>
      <point x="323" y="686"/>
      <point x="323" y="693" type="curve" smooth="yes"/>
      <point x="323" y="703"/>
      <point x="317" y="705"/>
      <point x="310" y="704" type="curve"/>
      <point x="265" y="704"/>
      <point x="220" y="700"/>
      <point x="175" y="700" type="curve" smooth="yes"/>
      <point x="146" y="700"/>
      <point x="118" y="701"/>
      <point x="89" y="702" type="curve" smooth="yes"/>
      <point x="76" y="703"/>
      <point x="62" y="704"/>
      <point x="49" y="704" type="curve" smooth="yes"/>
      <point x="43" y="704"/>
      <point x="36" y="703"/>
      <point x="36" y="694" type="curve" smooth="yes"/>
      <point x="36" y="688" type="line" smooth="yes"/>
      <point x="36" y="686"/>
      <point x="37" y="685"/>
      <point x="37" y="683" type="curve"/>
      <point x="39" y="681"/>
      <point x="41" y="679"/>
      <point x="44" y="679" type="curve" smooth="yes"/>
      <point x="49" y="679"/>
      <point x="57" y="680"/>
      <point x="65" y="680" type="curve" smooth="yes"/>
      <point x="74" y="681"/>
      <point x="83" y="681"/>
      <point x="92" y="680" type="curve" smooth="yes"/>
      <point x="109" y="677"/>
      <point x="125" y="671"/>
      <point x="125" y="654" type="curve" smooth="yes"/>
      <point x="126" y="635"/>
      <point x="125" y="616"/>
      <point x="125" y="597" type="curve" smooth="yes"/>
      <point x="125" y="251" type="line" smooth="yes"/>
      <point x="125" y="72"/>
      <point x="229" y="-8"/>
      <point x="400" y="-8" type="curve" smooth="yes"/>
      <point x="574" y="-8"/>
      <point x="645" y="95"/>
      <point x="645" y="265" type="curve" smooth="yes"/>
      <point x="645" y="371"/>
      <point x="642" y="476"/>
      <point x="642" y="582" type="curve" smooth="yes"/>
      <point x="642" y="605"/>
      <point x="642" y="627"/>
      <point x="643" y="650" type="curve" smooth="yes"/>
      <point x="643" y="664"/>
      <point x="653" y="671"/>
      <point x="665" y="674" type="curve" smooth="yes"/>
      <point x="671" y="675"/>
      <point x="678" y="675"/>
      <point x="685" y="675" type="curve" smooth="yes"/>
      <point x="701" y="675" type="line" smooth="yes"/>
      <point x="705" y="675"/>
      <point x="709" y="675"/>
      <point x="713" y="674" type="curve"/>
      <point x="722" y="674" type="line"/>
      <point x="726" y="676"/>
      <point x="731" y="678"/>
    </contour>
  </outline>
</glyph>
<glyph name="V" format="2">
  <advance width="748"/>
  <unicode hex="0056"/>
  <note>
cid00055
</note>
  <outline>
    <contour>
      <point x="738" y="689" type="curve" smooth="yes"/>
      <point x="738" y="698" type="line"/>
      <point x="737" y="700"/>
      <point x="735" y="703"/>
      <point x="730" y="703" type="curve" smooth="yes"/>
      <point x="697" y="703"/>
      <point x="665" y="699"/>
      <point x="631" y="699" type="curve" smooth="yes"/>
      <point x="601" y="699"/>
      <point x="570" y="700"/>
      <point x="539" y="700" type="curve" smooth="yes"/>
      <point x="536" y="700" type="line" smooth="yes"/>
      <point x="534" y="700"/>
      <point x="533" y="701"/>
      <point x="532" y="701" type="curve" smooth="yes"/>
      <point x="530" y="701"/>
      <point x="529" y="700"/>
      <point x="528" y="700" type="curve" smooth="yes"/>
      <point x="527" y="700" type="line"/>
      <point x="524" y="698"/>
      <point x="522" y="696"/>
      <point x="522" y="689" type="curve" smooth="yes"/>
      <point x="522" y="684"/>
      <point x="525" y="679"/>
      <point x="530" y="679" type="curve" smooth="yes"/>
      <point x="541" y="679"/>
      <point x="552" y="681"/>
      <point x="563" y="681" type="curve" smooth="yes"/>
      <point x="578" y="681" type="line" smooth="yes"/>
      <point x="583" y="681"/>
      <point x="589" y="680"/>
      <point x="595" y="679" type="curve" smooth="yes"/>
      <point x="605" y="676"/>
      <point x="613" y="670"/>
      <point x="613" y="657" type="curve" smooth="yes"/>
      <point x="613" y="653" type="line"/>
      <point x="553" y="466"/>
      <point x="489" y="280"/>
      <point x="421" y="84" type="curve"/>
      <point x="352" y="270"/>
      <point x="287" y="445"/>
      <point x="228" y="623" type="curve" smooth="yes"/>
      <point x="216" y="659" type="line"/>
      <point x="216" y="671"/>
      <point x="225" y="677"/>
      <point x="236" y="679" type="curve" smooth="yes"/>
      <point x="253" y="680" type="line"/>
      <point x="267" y="680" type="line" smooth="yes"/>
      <point x="273" y="680"/>
      <point x="279" y="679"/>
      <point x="284" y="678" type="curve" smooth="yes"/>
      <point x="289" y="677"/>
      <point x="295" y="677"/>
      <point x="300" y="677" type="curve" smooth="yes"/>
      <point x="309" y="677"/>
      <point x="311" y="682"/>
      <point x="311" y="690" type="curve" smooth="yes"/>
      <point x="311" y="699"/>
      <point x="307" y="702"/>
      <point x="300" y="702" type="curve" smooth="yes"/>
      <point x="255" y="702"/>
      <point x="210" y="699"/>
      <point x="165" y="699" type="curve" smooth="yes"/>
      <point x="123" y="699"/>
      <point x="82" y="698"/>
      <point x="39" y="700" type="curve"/>
      <point x="33" y="701"/>
      <point x="29" y="699"/>
      <point x="29" y="687" type="curve" smooth="yes"/>
      <point x="29" y="680"/>
      <point x="33" y="677"/>
      <point x="37" y="676" type="curve" smooth="yes"/>
      <point x="39" y="676"/>
      <point x="41" y="675"/>
      <point x="43" y="675" type="curve" smooth="yes"/>
      <point x="51" y="675" type="line" smooth="yes"/>
      <point x="76" y="675"/>
      <point x="91" y="674"/>
      <point x="108" y="651" type="curve" smooth="yes"/>
      <point x="120" y="634"/>
      <point x="130" y="611"/>
      <point x="137" y="591" type="curve" smooth="yes"/>
      <point x="187" y="456"/>
      <point x="238" y="321"/>
      <point x="289" y="186" type="curve" smooth="yes"/>
      <point x="311" y="128"/>
      <point x="332" y="69"/>
      <point x="355" y="10" type="curve" smooth="yes"/>
      <point x="360" y="-4"/>
      <point x="370" y="-9"/>
      <point x="383" y="-9" type="curve" smooth="yes"/>
      <point x="422" y="-9" type="line"/>
      <point x="474" y="139"/>
      <point x="527" y="286"/>
      <point x="579" y="433" type="curve" smooth="yes"/>
      <point x="605" y="506"/>
      <point x="630" y="580"/>
      <point x="656" y="653" type="curve" smooth="yes"/>
      <point x="663" y="673"/>
      <point x="685" y="680"/>
      <point x="702" y="680" type="curve" smooth="yes"/>
      <point x="707" y="680"/>
      <point x="712" y="679"/>
      <point x="717" y="679" type="curve" smooth="yes"/>
      <point x="729" y="679" type="line" smooth="yes"/>
      <point x="736" y="679"/>
      <point x="738" y="683"/>
    </contour>
  </outline>
</glyph>
<glyph name="W" format="2">
  <advance width="987"/>
  <unicode hex="0057"/>
  <note>
cid00056
</note>
  <outline>
    <contour>
      <point x="977" y="690" type="curve" smooth="yes"/>
      <point x="977" y="696"/>
      <point x="975" y="704"/>
      <point x="969" y="704" type="curve" smooth="yes"/>
      <point x="941" y="704"/>
      <point x="914" y="701"/>
      <point x="886" y="701" type="curve" smooth="yes"/>
      <point x="854" y="701"/>
      <point x="821" y="702"/>
      <point x="789" y="702" type="curve"/>
      <point x="780" y="703"/>
      <point x="770" y="704"/>
      <point x="761" y="704" type="curve" smooth="yes"/>
      <point x="757" y="704"/>
      <point x="751" y="701"/>
      <point x="751" y="694" type="curve" smooth="yes"/>
      <point x="751" y="688" type="line" smooth="yes"/>
      <point x="751" y="687"/>
      <point x="751" y="685"/>
      <point x="752" y="684" type="curve"/>
      <point x="753" y="681"/>
      <point x="755" y="680"/>
      <point x="760" y="680" type="curve" smooth="yes"/>
      <point x="777" y="680"/>
      <point x="794" y="682"/>
      <point x="811" y="682" type="curve" smooth="yes"/>
      <point x="826" y="682"/>
      <point x="846" y="679"/>
      <point x="846" y="661" type="curve" smooth="yes"/>
      <point x="846" y="643"/>
      <point x="844" y="625"/>
      <point x="841" y="607" type="curve" smooth="yes"/>
      <point x="830" y="539"/>
      <point x="815" y="473"/>
      <point x="801" y="405" type="curve" smooth="yes"/>
      <point x="781" y="304"/>
      <point x="759" y="204"/>
      <point x="733" y="90" type="curve"/>
      <point x="618" y="488" type="line" smooth="yes"/>
      <point x="605" y="531"/>
      <point x="594" y="574"/>
      <point x="581" y="617" type="curve" smooth="yes"/>
      <point x="575" y="638"/>
      <point x="569" y="661"/>
      <point x="562" y="682" type="curve" smooth="yes"/>
      <point x="558" y="693"/>
      <point x="549" y="697"/>
      <point x="538" y="697" type="curve" smooth="yes"/>
      <point x="525" y="697"/>
      <point x="521" y="693"/>
      <point x="516" y="678" type="curve" smooth="yes"/>
      <point x="498" y="623"/>
      <point x="482" y="568"/>
      <point x="464" y="512" type="curve" smooth="yes"/>
      <point x="421" y="379"/>
      <point x="377" y="245"/>
      <point x="326" y="99" type="curve"/>
      <point x="303" y="225"/>
      <point x="280" y="338"/>
      <point x="259" y="450" type="curve" smooth="yes"/>
      <point x="247" y="512"/>
      <point x="236" y="588"/>
      <point x="226" y="633" type="curve" smooth="yes"/>
      <point x="225" y="639"/>
      <point x="224" y="646"/>
      <point x="224" y="652" type="curve" smooth="yes"/>
      <point x="224" y="665"/>
      <point x="230" y="671"/>
      <point x="240" y="675" type="curve" smooth="yes"/>
      <point x="248" y="678"/>
      <point x="259" y="677"/>
      <point x="269" y="677" type="curve" smooth="yes"/>
      <point x="303" y="676" type="line" smooth="yes"/>
      <point x="308" y="676"/>
      <point x="315" y="679"/>
      <point x="315" y="688" type="curve" smooth="yes"/>
      <point x="315" y="697"/>
      <point x="309" y="703"/>
      <point x="303" y="703" type="curve" smooth="yes"/>
      <point x="281" y="703"/>
      <point x="260" y="700"/>
      <point x="238" y="700" type="curve" smooth="yes"/>
      <point x="192" y="700" type="line"/>
      <point x="90" y="700" type="line"/>
      <point x="82" y="701"/>
      <point x="75" y="701"/>
      <point x="69" y="702" type="curve" smooth="yes"/>
      <point x="62" y="703"/>
      <point x="55" y="704"/>
      <point x="47" y="704" type="curve" smooth="yes"/>
      <point x="41" y="704"/>
      <point x="37" y="701"/>
      <point x="37" y="692" type="curve" smooth="yes"/>
      <point x="37" y="682"/>
      <point x="38" y="673"/>
      <point x="49" y="674" type="curve" smooth="yes"/>
      <point x="71" y="674" type="line"/>
      <point x="74" y="673"/>
      <point x="78" y="673"/>
      <point x="81" y="672" type="curve"/>
      <point x="85" y="672"/>
      <point x="88" y="671"/>
      <point x="91" y="670" type="curve" smooth="yes"/>
      <point x="104" y="666"/>
      <point x="113" y="656"/>
      <point x="118" y="637" type="curve" smooth="yes"/>
      <point x="131" y="586"/>
      <point x="140" y="537"/>
      <point x="151" y="486" type="curve" smooth="yes"/>
      <point x="219" y="165" type="line" smooth="yes"/>
      <point x="229" y="119"/>
      <point x="244" y="41"/>
      <point x="255" y="-5" type="curve"/>
      <point x="331" y="-5" type="line"/>
      <point x="387" y="151"/>
      <point x="452" y="348"/>
      <point x="509" y="518" type="curve"/>
      <point x="561" y="349"/>
      <point x="624" y="141"/>
      <point x="665" y="-5" type="curve"/>
      <point x="750" y="-5" type="line"/>
      <point x="798" y="201"/>
      <point x="843" y="405"/>
      <point x="890" y="610" type="curve" smooth="yes"/>
      <point x="894" y="626"/>
      <point x="899" y="649"/>
      <point x="908" y="662" type="curve" smooth="yes"/>
      <point x="913" y="670"/>
      <point x="918" y="674"/>
      <point x="924" y="676" type="curve"/>
      <point x="926" y="676"/>
      <point x="930" y="677"/>
      <point x="933" y="677" type="curve" smooth="yes"/>
      <point x="945" y="677" type="line" smooth="yes"/>
      <point x="949" y="677"/>
      <point x="953" y="676"/>
      <point x="957" y="676" type="curve" smooth="yes"/>
      <point x="958" y="676"/>
      <point x="960" y="675"/>
      <point x="961" y="675" type="curve" smooth="yes"/>
      <point x="967" y="675" type="line" smooth="yes"/>
      <point x="973" y="675"/>
      <point x="977" y="684"/>
    </contour>
  </outline>
</glyph>
<glyph name="X" format="2">
  <advance width="754"/>
  <unicode hex="0058"/>
  <note>
cid00057
</note>
  <outline>
    <contour>
      <point x="757" y="11" type="curve" smooth="yes"/>
      <point x="757" y="19"/>
      <point x="754" y="28"/>
      <point x="744" y="28" type="curve" smooth="yes"/>
      <point x="735" y="28"/>
      <point x="727" y="26"/>
      <point x="718" y="26" type="curve" smooth="yes"/>
      <point x="697" y="26"/>
      <point x="674" y="28"/>
      <point x="660" y="45" type="curve" smooth="yes"/>
      <point x="652" y="55" type="line" smooth="yes"/>
      <point x="620" y="95"/>
      <point x="591" y="136"/>
      <point x="562" y="178" type="curve" smooth="yes"/>
      <point x="516" y="244"/>
      <point x="471" y="310"/>
      <point x="425" y="377" type="curve"/>
      <point x="488" y="461"/>
      <point x="550" y="545"/>
      <point x="608" y="631" type="curve" smooth="yes"/>
      <point x="615" y="642"/>
      <point x="629" y="656"/>
      <point x="640" y="663" type="curve" smooth="yes"/>
      <point x="652" y="670"/>
      <point x="666" y="672"/>
      <point x="679" y="673" type="curve" smooth="yes"/>
      <point x="685" y="673"/>
      <point x="692" y="672"/>
      <point x="698" y="674" type="curve"/>
      <point x="704" y="674"/>
      <point x="711" y="674"/>
      <point x="716" y="677" type="curve" smooth="yes"/>
      <point x="720" y="679"/>
      <point x="723" y="684"/>
      <point x="723" y="690" type="curve" smooth="yes"/>
      <point x="723" y="702"/>
      <point x="718" y="704"/>
      <point x="709" y="704" type="curve" smooth="yes"/>
      <point x="701" y="704"/>
      <point x="692" y="703"/>
      <point x="683" y="702" type="curve" smooth="yes"/>
      <point x="674" y="701"/>
      <point x="665" y="701"/>
      <point x="656" y="700" type="curve" smooth="yes"/>
      <point x="619" y="699"/>
      <point x="582" y="699"/>
      <point x="546" y="699" type="curve" smooth="yes"/>
      <point x="529" y="699"/>
      <point x="512" y="701"/>
      <point x="496" y="701" type="curve" smooth="yes"/>
      <point x="490" y="701"/>
      <point x="483" y="698"/>
      <point x="483" y="689" type="curve" smooth="yes"/>
      <point x="483" y="677"/>
      <point x="486" y="676"/>
      <point x="495" y="676" type="curve" smooth="yes"/>
      <point x="510" y="676"/>
      <point x="525" y="678"/>
      <point x="540" y="678" type="curve" smooth="yes"/>
      <point x="548" y="678"/>
      <point x="567" y="677"/>
      <point x="567" y="665" type="curve" smooth="yes"/>
      <point x="567" y="647"/>
      <point x="535" y="591"/>
      <point x="499" y="534" type="curve" smooth="yes"/>
      <point x="464" y="479"/>
      <point x="426" y="423"/>
      <point x="409" y="397" type="curve"/>
      <point x="353" y="494"/>
      <point x="299" y="583"/>
      <point x="244" y="673" type="curve" smooth="yes"/>
      <point x="240" y="679"/>
      <point x="236" y="686"/>
      <point x="231" y="692" type="curve" smooth="yes"/>
      <point x="226" y="698"/>
      <point x="220" y="703"/>
      <point x="211" y="703" type="curve" smooth="yes"/>
      <point x="202" y="703"/>
      <point x="194" y="702"/>
      <point x="185" y="701" type="curve" smooth="yes"/>
      <point x="176" y="701"/>
      <point x="167" y="700"/>
      <point x="159" y="699" type="curve" smooth="yes"/>
      <point x="104" y="696" type="line" smooth="yes"/>
      <point x="84" y="695"/>
      <point x="65" y="694"/>
      <point x="52" y="691" type="curve"/>
      <point x="47" y="691"/>
      <point x="44" y="688"/>
      <point x="43" y="684" type="curve" smooth="yes"/>
      <point x="42" y="681"/>
      <point x="42" y="677"/>
      <point x="42" y="672" type="curve" smooth="yes"/>
      <point x="42" y="663"/>
      <point x="53" y="661"/>
      <point x="59" y="661" type="curve" smooth="yes"/>
      <point x="74" y="661"/>
      <point x="88" y="663"/>
      <point x="102" y="663" type="curve" smooth="yes"/>
      <point x="124" y="663"/>
      <point x="132" y="659"/>
      <point x="144" y="641" type="curve" smooth="yes"/>
      <point x="215" y="536"/>
      <point x="283" y="429"/>
      <point x="354" y="322" type="curve"/>
      <point x="305" y="249"/>
      <point x="251" y="180"/>
      <point x="197" y="111" type="curve" smooth="yes"/>
      <point x="179" y="88"/>
      <point x="158" y="67"/>
      <point x="136" y="47" type="curve" smooth="yes"/>
      <point x="111" y="25"/>
      <point x="88" y="24"/>
      <point x="56" y="24" type="curve" smooth="yes"/>
      <point x="36" y="24" type="line"/>
      <point x="31" y="22"/>
      <point x="26" y="20"/>
      <point x="26" y="10" type="curve" smooth="yes"/>
      <point x="26" y="1"/>
      <point x="32" y="-4"/>
      <point x="39" y="-4" type="curve" smooth="yes"/>
      <point x="84" y="-4"/>
      <point x="130" y="1"/>
      <point x="175" y="1" type="curve" smooth="yes"/>
      <point x="201" y="1"/>
      <point x="226" y="-3"/>
      <point x="252" y="-3" type="curve" smooth="yes"/>
      <point x="262" y="-3"/>
      <point x="273" y="-2"/>
      <point x="283" y="-2" type="curve" smooth="yes"/>
      <point x="294" y="-2"/>
      <point x="298" y="1"/>
      <point x="298" y="14" type="curve" smooth="yes"/>
      <point x="298" y="20"/>
      <point x="288" y="23"/>
      <point x="284" y="23" type="curve" smooth="yes"/>
      <point x="266" y="23" type="line" smooth="yes"/>
      <point x="258" y="23"/>
      <point x="249" y="23"/>
      <point x="241" y="24" type="curve" smooth="yes"/>
      <point x="225" y="27"/>
      <point x="211" y="33"/>
      <point x="211" y="48" type="curve" smooth="yes"/>
      <point x="211" y="54"/>
      <point x="247" y="110"/>
      <point x="284" y="167" type="curve" smooth="yes"/>
      <point x="372" y="299" type="line"/>
      <point x="433" y="203"/>
      <point x="500" y="109"/>
      <point x="545" y="13" type="curve" smooth="yes"/>
      <point x="551" y="0"/>
      <point x="557" y="-3"/>
      <point x="569" y="-3" type="curve" smooth="yes"/>
      <point x="623" y="-3" type="line" smooth="yes"/>
      <point x="642" y="-3"/>
      <point x="660" y="-2"/>
      <point x="679" y="-2" type="curve" smooth="yes"/>
      <point x="699" y="-3"/>
      <point x="719" y="-5"/>
      <point x="739" y="-5" type="curve" smooth="yes"/>
      <point x="747" y="-5"/>
      <point x="757" y="-1"/>
    </contour>
  </outline>
</glyph>
<glyph name="Y" format="2">
  <advance width="704"/>
  <unicode hex="0059"/>
  <note>
cid00058
</note>
  <outline>
    <contour>
      <point x="695" y="691" type="curve" smooth="yes"/>
      <point x="695" y="696"/>
      <point x="691" y="705"/>
      <point x="684" y="705" type="curve" smooth="yes"/>
      <point x="657" y="705"/>
      <point x="633" y="703"/>
      <point x="606" y="703" type="curve" smooth="yes"/>
      <point x="571" y="703"/>
      <point x="535" y="705"/>
      <point x="499" y="705" type="curve" smooth="yes"/>
      <point x="491" y="705"/>
      <point x="482" y="704"/>
      <point x="482" y="693" type="curve" smooth="yes"/>
      <point x="482" y="686"/>
      <point x="484" y="680"/>
      <point x="492" y="680" type="curve" smooth="yes"/>
      <point x="509" y="680"/>
      <point x="526" y="682"/>
      <point x="542" y="682" type="curve" smooth="yes"/>
      <point x="552" y="682"/>
      <point x="561" y="679"/>
      <point x="561" y="668" type="curve" smooth="yes"/>
      <point x="561" y="660"/>
      <point x="548" y="632"/>
      <point x="530" y="596" type="curve" smooth="yes"/>
      <point x="485" y="508"/>
      <point x="404" y="370"/>
      <point x="381" y="333" type="curve"/>
      <point x="326" y="451"/>
      <point x="277" y="554"/>
      <point x="221" y="657" type="curve" smooth="yes"/>
      <point x="214" y="670"/>
      <point x="207" y="682"/>
      <point x="200" y="694" type="curve" smooth="yes"/>
      <point x="191" y="708"/>
      <point x="182" y="710"/>
      <point x="174" y="710" type="curve" smooth="yes"/>
      <point x="170" y="710"/>
      <point x="164" y="709"/>
      <point x="158" y="709" type="curve"/>
      <point x="152" y="707"/>
      <point x="146" y="707"/>
      <point x="142" y="707" type="curve"/>
      <point x="107" y="702"/>
      <point x="71" y="698"/>
      <point x="36" y="695" type="curve" smooth="yes"/>
      <point x="30" y="694"/>
      <point x="25" y="693"/>
      <point x="25" y="687" type="curve" smooth="yes"/>
      <point x="25" y="676" type="line"/>
      <point x="26" y="673"/>
      <point x="28" y="671"/>
      <point x="34" y="671" type="curve" smooth="yes"/>
      <point x="40" y="671"/>
      <point x="46" y="672"/>
      <point x="51" y="672" type="curve" smooth="yes"/>
      <point x="57" y="673"/>
      <point x="64" y="674"/>
      <point x="70" y="674" type="curve" smooth="yes"/>
      <point x="86" y="674"/>
      <point x="99" y="666"/>
      <point x="109" y="653" type="curve" smooth="yes"/>
      <point x="118" y="642"/>
      <point x="126" y="630"/>
      <point x="132" y="618" type="curve" smooth="yes"/>
      <point x="178" y="533"/>
      <point x="231" y="442"/>
      <point x="270" y="363" type="curve" smooth="yes"/>
      <point x="295" y="313"/>
      <point x="305" y="273"/>
      <point x="305" y="215" type="curve" smooth="yes"/>
      <point x="305" y="50" type="line" smooth="yes"/>
      <point x="305" y="36"/>
      <point x="295" y="29"/>
      <point x="282" y="26" type="curve" smooth="yes"/>
      <point x="275" y="25"/>
      <point x="268" y="25"/>
      <point x="262" y="25" type="curve" smooth="yes"/>
      <point x="246" y="25" type="line" smooth="yes"/>
      <point x="237" y="25"/>
      <point x="228" y="26"/>
      <point x="219" y="26" type="curve" smooth="yes"/>
      <point x="213" y="26"/>
      <point x="205" y="22"/>
      <point x="205" y="15" type="curve" smooth="yes"/>
      <point x="205" y="3"/>
      <point x="211" y="1"/>
      <point x="218" y="1" type="curve" smooth="yes"/>
      <point x="248" y="1"/>
      <point x="309" y="4"/>
      <point x="363" y="4" type="curve" smooth="yes"/>
      <point x="388" y="4"/>
      <point x="427" y="4"/>
      <point x="453" y="3" type="curve" smooth="yes"/>
      <point x="466" y="2"/>
      <point x="480" y="2"/>
      <point x="493" y="2" type="curve" smooth="yes"/>
      <point x="505" y="2"/>
      <point x="506" y="8"/>
      <point x="506" y="17" type="curve" smooth="yes"/>
      <point x="506" y="22"/>
      <point x="505" y="28"/>
      <point x="498" y="28" type="curve" smooth="yes"/>
      <point x="479" y="28"/>
      <point x="461" y="25"/>
      <point x="442" y="25" type="curve" smooth="yes"/>
      <point x="423" y="25"/>
      <point x="414" y="33"/>
      <point x="410" y="44" type="curve" smooth="yes"/>
      <point x="408" y="49"/>
      <point x="408" y="55"/>
      <point x="407" y="62" type="curve" smooth="yes"/>
      <point x="406" y="68"/>
      <point x="406" y="75"/>
      <point x="406" y="82" type="curve" smooth="yes"/>
      <point x="406" y="236" type="line" smooth="yes"/>
      <point x="406" y="261"/>
      <point x="406" y="286"/>
      <point x="407" y="311" type="curve"/>
      <point x="473" y="423"/>
      <point x="538" y="535"/>
      <point x="603" y="647" type="curve" smooth="yes"/>
      <point x="608" y="655"/>
      <point x="618" y="669"/>
      <point x="628" y="674" type="curve" smooth="yes"/>
      <point x="634" y="676"/>
      <point x="641" y="677"/>
      <point x="648" y="678" type="curve" smooth="yes"/>
      <point x="655" y="679"/>
      <point x="661" y="679"/>
      <point x="668" y="679" type="curve" smooth="yes"/>
      <point x="671" y="679"/>
      <point x="674" y="678"/>
      <point x="678" y="678" type="curve" smooth="yes"/>
      <point x="681" y="678"/>
      <point x="684" y="678"/>
      <point x="687" y="679" type="curve" smooth="yes"/>
      <point x="690" y="680"/>
      <point x="695" y="682"/>
    </contour>
  </outline>
</glyph>
<glyph name="Z" format="2">
  <advance width="652"/>
  <unicode hex="005A"/>
  <note>
cid00059
</note>
  <outline>
    <contour>
      <point x="613" y="219" type="curve" smooth="yes"/>
      <point x="613" y="227"/>
      <point x="607" y="230"/>
      <point x="602" y="230" type="curve" smooth="yes"/>
      <point x="597" y="230"/>
      <point x="595" y="228"/>
      <point x="593" y="226" type="curve" smooth="yes"/>
      <point x="590" y="222" type="line"/>
      <point x="590" y="220"/>
      <point x="589" y="217"/>
      <point x="588" y="215" type="curve"/>
      <point x="567" y="139"/>
      <point x="515" y="55"/>
      <point x="427" y="46" type="curve" smooth="yes"/>
      <point x="374" y="41"/>
      <point x="319" y="40"/>
      <point x="266" y="40" type="curve" smooth="yes"/>
      <point x="261" y="40"/>
      <point x="256" y="39"/>
      <point x="249" y="39" type="curve" smooth="yes"/>
      <point x="243" y="39"/>
      <point x="236" y="38"/>
      <point x="229" y="38" type="curve" smooth="yes"/>
      <point x="222" y="39"/>
      <point x="215" y="39"/>
      <point x="209" y="39" type="curve" smooth="yes"/>
      <point x="202" y="40"/>
      <point x="197" y="40"/>
      <point x="192" y="41" type="curve" smooth="yes"/>
      <point x="183" y="44"/>
      <point x="169" y="49"/>
      <point x="169" y="62" type="curve" smooth="yes"/>
      <point x="169" y="70"/>
      <point x="174" y="80"/>
      <point x="181" y="91" type="curve" smooth="yes"/>
      <point x="187" y="101"/>
      <point x="195" y="111"/>
      <point x="199" y="117" type="curve" smooth="yes"/>
      <point x="584" y="660" type="line"/>
      <point x="588" y="664"/>
      <point x="591" y="668"/>
      <point x="593" y="673" type="curve" smooth="yes"/>
      <point x="595" y="678"/>
      <point x="597" y="682"/>
      <point x="597" y="687" type="curve" smooth="yes"/>
      <point x="597" y="698"/>
      <point x="592" y="701"/>
      <point x="587" y="703" type="curve" smooth="yes"/>
      <point x="583" y="705"/>
      <point x="579" y="705"/>
      <point x="576" y="705" type="curve" smooth="yes"/>
      <point x="565" y="705" type="line" smooth="yes"/>
      <point x="443" y="705"/>
      <point x="322" y="704"/>
      <point x="200" y="700" type="curve" smooth="yes"/>
      <point x="148" y="700" type="line" smooth="yes"/>
      <point x="132" y="700"/>
      <point x="116" y="701"/>
      <point x="100" y="701" type="curve" smooth="yes"/>
      <point x="88" y="701"/>
      <point x="73" y="696"/>
      <point x="70" y="682" type="curve" smooth="yes"/>
      <point x="69" y="674"/>
      <point x="69" y="665"/>
      <point x="69" y="657" type="curve" smooth="yes"/>
      <point x="67" y="626"/>
      <point x="66" y="595"/>
      <point x="65" y="563" type="curve" smooth="yes"/>
      <point x="64" y="549"/>
      <point x="63" y="535"/>
      <point x="63" y="521" type="curve" smooth="yes"/>
      <point x="63" y="513"/>
      <point x="68" y="512"/>
      <point x="74" y="512" type="curve" smooth="yes"/>
      <point x="85" y="512"/>
      <point x="89" y="521"/>
      <point x="91" y="530" type="curve" smooth="yes"/>
      <point x="94" y="544"/>
      <point x="97" y="557"/>
      <point x="103" y="571" type="curve" smooth="yes"/>
      <point x="119" y="612"/>
      <point x="155" y="652"/>
      <point x="200" y="666" type="curve" smooth="yes"/>
      <point x="231" y="675"/>
      <point x="360" y="677"/>
      <point x="398" y="677" type="curve" smooth="yes"/>
      <point x="409" y="677"/>
      <point x="453" y="675"/>
      <point x="453" y="658" type="curve" smooth="yes"/>
      <point x="453" y="639"/>
      <point x="437" y="614"/>
      <point x="428" y="599" type="curve" smooth="yes"/>
      <point x="346" y="470"/>
      <point x="258" y="345"/>
      <point x="169" y="221" type="curve" smooth="yes"/>
      <point x="82" y="99" type="line"/>
      <point x="46" y="48" type="line" smooth="yes"/>
      <point x="43" y="43"/>
      <point x="41" y="37"/>
      <point x="41" y="31" type="curve" smooth="yes"/>
      <point x="41" y="11"/>
      <point x="53" y="5"/>
      <point x="70" y="5" type="curve" smooth="yes"/>
      <point x="96" y="5"/>
      <point x="122" y="6"/>
      <point x="148" y="7" type="curve" smooth="yes"/>
      <point x="202" y="8"/>
      <point x="255" y="10"/>
      <point x="309" y="10" type="curve" smooth="yes"/>
      <point x="377" y="10"/>
      <point x="445" y="9"/>
      <point x="514" y="9" type="curve" smooth="yes"/>
      <point x="522" y="9"/>
      <point x="532" y="9"/>
      <point x="542" y="10" type="curve"/>
      <point x="552" y="9"/>
      <point x="562" y="8"/>
      <point x="571" y="5" type="curve"/>
      <point x="580" y="5" type="line" smooth="yes"/>
      <point x="586" y="5"/>
      <point x="590" y="5"/>
      <point x="591" y="15" type="curve" smooth="yes"/>
      <point x="594" y="38"/>
      <point x="593" y="66"/>
      <point x="596" y="91" type="curve" smooth="yes"/>
      <point x="600" y="119"/>
      <point x="604" y="147"/>
      <point x="607" y="175" type="curve" smooth="yes"/>
      <point x="609" y="189"/>
      <point x="613" y="205"/>
    </contour>
  </outline>
</glyph>
<glyph name="bracketleft" format="2">
  <advance width="442"/>
  <unicode hex="005B"/>
  <note>
cid00060
</note>
  <outline>
    <contour>
      <point x="182" y="-102" type="line"/>
      <point x="422" y="-102" type="line"/>
      <point x="422" y="-72" type="line"/>
      <point x="249" y="-72" type="line"/>
      <point x="249" y="736" type="line"/>
      <point x="422" y="736" type="line"/>
      <point x="422" y="767" type="line"/>
      <point x="182" y="767" type="line"/>
    </contour>
  </outline>
</glyph>
<glyph name="backslash" format="2">
  <advance width="493"/>
  <unicode hex="005C"/>
  <note>
cid00097
</note>
  <outline>
    <contour>
      <point x="406" y="-96" type="line"/>
      <point x="454" y="-69" type="line"/>
      <point x="96" y="731" type="line"/>
      <point x="46" y="704" type="line"/>
    </contour>
  </outline>
</glyph>
<glyph name="bracketright" format="2">
  <advance width="432"/>
  <unicode hex="005D"/>
  <note>
cid00062
</note>
  <outline>
    <contour>
      <point x="31" y="-102" type="line"/>
      <point x="270" y="-102" type="line"/>
      <point x="270" y="767" type="line"/>
      <point x="31" y="767" type="line"/>
      <point x="31" y="736" type="line"/>
      <point x="203" y="736" type="line"/>
      <point x="203" y="-72" type="line"/>
      <point x="31" y="-72" type="line"/>
    </contour>
  </outline>
</glyph>
<glyph name="asciicircum" format="2">
  <advance width="544"/>
  <unicode hex="005E"/>
  <note>
cid00063
</note>
  <outline>
    <contour>
      <point x="430" y="444" type="line"/>
      <point x="499" y="444" type="line"/>
      <point x="313" y="699" type="line"/>
      <point x="239" y="699" type="line"/>
      <point x="53" y="444" type="line"/>
      <point x="118" y="444" type="line"/>
      <point x="275" y="669" type="line"/>
    </contour>
  </outline>
</glyph>
<glyph name="underscore" format="2">
  <advance width="493"/>
  <unicode hex="005F"/>
  <unicode hex="0332"/>
  <note>
cid00064
</note>
  <outline>
    <contour>
      <point x="30" y="-133" type="line"/>
      <point x="470" y="-133" type="line"/>
      <point x="470" y="-101" type="line"/>
      <point x="30" y="-101" type="line"/>
    </contour>
  </outline>
</glyph>
<glyph name="grave" format="2">
  <advance width="384"/>
  <unicode hex="0060"/>
  <unicode hex="0300"/>
  <note>
cid00065
</note>
  <outline>
    <contour>
      <point x="261" y="574" type="curve" smooth="yes"/>
      <point x="261" y="592"/>
      <point x="220" y="782"/>
      <point x="214" y="800" type="curve" smooth="yes"/>
      <point x="208" y="815"/>
      <point x="195" y="822"/>
      <point x="178" y="822" type="curve" smooth="yes"/>
      <point x="154" y="822"/>
      <point x="128" y="807"/>
      <point x="128" y="784" type="curve" smooth="yes"/>
      <point x="128" y="780"/>
      <point x="129" y="775"/>
      <point x="130" y="771" type="curve" smooth="yes"/>
      <point x="132" y="766"/>
      <point x="134" y="760"/>
      <point x="137" y="755" type="curve" smooth="yes"/>
      <point x="140" y="749"/>
      <point x="143" y="744"/>
      <point x="146" y="739" type="curve" smooth="yes"/>
      <point x="156" y="720"/>
      <point x="166" y="702"/>
      <point x="175" y="684" type="curve" smooth="yes"/>
      <point x="187" y="661"/>
      <point x="226" y="585"/>
      <point x="241" y="568" type="curve"/>
      <point x="243" y="567"/>
      <point x="244" y="565"/>
      <point x="246" y="564" type="curve" smooth="yes"/>
      <point x="248" y="563"/>
      <point x="250" y="562"/>
      <point x="253" y="562" type="curve" smooth="yes"/>
      <point x="259" y="562"/>
      <point x="261" y="569"/>
    </contour>
  </outline>
</glyph>
